G75*
G70*
%OFA0B0*%
%FSLAX24Y24*%
%IPPOS*%
%LPD*%
%AMOC8*
5,1,8,0,0,1.08239X$1,22.5*
%
%ADD10C,0.0000*%
D10*
X002562Y001338D02*
X002562Y018602D01*
X002564Y018667D01*
X002570Y018732D01*
X002579Y018796D01*
X002592Y018860D01*
X002609Y018923D01*
X002629Y018984D01*
X002653Y019045D01*
X002681Y019104D01*
X002712Y019161D01*
X002746Y019216D01*
X002783Y019270D01*
X002824Y019321D01*
X002867Y019369D01*
X002913Y019415D01*
X002961Y019458D01*
X003012Y019499D01*
X003066Y019536D01*
X003121Y019570D01*
X003178Y019601D01*
X003237Y019629D01*
X003298Y019653D01*
X003359Y019673D01*
X003422Y019690D01*
X003486Y019703D01*
X003550Y019712D01*
X003615Y019718D01*
X003680Y019720D01*
X020944Y019720D01*
X021009Y019718D01*
X021074Y019712D01*
X021138Y019703D01*
X021202Y019690D01*
X021265Y019673D01*
X021326Y019653D01*
X021387Y019629D01*
X021446Y019601D01*
X021503Y019570D01*
X021558Y019536D01*
X021612Y019499D01*
X021663Y019458D01*
X021711Y019415D01*
X021757Y019369D01*
X021800Y019321D01*
X021841Y019270D01*
X021878Y019216D01*
X021912Y019161D01*
X021943Y019104D01*
X021971Y019045D01*
X021995Y018984D01*
X022015Y018923D01*
X022032Y018860D01*
X022045Y018796D01*
X022054Y018732D01*
X022060Y018667D01*
X022062Y018602D01*
X022062Y001220D01*
X022060Y001160D01*
X022055Y001099D01*
X022046Y001040D01*
X022033Y000981D01*
X022017Y000922D01*
X021997Y000865D01*
X021974Y000810D01*
X021947Y000755D01*
X021918Y000703D01*
X021885Y000652D01*
X021849Y000603D01*
X021811Y000557D01*
X021769Y000513D01*
X021725Y000471D01*
X021679Y000433D01*
X021630Y000397D01*
X021579Y000364D01*
X021527Y000335D01*
X021472Y000308D01*
X021417Y000285D01*
X021360Y000265D01*
X021301Y000249D01*
X021242Y000236D01*
X021183Y000227D01*
X021122Y000222D01*
X021062Y000220D01*
X003680Y000220D01*
X003615Y000222D01*
X003550Y000228D01*
X003486Y000237D01*
X003422Y000250D01*
X003359Y000267D01*
X003298Y000287D01*
X003237Y000311D01*
X003178Y000339D01*
X003121Y000370D01*
X003066Y000404D01*
X003012Y000441D01*
X002961Y000482D01*
X002913Y000525D01*
X002867Y000571D01*
X002824Y000619D01*
X002783Y000670D01*
X002746Y000724D01*
X002712Y000779D01*
X002681Y000836D01*
X002653Y000895D01*
X002629Y000956D01*
X002609Y001017D01*
X002592Y001080D01*
X002579Y001144D01*
X002570Y001208D01*
X002564Y001273D01*
X002562Y001338D01*
X006471Y005299D02*
X006473Y005347D01*
X006479Y005395D01*
X006489Y005442D01*
X006502Y005488D01*
X006520Y005533D01*
X006540Y005577D01*
X006565Y005619D01*
X006593Y005658D01*
X006623Y005695D01*
X006657Y005729D01*
X006694Y005761D01*
X006732Y005790D01*
X006773Y005815D01*
X006816Y005837D01*
X006861Y005855D01*
X006907Y005869D01*
X006954Y005880D01*
X007002Y005887D01*
X007050Y005890D01*
X007098Y005889D01*
X007146Y005884D01*
X007194Y005875D01*
X007240Y005863D01*
X007285Y005846D01*
X007329Y005826D01*
X007371Y005803D01*
X007411Y005776D01*
X007449Y005746D01*
X007484Y005713D01*
X007516Y005677D01*
X007546Y005639D01*
X007572Y005598D01*
X007594Y005555D01*
X007614Y005511D01*
X007629Y005466D01*
X007641Y005419D01*
X007649Y005371D01*
X007653Y005323D01*
X007653Y005275D01*
X007649Y005227D01*
X007641Y005179D01*
X007629Y005132D01*
X007614Y005087D01*
X007594Y005043D01*
X007572Y005000D01*
X007546Y004959D01*
X007516Y004921D01*
X007484Y004885D01*
X007449Y004852D01*
X007411Y004822D01*
X007371Y004795D01*
X007329Y004772D01*
X007285Y004752D01*
X007240Y004735D01*
X007194Y004723D01*
X007146Y004714D01*
X007098Y004709D01*
X007050Y004708D01*
X007002Y004711D01*
X006954Y004718D01*
X006907Y004729D01*
X006861Y004743D01*
X006816Y004761D01*
X006773Y004783D01*
X006732Y004808D01*
X006694Y004837D01*
X006657Y004869D01*
X006623Y004903D01*
X006593Y004940D01*
X006565Y004979D01*
X006540Y005021D01*
X006520Y005065D01*
X006502Y005110D01*
X006489Y005156D01*
X006479Y005203D01*
X006473Y005251D01*
X006471Y005299D01*
X006471Y015141D02*
X006473Y015189D01*
X006479Y015237D01*
X006489Y015284D01*
X006502Y015330D01*
X006520Y015375D01*
X006540Y015419D01*
X006565Y015461D01*
X006593Y015500D01*
X006623Y015537D01*
X006657Y015571D01*
X006694Y015603D01*
X006732Y015632D01*
X006773Y015657D01*
X006816Y015679D01*
X006861Y015697D01*
X006907Y015711D01*
X006954Y015722D01*
X007002Y015729D01*
X007050Y015732D01*
X007098Y015731D01*
X007146Y015726D01*
X007194Y015717D01*
X007240Y015705D01*
X007285Y015688D01*
X007329Y015668D01*
X007371Y015645D01*
X007411Y015618D01*
X007449Y015588D01*
X007484Y015555D01*
X007516Y015519D01*
X007546Y015481D01*
X007572Y015440D01*
X007594Y015397D01*
X007614Y015353D01*
X007629Y015308D01*
X007641Y015261D01*
X007649Y015213D01*
X007653Y015165D01*
X007653Y015117D01*
X007649Y015069D01*
X007641Y015021D01*
X007629Y014974D01*
X007614Y014929D01*
X007594Y014885D01*
X007572Y014842D01*
X007546Y014801D01*
X007516Y014763D01*
X007484Y014727D01*
X007449Y014694D01*
X007411Y014664D01*
X007371Y014637D01*
X007329Y014614D01*
X007285Y014594D01*
X007240Y014577D01*
X007194Y014565D01*
X007146Y014556D01*
X007098Y014551D01*
X007050Y014550D01*
X007002Y014553D01*
X006954Y014560D01*
X006907Y014571D01*
X006861Y014585D01*
X006816Y014603D01*
X006773Y014625D01*
X006732Y014650D01*
X006694Y014679D01*
X006657Y014711D01*
X006623Y014745D01*
X006593Y014782D01*
X006565Y014821D01*
X006540Y014863D01*
X006520Y014907D01*
X006502Y014952D01*
X006489Y014998D01*
X006479Y015045D01*
X006473Y015093D01*
X006471Y015141D01*
M02*
