G75*
G70*
%OFA0B0*%
%FSLAX24Y24*%
%IPPOS*%
%LPD*%
%AMOC8*
5,1,8,0,0,1.08239X$1,22.5*
%
%ADD10C,0.0554*%
%ADD11OC8,0.0554*%
%ADD12C,0.0600*%
%ADD13R,0.0709X0.0630*%
%ADD14R,0.0630X0.0710*%
%ADD15R,0.0710X0.0630*%
%ADD16R,0.0630X0.0709*%
%ADD17C,0.0396*%
%ADD18C,0.0080*%
%ADD19C,0.0240*%
%ADD20C,0.0200*%
%ADD21C,0.1969*%
D10*
X007062Y008066D03*
X007062Y008966D03*
X006062Y009416D03*
X006062Y010316D03*
X007062Y010766D03*
X007062Y009866D03*
X008062Y010316D03*
X008062Y009416D03*
X008062Y011216D03*
X008062Y012116D03*
X007062Y011666D03*
X006062Y012116D03*
X006062Y011216D03*
X006062Y008516D03*
D11*
X008062Y008516D03*
D12*
X008562Y003520D02*
X008562Y002920D01*
X008562Y002020D02*
X008562Y001420D01*
X007562Y001420D02*
X007562Y002020D01*
X007562Y002920D02*
X007562Y003520D01*
X006562Y003520D02*
X006562Y002920D01*
X006562Y002020D02*
X006562Y001420D01*
X010062Y001420D02*
X010062Y002020D01*
X011062Y002020D02*
X011062Y001420D01*
X012062Y001420D02*
X012062Y002020D01*
X013062Y002020D02*
X013062Y001420D01*
X014062Y001420D02*
X014062Y002020D01*
X015062Y002020D02*
X015062Y001420D01*
X016062Y001420D02*
X016062Y002020D01*
X017062Y002020D02*
X017062Y001420D01*
X018062Y001420D02*
X018062Y002020D01*
X019062Y002020D02*
X019062Y001420D01*
X020262Y003720D02*
X020862Y003720D01*
X020862Y004720D02*
X020262Y004720D01*
X020262Y005720D02*
X020862Y005720D01*
X020862Y006720D02*
X020262Y006720D01*
X020262Y007720D02*
X020862Y007720D01*
X020862Y008720D02*
X020262Y008720D01*
X020262Y009720D02*
X020862Y009720D01*
X020862Y010720D02*
X020262Y010720D01*
X020262Y011720D02*
X020862Y011720D01*
X020862Y012720D02*
X020262Y012720D01*
X020262Y013720D02*
X020862Y013720D01*
X020862Y014720D02*
X020262Y014720D01*
X020262Y015720D02*
X020862Y015720D01*
X019562Y016420D02*
X019562Y017020D01*
X018562Y017020D02*
X018562Y016420D01*
X017562Y016420D02*
X017562Y017020D01*
X016562Y017020D02*
X016562Y016420D01*
X015562Y016420D02*
X015562Y017020D01*
X014562Y017020D02*
X014562Y016420D01*
X013562Y016420D02*
X013562Y017020D01*
X012562Y017020D02*
X012562Y016420D01*
X011562Y016420D02*
X011562Y017020D01*
X010562Y017020D02*
X010562Y016420D01*
X008062Y017420D02*
X008062Y018020D01*
X007062Y018020D02*
X007062Y017420D01*
X006062Y017420D02*
X006062Y018020D01*
D13*
X017062Y012771D03*
X018062Y012771D03*
X018062Y011669D03*
X017062Y011669D03*
D14*
X010122Y010220D03*
X010122Y009220D03*
X010122Y008220D03*
X009002Y008220D03*
X009002Y009220D03*
X009002Y010220D03*
D15*
X005062Y013160D03*
X004062Y013160D03*
X004062Y014280D03*
X005062Y014280D03*
D16*
X012011Y007720D03*
X013113Y007720D03*
X015261Y007970D03*
X016363Y007970D03*
X013613Y011220D03*
X012511Y011220D03*
D17*
X012562Y010470D03*
X014312Y007970D03*
X013062Y006720D03*
X015812Y009220D03*
X017062Y010720D03*
X009062Y004220D03*
D18*
X013062Y006720D02*
X013062Y007669D01*
X013113Y007720D01*
X014312Y007970D02*
X015261Y007970D01*
X012562Y010470D02*
X012562Y011169D01*
X012511Y011220D01*
X011615Y012116D01*
X011562Y012116D01*
X010122Y010676D01*
X010122Y010220D01*
X010122Y009220D01*
X010122Y008220D01*
X009002Y008220D02*
X008358Y008220D01*
X008062Y008516D01*
X008806Y009416D02*
X009002Y009220D01*
X008806Y009416D02*
X008062Y009416D01*
X008062Y010316D02*
X008906Y010316D01*
X009002Y010220D01*
X007062Y009866D02*
X007062Y008966D01*
X007062Y008066D01*
X006062Y010316D02*
X005466Y010316D01*
X004062Y011720D01*
X004062Y013160D01*
X005062Y013160D02*
X005062Y011720D01*
X005566Y011216D01*
X006062Y011216D01*
X007062Y011666D02*
X007512Y012116D01*
X008062Y012116D01*
X011562Y012116D01*
X012217Y012771D01*
X017062Y012771D01*
X018062Y012771D01*
X013812Y011220D02*
X013613Y011220D01*
X007062Y017220D02*
X007062Y017720D01*
X007062Y017220D02*
X005062Y015220D01*
X005062Y014280D01*
X004062Y014280D02*
X004062Y015220D01*
X006062Y017220D01*
X006062Y017720D01*
D19*
X002922Y017459D02*
X002922Y002481D01*
X002986Y002546D01*
X003293Y002723D01*
X003635Y002814D01*
X003989Y002814D01*
X004331Y002723D01*
X004637Y002546D01*
X004888Y002295D01*
X005065Y001989D01*
X005156Y001647D01*
X005156Y001293D01*
X005065Y000951D01*
X004888Y000645D01*
X004823Y000580D01*
X019926Y000580D01*
X019861Y000645D01*
X019684Y000951D01*
X019644Y001101D01*
X019621Y001046D01*
X019436Y000860D01*
X019193Y000760D01*
X018931Y000760D01*
X018688Y000860D01*
X018562Y000987D01*
X018436Y000860D01*
X018193Y000760D01*
X017931Y000760D01*
X017688Y000860D01*
X017562Y000987D01*
X017436Y000860D01*
X017193Y000760D01*
X016931Y000760D01*
X016688Y000860D01*
X016562Y000987D01*
X016436Y000860D01*
X016193Y000760D01*
X015931Y000760D01*
X015688Y000860D01*
X015562Y000987D01*
X015436Y000860D01*
X015193Y000760D01*
X014931Y000760D01*
X014688Y000860D01*
X014562Y000987D01*
X014436Y000860D01*
X014193Y000760D01*
X013931Y000760D01*
X013688Y000860D01*
X013562Y000987D01*
X013436Y000860D01*
X013193Y000760D01*
X012931Y000760D01*
X012688Y000860D01*
X012562Y000987D01*
X012436Y000860D01*
X012193Y000760D01*
X011931Y000760D01*
X011688Y000860D01*
X011562Y000987D01*
X011436Y000860D01*
X011193Y000760D01*
X010931Y000760D01*
X010688Y000860D01*
X010562Y000987D01*
X010436Y000860D01*
X010193Y000760D01*
X009931Y000760D01*
X009688Y000860D01*
X009502Y001046D01*
X009402Y001289D01*
X009402Y002151D01*
X009502Y002394D01*
X009688Y002580D01*
X009931Y002680D01*
X010193Y002680D01*
X010436Y002580D01*
X010562Y002453D01*
X010688Y002580D01*
X010931Y002680D01*
X011193Y002680D01*
X011436Y002580D01*
X011562Y002453D01*
X011688Y002580D01*
X011931Y002680D01*
X012193Y002680D01*
X012436Y002580D01*
X012562Y002453D01*
X012688Y002580D01*
X012931Y002680D01*
X013193Y002680D01*
X013436Y002580D01*
X013562Y002453D01*
X013688Y002580D01*
X013931Y002680D01*
X014193Y002680D01*
X014436Y002580D01*
X014562Y002453D01*
X014688Y002580D01*
X014931Y002680D01*
X015193Y002680D01*
X015436Y002580D01*
X015562Y002453D01*
X015688Y002580D01*
X015931Y002680D01*
X016193Y002680D01*
X016436Y002580D01*
X016562Y002453D01*
X016688Y002580D01*
X016931Y002680D01*
X017193Y002680D01*
X017436Y002580D01*
X017562Y002453D01*
X017688Y002580D01*
X017931Y002680D01*
X018193Y002680D01*
X018436Y002580D01*
X018562Y002453D01*
X018688Y002580D01*
X018931Y002680D01*
X019193Y002680D01*
X019436Y002580D01*
X019621Y002394D01*
X019722Y002151D01*
X019722Y002054D01*
X019861Y002295D01*
X020111Y002546D01*
X020418Y002723D01*
X020760Y002814D01*
X021114Y002814D01*
X021456Y002723D01*
X021702Y002581D01*
X021702Y017459D01*
X021637Y017394D01*
X021331Y017217D01*
X020989Y017126D01*
X020635Y017126D01*
X020293Y017217D01*
X020164Y017292D01*
X020222Y017151D01*
X020222Y016380D01*
X020993Y016380D01*
X021236Y016280D01*
X021421Y016094D01*
X021522Y015851D01*
X021522Y015589D01*
X021421Y015346D01*
X021295Y015220D01*
X021421Y015094D01*
X021522Y014851D01*
X021522Y014589D01*
X021421Y014346D01*
X021295Y014220D01*
X021421Y014094D01*
X021522Y013851D01*
X021522Y013589D01*
X021421Y013346D01*
X021295Y013220D01*
X021421Y013094D01*
X021522Y012851D01*
X021522Y012589D01*
X021421Y012346D01*
X021295Y012220D01*
X021421Y012094D01*
X021522Y011851D01*
X021522Y011589D01*
X021421Y011346D01*
X021295Y011220D01*
X021421Y011094D01*
X021522Y010851D01*
X021522Y010589D01*
X021421Y010346D01*
X021295Y010220D01*
X021421Y010094D01*
X021522Y009851D01*
X021522Y009589D01*
X021421Y009346D01*
X021295Y009220D01*
X021421Y009094D01*
X021522Y008851D01*
X021522Y008589D01*
X021421Y008346D01*
X021295Y008220D01*
X021421Y008094D01*
X021522Y007851D01*
X021522Y007589D01*
X021421Y007346D01*
X021295Y007220D01*
X021421Y007094D01*
X021522Y006851D01*
X021522Y006589D01*
X021421Y006346D01*
X021295Y006220D01*
X021421Y006094D01*
X021522Y005851D01*
X021522Y005589D01*
X021421Y005346D01*
X021295Y005220D01*
X021421Y005094D01*
X021522Y004851D01*
X021522Y004589D01*
X021421Y004346D01*
X021295Y004220D01*
X021421Y004094D01*
X021522Y003851D01*
X021522Y003589D01*
X021421Y003346D01*
X021236Y003160D01*
X020993Y003060D01*
X020131Y003060D01*
X019888Y003160D01*
X019702Y003346D01*
X019602Y003589D01*
X019602Y003851D01*
X019702Y004094D01*
X019829Y004220D01*
X019702Y004346D01*
X019602Y004589D01*
X019602Y004851D01*
X019702Y005094D01*
X019829Y005220D01*
X019702Y005346D01*
X019602Y005589D01*
X019602Y005851D01*
X019702Y006094D01*
X019829Y006220D01*
X019702Y006346D01*
X019602Y006589D01*
X019602Y006851D01*
X019702Y007094D01*
X019829Y007220D01*
X019702Y007346D01*
X019602Y007589D01*
X019602Y007851D01*
X019702Y008094D01*
X019829Y008220D01*
X019702Y008346D01*
X019602Y008589D01*
X019602Y008851D01*
X019702Y009094D01*
X019829Y009220D01*
X019702Y009346D01*
X019602Y009589D01*
X019602Y009851D01*
X019702Y010094D01*
X019829Y010220D01*
X019702Y010346D01*
X019602Y010589D01*
X019602Y010851D01*
X019702Y011094D01*
X019829Y011220D01*
X019702Y011346D01*
X019602Y011589D01*
X019602Y011851D01*
X019702Y012094D01*
X019829Y012220D01*
X019702Y012346D01*
X019602Y012589D01*
X019602Y012851D01*
X019702Y013094D01*
X019829Y013220D01*
X019702Y013346D01*
X019602Y013589D01*
X019602Y013851D01*
X019702Y014094D01*
X019829Y014220D01*
X019702Y014346D01*
X019602Y014589D01*
X019602Y014851D01*
X019702Y015094D01*
X019829Y015220D01*
X019702Y015346D01*
X019602Y015589D01*
X019602Y015760D01*
X019431Y015760D01*
X019188Y015860D01*
X019062Y015987D01*
X018936Y015860D01*
X018693Y015760D01*
X018431Y015760D01*
X018188Y015860D01*
X018062Y015987D01*
X017936Y015860D01*
X017693Y015760D01*
X017431Y015760D01*
X017188Y015860D01*
X017062Y015987D01*
X016936Y015860D01*
X016693Y015760D01*
X016431Y015760D01*
X016188Y015860D01*
X016062Y015987D01*
X015936Y015860D01*
X015693Y015760D01*
X015431Y015760D01*
X015188Y015860D01*
X015062Y015987D01*
X014936Y015860D01*
X014693Y015760D01*
X014431Y015760D01*
X014188Y015860D01*
X014062Y015987D01*
X013936Y015860D01*
X013693Y015760D01*
X013431Y015760D01*
X013188Y015860D01*
X013062Y015987D01*
X012936Y015860D01*
X012693Y015760D01*
X012431Y015760D01*
X012188Y015860D01*
X012062Y015987D01*
X011936Y015860D01*
X011693Y015760D01*
X011431Y015760D01*
X011188Y015860D01*
X011062Y015987D01*
X010936Y015860D01*
X010693Y015760D01*
X010431Y015760D01*
X010188Y015860D01*
X010002Y016046D01*
X009902Y016289D01*
X009902Y017151D01*
X010002Y017394D01*
X010188Y017580D01*
X010431Y017680D01*
X010693Y017680D01*
X010936Y017580D01*
X011062Y017453D01*
X011188Y017580D01*
X011431Y017680D01*
X011693Y017680D01*
X011936Y017580D01*
X012062Y017453D01*
X012188Y017580D01*
X012431Y017680D01*
X012693Y017680D01*
X012936Y017580D01*
X013062Y017453D01*
X013188Y017580D01*
X013431Y017680D01*
X013693Y017680D01*
X013936Y017580D01*
X014062Y017453D01*
X014188Y017580D01*
X014431Y017680D01*
X014693Y017680D01*
X014936Y017580D01*
X015062Y017453D01*
X015188Y017580D01*
X015431Y017680D01*
X015693Y017680D01*
X015936Y017580D01*
X016062Y017453D01*
X016188Y017580D01*
X016431Y017680D01*
X016693Y017680D01*
X016936Y017580D01*
X017062Y017453D01*
X017188Y017580D01*
X017431Y017680D01*
X017693Y017680D01*
X017936Y017580D01*
X018062Y017453D01*
X018188Y017580D01*
X018431Y017680D01*
X018693Y017680D01*
X018936Y017580D01*
X019062Y017453D01*
X019188Y017580D01*
X019431Y017680D01*
X019693Y017680D01*
X019723Y017668D01*
X019559Y017951D01*
X019468Y018293D01*
X019468Y018647D01*
X019559Y018989D01*
X019736Y019295D01*
X019801Y019360D01*
X004823Y019360D01*
X004888Y019295D01*
X005065Y018989D01*
X005156Y018647D01*
X005156Y018293D01*
X005065Y017951D01*
X004888Y017645D01*
X004637Y017394D01*
X004331Y017217D01*
X003989Y017126D01*
X003635Y017126D01*
X003293Y017217D01*
X002986Y017394D01*
X002922Y017459D01*
X002922Y017392D02*
X002991Y017392D01*
X002922Y017154D02*
X003531Y017154D01*
X002922Y016915D02*
X005191Y016915D01*
X004953Y016677D02*
X002922Y016677D01*
X002922Y016438D02*
X004714Y016438D01*
X004476Y016200D02*
X002922Y016200D01*
X002922Y015961D02*
X004237Y015961D01*
X003999Y015723D02*
X002922Y015723D01*
X002922Y015484D02*
X003760Y015484D01*
X003723Y015447D02*
X003662Y015300D01*
X003662Y014955D01*
X003635Y014955D01*
X003503Y014900D01*
X003402Y014799D01*
X003347Y014666D01*
X003347Y013893D01*
X003402Y013761D01*
X003443Y013720D01*
X003402Y013679D01*
X003347Y013547D01*
X003347Y012774D01*
X003402Y012641D01*
X003503Y012540D01*
X003635Y012485D01*
X003662Y012485D01*
X003662Y011640D01*
X003723Y011493D01*
X005240Y009977D01*
X005387Y009916D01*
X005561Y009916D01*
X005611Y009866D01*
X005522Y009777D01*
X005425Y009542D01*
X005425Y009289D01*
X005522Y009055D01*
X005611Y008966D01*
X005522Y008877D01*
X005425Y008642D01*
X005425Y008389D01*
X005522Y008155D01*
X005701Y007976D01*
X005935Y007879D01*
X006189Y007879D01*
X006423Y007976D01*
X006567Y008120D01*
X006565Y008105D01*
X006565Y008066D01*
X007062Y008066D01*
X007062Y008066D01*
X007062Y008966D01*
X007062Y008966D01*
X007062Y009866D01*
X007062Y009866D01*
X007062Y009463D01*
X007062Y008966D01*
X007062Y008966D01*
X007062Y008563D01*
X007062Y008066D01*
X007559Y008066D01*
X007559Y008105D01*
X007557Y008120D01*
X007798Y007879D01*
X008137Y007879D01*
X008278Y007820D01*
X008327Y007820D01*
X008327Y007793D01*
X008382Y007661D01*
X008483Y007560D01*
X008615Y007505D01*
X009389Y007505D01*
X009521Y007560D01*
X009622Y007661D01*
X009645Y007716D01*
X009672Y007689D01*
X009722Y007660D01*
X009778Y007645D01*
X010084Y007645D01*
X010084Y008183D01*
X010159Y008183D01*
X010159Y008257D01*
X010657Y008257D01*
X010657Y008604D01*
X010642Y008660D01*
X010613Y008710D01*
X010603Y008720D01*
X010613Y008730D01*
X010642Y008780D01*
X010657Y008836D01*
X010657Y009183D01*
X010159Y009183D01*
X010159Y009257D01*
X010657Y009257D01*
X010657Y009604D01*
X010642Y009660D01*
X010613Y009710D01*
X010603Y009720D01*
X010613Y009730D01*
X010642Y009780D01*
X010657Y009836D01*
X010657Y010183D01*
X010159Y010183D01*
X010159Y010257D01*
X010657Y010257D01*
X010657Y010604D01*
X010642Y010660D01*
X010613Y010710D01*
X010572Y010751D01*
X010522Y010780D01*
X010466Y010795D01*
X010159Y010795D01*
X010159Y010257D01*
X010084Y010257D01*
X010084Y010795D01*
X009778Y010795D01*
X009722Y010780D01*
X009672Y010751D01*
X009645Y010724D01*
X009622Y010779D01*
X009521Y010880D01*
X009389Y010935D01*
X008635Y010935D01*
X008699Y011089D01*
X008699Y011342D01*
X008602Y011577D01*
X008423Y011756D01*
X008410Y011761D01*
X008441Y011792D01*
X008487Y011855D01*
X008523Y011925D01*
X008547Y011999D01*
X008559Y012077D01*
X008559Y012116D01*
X008559Y012155D01*
X008547Y012232D01*
X008523Y012307D01*
X008487Y012376D01*
X008441Y012440D01*
X008386Y012495D01*
X008322Y012541D01*
X008253Y012576D01*
X008178Y012601D01*
X008101Y012613D01*
X008062Y012613D01*
X008062Y012116D01*
X008062Y012116D01*
X008062Y012613D01*
X008023Y012613D01*
X007945Y012601D01*
X007871Y012576D01*
X007801Y012541D01*
X007738Y012495D01*
X007683Y012440D01*
X007637Y012376D01*
X007601Y012307D01*
X007577Y012232D01*
X007565Y012155D01*
X007565Y012116D01*
X008062Y012116D01*
X008559Y012116D01*
X008062Y012116D01*
X008062Y012116D01*
X008062Y012116D01*
X007565Y012116D01*
X007565Y012077D01*
X007577Y011999D01*
X007601Y011925D01*
X007637Y011855D01*
X007683Y011792D01*
X007713Y011761D01*
X007701Y011756D01*
X007557Y011612D01*
X007559Y011627D01*
X007559Y011666D01*
X007559Y011705D01*
X007547Y011782D01*
X007523Y011857D01*
X007487Y011926D01*
X007441Y011990D01*
X007386Y012045D01*
X007322Y012091D01*
X007253Y012126D01*
X007178Y012151D01*
X007101Y012163D01*
X007062Y012163D01*
X007062Y011666D01*
X007062Y011666D01*
X007062Y012163D01*
X007023Y012163D01*
X006945Y012151D01*
X006871Y012126D01*
X006801Y012091D01*
X006738Y012045D01*
X006699Y012006D01*
X006699Y012242D01*
X006602Y012477D01*
X006423Y012656D01*
X006189Y012753D01*
X005935Y012753D01*
X005734Y012669D01*
X005777Y012774D01*
X005777Y013547D01*
X005722Y013679D01*
X005681Y013720D01*
X005722Y013761D01*
X005777Y013893D01*
X005777Y014547D01*
X005934Y014275D01*
X006196Y014013D01*
X006518Y013827D01*
X006876Y013731D01*
X007248Y013731D01*
X007606Y013827D01*
X007928Y014013D01*
X008190Y014275D01*
X008376Y014597D01*
X008472Y014956D01*
X008472Y015327D01*
X008376Y015685D01*
X008190Y016007D01*
X007928Y016270D01*
X007606Y016455D01*
X007248Y016551D01*
X006959Y016551D01*
X007168Y016760D01*
X007193Y016760D01*
X007436Y016860D01*
X007562Y016987D01*
X007688Y016860D01*
X007931Y016760D01*
X008193Y016760D01*
X008436Y016860D01*
X008621Y017046D01*
X008722Y017289D01*
X008722Y018151D01*
X008621Y018394D01*
X008436Y018580D01*
X008193Y018680D01*
X007931Y018680D01*
X007688Y018580D01*
X007562Y018453D01*
X007436Y018580D01*
X007193Y018680D01*
X006931Y018680D01*
X006688Y018580D01*
X006562Y018453D01*
X006436Y018580D01*
X006193Y018680D01*
X005931Y018680D01*
X005688Y018580D01*
X005502Y018394D01*
X005402Y018151D01*
X005402Y017289D01*
X005450Y017173D01*
X003723Y015447D01*
X003662Y015246D02*
X002922Y015246D01*
X002922Y015007D02*
X003662Y015007D01*
X003389Y014769D02*
X002922Y014769D01*
X002922Y014530D02*
X003347Y014530D01*
X003347Y014292D02*
X002922Y014292D01*
X002922Y014053D02*
X003347Y014053D01*
X003380Y013815D02*
X002922Y013815D01*
X002922Y013576D02*
X003359Y013576D01*
X003347Y013338D02*
X002922Y013338D01*
X002922Y013099D02*
X003347Y013099D01*
X003347Y012861D02*
X002922Y012861D01*
X002922Y012622D02*
X003421Y012622D01*
X003662Y012384D02*
X002922Y012384D01*
X002922Y012145D02*
X003662Y012145D01*
X003662Y011907D02*
X002922Y011907D01*
X002922Y011668D02*
X003662Y011668D01*
X003787Y011430D02*
X002922Y011430D01*
X002922Y011191D02*
X004025Y011191D01*
X004264Y010953D02*
X002922Y010953D01*
X002922Y010714D02*
X004502Y010714D01*
X004741Y010476D02*
X002922Y010476D01*
X002922Y010237D02*
X004979Y010237D01*
X005218Y009999D02*
X002922Y009999D01*
X002922Y009760D02*
X005515Y009760D01*
X005425Y009522D02*
X002922Y009522D01*
X002922Y009283D02*
X005427Y009283D01*
X005532Y009045D02*
X002922Y009045D01*
X002922Y008806D02*
X005492Y008806D01*
X005425Y008568D02*
X002922Y008568D01*
X002922Y008329D02*
X005450Y008329D01*
X005586Y008091D02*
X002922Y008091D01*
X002922Y007852D02*
X006613Y007852D01*
X006601Y007875D02*
X006637Y007805D01*
X006683Y007742D01*
X006738Y007686D01*
X006801Y007640D01*
X006871Y007605D01*
X006945Y007581D01*
X007023Y007569D01*
X007062Y007569D01*
X007101Y007569D01*
X007178Y007581D01*
X007253Y007605D01*
X007322Y007640D01*
X007386Y007686D01*
X007441Y007742D01*
X007487Y007805D01*
X007523Y007875D01*
X007547Y007949D01*
X007559Y008027D01*
X007559Y008066D01*
X007062Y008066D01*
X007062Y008066D01*
X007062Y008066D01*
X007062Y007569D01*
X007062Y008066D01*
X007062Y008066D01*
X006565Y008066D01*
X006565Y008027D01*
X006577Y007949D01*
X006601Y007875D01*
X006565Y008091D02*
X006538Y008091D01*
X007062Y008091D02*
X007062Y008091D01*
X007062Y008329D02*
X007062Y008329D01*
X007062Y008568D02*
X007062Y008568D01*
X007062Y008806D02*
X007062Y008806D01*
X007062Y009045D02*
X007062Y009045D01*
X007062Y009283D02*
X007062Y009283D01*
X007062Y009522D02*
X007062Y009522D01*
X007062Y009760D02*
X007062Y009760D01*
X008643Y010953D02*
X011976Y010953D01*
X011976Y010837D02*
X011991Y010781D01*
X012020Y010731D01*
X012061Y010690D01*
X012111Y010661D01*
X012167Y010646D01*
X012473Y010646D01*
X012473Y011183D01*
X011976Y011183D01*
X011976Y010837D01*
X012036Y010714D02*
X010609Y010714D01*
X010657Y010476D02*
X015156Y010476D01*
X015352Y010279D02*
X015352Y009680D01*
X012970Y009680D01*
X012801Y009610D01*
X011750Y008559D01*
X011626Y008434D01*
X011624Y008434D01*
X011492Y008380D01*
X011391Y008278D01*
X011336Y008146D01*
X011336Y007294D01*
X011380Y007188D01*
X008969Y004778D01*
X008951Y004778D01*
X008746Y004693D01*
X008589Y004536D01*
X008504Y004331D01*
X008504Y004180D01*
X008431Y004180D01*
X008188Y004080D01*
X008002Y003894D01*
X007977Y003833D01*
X007959Y003859D01*
X007901Y003917D01*
X007834Y003965D01*
X007761Y004002D01*
X007684Y004027D01*
X007680Y004028D01*
X007928Y004170D01*
X008190Y004433D01*
X008376Y004754D01*
X008472Y005113D01*
X008472Y005484D01*
X008376Y005843D01*
X008190Y006164D01*
X007928Y006427D01*
X007606Y006613D01*
X007248Y006709D01*
X006876Y006709D01*
X006518Y006613D01*
X006196Y006427D01*
X005934Y006164D01*
X005748Y005843D01*
X005652Y005484D01*
X005652Y005113D01*
X005748Y004754D01*
X005934Y004433D01*
X006196Y004170D01*
X006443Y004028D01*
X006440Y004027D01*
X006362Y004002D01*
X006289Y003965D01*
X006223Y003917D01*
X006165Y003859D01*
X006117Y003793D01*
X006080Y003720D01*
X006055Y003642D01*
X006042Y003561D01*
X006042Y003220D01*
X006042Y002879D01*
X006055Y002798D01*
X006080Y002720D01*
X006117Y002647D01*
X006165Y002581D01*
X006223Y002523D01*
X006289Y002475D01*
X006300Y002470D01*
X006289Y002465D01*
X006223Y002417D01*
X006165Y002359D01*
X006117Y002293D01*
X006080Y002220D01*
X006055Y002142D01*
X006042Y002061D01*
X006042Y001720D01*
X006042Y001379D01*
X006055Y001298D01*
X006080Y001220D01*
X006117Y001147D01*
X006165Y001081D01*
X006223Y001023D01*
X006289Y000975D01*
X006362Y000938D01*
X006440Y000913D01*
X006521Y000900D01*
X006562Y000900D01*
X006603Y000900D01*
X006684Y000913D01*
X006761Y000938D01*
X006834Y000975D01*
X006901Y001023D01*
X006959Y001081D01*
X007007Y001147D01*
X007044Y001220D01*
X007062Y001276D01*
X007080Y001220D01*
X007117Y001147D01*
X007165Y001081D01*
X007223Y001023D01*
X007289Y000975D01*
X007362Y000938D01*
X007440Y000913D01*
X007521Y000900D01*
X007562Y000900D01*
X007603Y000900D01*
X007684Y000913D01*
X007761Y000938D01*
X007834Y000975D01*
X007901Y001023D01*
X007959Y001081D01*
X007977Y001107D01*
X008002Y001046D01*
X008188Y000860D01*
X008431Y000760D01*
X008693Y000760D01*
X008936Y000860D01*
X009121Y001046D01*
X009222Y001289D01*
X009222Y002151D01*
X009121Y002394D01*
X009045Y002470D01*
X009121Y002546D01*
X009222Y002789D01*
X009222Y003651D01*
X009211Y003678D01*
X009378Y003747D01*
X009535Y003904D01*
X009620Y004109D01*
X009620Y004128D01*
X012271Y006779D01*
X012401Y006908D01*
X012450Y007028D01*
X012530Y007060D01*
X012562Y007093D01*
X012594Y007060D01*
X012608Y007055D01*
X012589Y007036D01*
X012504Y006831D01*
X012504Y006609D01*
X012589Y006404D01*
X012746Y006247D01*
X012951Y006162D01*
X013173Y006162D01*
X013378Y006247D01*
X013535Y006404D01*
X013620Y006609D01*
X013620Y006831D01*
X013541Y007023D01*
X013632Y007060D01*
X013733Y007162D01*
X013788Y007294D01*
X013788Y007776D01*
X013839Y007654D01*
X013996Y007497D01*
X014201Y007412D01*
X014423Y007412D01*
X014609Y007489D01*
X014641Y007412D01*
X014742Y007310D01*
X014874Y007256D01*
X015647Y007256D01*
X015780Y007310D01*
X015812Y007343D01*
X015844Y007310D01*
X015977Y007256D01*
X016750Y007256D01*
X016882Y007310D01*
X016983Y007412D01*
X017038Y007544D01*
X017038Y008396D01*
X016983Y008528D01*
X016882Y008630D01*
X016823Y008654D01*
X016823Y008760D01*
X016753Y008929D01*
X016370Y009312D01*
X016370Y009331D01*
X016285Y009536D01*
X016272Y009549D01*
X016272Y010260D01*
X016733Y010260D01*
X016746Y010247D01*
X016951Y010162D01*
X017173Y010162D01*
X017378Y010247D01*
X017535Y010404D01*
X017620Y010609D01*
X017620Y010831D01*
X017543Y011017D01*
X017562Y011025D01*
X017636Y010994D01*
X018488Y010994D01*
X018620Y011049D01*
X018721Y011150D01*
X018776Y011282D01*
X018776Y012055D01*
X018721Y012188D01*
X018620Y012289D01*
X018578Y012307D01*
X018592Y012321D01*
X018621Y012371D01*
X018636Y012427D01*
X018636Y012734D01*
X018099Y012734D01*
X018099Y012809D01*
X018024Y012809D01*
X018024Y013306D01*
X017679Y013306D01*
X017623Y013291D01*
X017572Y013262D01*
X017562Y013252D01*
X017551Y013262D01*
X017501Y013291D01*
X017445Y013306D01*
X017099Y013306D01*
X017099Y012809D01*
X017024Y012809D01*
X017024Y013306D01*
X016679Y013306D01*
X016623Y013291D01*
X016572Y013262D01*
X016532Y013221D01*
X016503Y013171D01*
X016488Y013115D01*
X016488Y012809D01*
X017024Y012809D01*
X017024Y012734D01*
X016488Y012734D01*
X016488Y012427D01*
X016503Y012371D01*
X016532Y012321D01*
X016546Y012307D01*
X016504Y012289D01*
X016402Y012188D01*
X016348Y012055D01*
X016348Y011282D01*
X016390Y011180D01*
X015970Y011180D01*
X015816Y011116D01*
X015452Y011481D01*
X015322Y011610D01*
X015153Y011680D01*
X014274Y011680D01*
X014233Y011778D01*
X014132Y011880D01*
X014000Y011934D01*
X013227Y011934D01*
X013094Y011880D01*
X012993Y011778D01*
X012975Y011736D01*
X012961Y011750D01*
X012911Y011779D01*
X012855Y011794D01*
X012548Y011794D01*
X012548Y011257D01*
X012473Y011257D01*
X012473Y011183D01*
X012548Y011183D01*
X012548Y010646D01*
X012855Y010646D01*
X012911Y010661D01*
X012961Y010690D01*
X012975Y010704D01*
X012993Y010662D01*
X013094Y010560D01*
X013227Y010506D01*
X014000Y010506D01*
X014132Y010560D01*
X014233Y010662D01*
X014274Y010760D01*
X014871Y010760D01*
X015352Y010279D01*
X015352Y010237D02*
X010159Y010237D01*
X010159Y010183D02*
X010159Y009645D01*
X010159Y009257D01*
X010084Y009257D01*
X010084Y010183D01*
X010159Y010183D01*
X010159Y009999D02*
X010084Y009999D01*
X010084Y009760D02*
X010159Y009760D01*
X010159Y009522D02*
X010084Y009522D01*
X010084Y009283D02*
X010159Y009283D01*
X010159Y009183D02*
X010159Y008645D01*
X010159Y008257D01*
X010084Y008257D01*
X010084Y009183D01*
X010159Y009183D01*
X010159Y009045D02*
X010084Y009045D01*
X010084Y008806D02*
X010159Y008806D01*
X010159Y008568D02*
X010084Y008568D01*
X010084Y008329D02*
X010159Y008329D01*
X010159Y008183D02*
X010657Y008183D01*
X010657Y007836D01*
X010642Y007780D01*
X010613Y007730D01*
X010572Y007689D01*
X010522Y007660D01*
X010466Y007645D01*
X010159Y007645D01*
X010159Y008183D01*
X010159Y008091D02*
X010084Y008091D01*
X010084Y007852D02*
X010159Y007852D01*
X010657Y007852D02*
X011336Y007852D01*
X011336Y007614D02*
X009575Y007614D01*
X008430Y007614D02*
X007270Y007614D01*
X007062Y007614D02*
X007062Y007614D01*
X006854Y007614D02*
X002922Y007614D01*
X002922Y007375D02*
X011336Y007375D01*
X011328Y007137D02*
X002922Y007137D01*
X002922Y006898D02*
X011089Y006898D01*
X010851Y006660D02*
X007431Y006660D01*
X007934Y006421D02*
X010612Y006421D01*
X010374Y006183D02*
X008172Y006183D01*
X008317Y005944D02*
X010135Y005944D01*
X009897Y005706D02*
X008413Y005706D01*
X008472Y005467D02*
X009658Y005467D01*
X009420Y005229D02*
X008472Y005229D01*
X008439Y004990D02*
X009181Y004990D01*
X008887Y004752D02*
X008374Y004752D01*
X008236Y004513D02*
X008579Y004513D01*
X008504Y004275D02*
X008032Y004275D01*
X008145Y004036D02*
X007695Y004036D01*
X007562Y003220D02*
X007082Y003220D01*
X006562Y003220D01*
X006562Y003220D01*
X007562Y003220D01*
X007562Y002400D01*
X007562Y001720D01*
X007562Y000900D01*
X007562Y001720D01*
X007562Y001720D01*
X007562Y001720D01*
X007562Y003220D01*
X007562Y003220D01*
X007562Y003220D01*
X007562Y003082D02*
X007562Y003082D01*
X007562Y002844D02*
X007562Y002844D01*
X007562Y002605D02*
X007562Y002605D01*
X007562Y002367D02*
X007562Y002367D01*
X007562Y002128D02*
X007562Y002128D01*
X007562Y001890D02*
X007562Y001890D01*
X007562Y001720D02*
X007562Y001720D01*
X006562Y001720D01*
X007082Y001720D01*
X007562Y001720D01*
X007562Y001651D02*
X007562Y001651D01*
X007562Y001413D02*
X007562Y001413D01*
X007562Y001174D02*
X007562Y001174D01*
X007562Y000936D02*
X007562Y000936D01*
X007754Y000936D02*
X008113Y000936D01*
X007370Y000936D02*
X006754Y000936D01*
X006562Y000936D02*
X006562Y000936D01*
X006562Y000900D02*
X006562Y001720D01*
X006562Y001720D01*
X006562Y001720D01*
X006562Y001720D01*
X006562Y002400D01*
X006562Y003220D01*
X006562Y003220D01*
X006562Y001720D01*
X006562Y000900D01*
X006370Y000936D02*
X005056Y000936D01*
X005124Y001174D02*
X006104Y001174D01*
X006042Y001413D02*
X005156Y001413D01*
X005155Y001651D02*
X006042Y001651D01*
X006042Y001720D02*
X006562Y001720D01*
X006562Y001720D01*
X006042Y001720D01*
X006042Y001890D02*
X005091Y001890D01*
X004984Y002128D02*
X006053Y002128D01*
X006173Y002367D02*
X004816Y002367D01*
X004535Y002605D02*
X006148Y002605D01*
X006048Y002844D02*
X002922Y002844D01*
X002922Y003082D02*
X006042Y003082D01*
X006042Y003220D02*
X006562Y003220D01*
X006562Y003220D01*
X006042Y003220D01*
X006042Y003321D02*
X002922Y003321D01*
X002922Y003559D02*
X006042Y003559D01*
X006121Y003798D02*
X002922Y003798D01*
X002922Y004036D02*
X006429Y004036D01*
X006092Y004275D02*
X002922Y004275D01*
X002922Y004513D02*
X005887Y004513D01*
X005750Y004752D02*
X002922Y004752D01*
X002922Y004990D02*
X005685Y004990D01*
X005652Y005229D02*
X002922Y005229D01*
X002922Y005467D02*
X005652Y005467D01*
X005711Y005706D02*
X002922Y005706D01*
X002922Y005944D02*
X005806Y005944D01*
X005952Y006183D02*
X002922Y006183D01*
X002922Y006421D02*
X006190Y006421D01*
X006693Y006660D02*
X002922Y006660D01*
X007062Y007852D02*
X007062Y007852D01*
X007511Y007852D02*
X008201Y007852D01*
X007586Y008091D02*
X007559Y008091D01*
X010084Y010476D02*
X010159Y010476D01*
X010159Y010714D02*
X010084Y010714D01*
X010657Y009999D02*
X015352Y009999D01*
X015352Y009760D02*
X010630Y009760D01*
X010657Y009522D02*
X012713Y009522D01*
X012474Y009283D02*
X010657Y009283D01*
X010657Y009045D02*
X012236Y009045D01*
X011997Y008806D02*
X010649Y008806D01*
X010657Y008568D02*
X011759Y008568D01*
X011441Y008329D02*
X010657Y008329D01*
X010657Y008091D02*
X011336Y008091D01*
X012390Y006898D02*
X012532Y006898D01*
X012504Y006660D02*
X012152Y006660D01*
X011913Y006421D02*
X012582Y006421D01*
X012901Y006183D02*
X011675Y006183D01*
X011436Y005944D02*
X019640Y005944D01*
X019602Y005706D02*
X011198Y005706D01*
X010959Y005467D02*
X019652Y005467D01*
X019820Y005229D02*
X010721Y005229D01*
X010482Y004990D02*
X019659Y004990D01*
X019602Y004752D02*
X010244Y004752D01*
X010005Y004513D02*
X019633Y004513D01*
X019774Y004275D02*
X009767Y004275D01*
X009590Y004036D02*
X019678Y004036D01*
X019602Y003798D02*
X009429Y003798D01*
X009222Y003559D02*
X019614Y003559D01*
X019728Y003321D02*
X009222Y003321D01*
X009222Y003082D02*
X020077Y003082D01*
X020214Y002605D02*
X019374Y002605D01*
X019633Y002367D02*
X019932Y002367D01*
X019765Y002128D02*
X019722Y002128D01*
X018750Y002605D02*
X018374Y002605D01*
X017750Y002605D02*
X017374Y002605D01*
X016750Y002605D02*
X016374Y002605D01*
X015750Y002605D02*
X015374Y002605D01*
X014750Y002605D02*
X014374Y002605D01*
X013750Y002605D02*
X013374Y002605D01*
X012750Y002605D02*
X012374Y002605D01*
X011750Y002605D02*
X011374Y002605D01*
X010750Y002605D02*
X010374Y002605D01*
X009750Y002605D02*
X009146Y002605D01*
X009222Y002844D02*
X021702Y002844D01*
X021702Y003082D02*
X021046Y003082D01*
X021396Y003321D02*
X021702Y003321D01*
X021702Y003559D02*
X021510Y003559D01*
X021522Y003798D02*
X021702Y003798D01*
X021702Y004036D02*
X021445Y004036D01*
X021350Y004275D02*
X021702Y004275D01*
X021702Y004513D02*
X021491Y004513D01*
X021522Y004752D02*
X021702Y004752D01*
X021702Y004990D02*
X021464Y004990D01*
X021304Y005229D02*
X021702Y005229D01*
X021702Y005467D02*
X021471Y005467D01*
X021522Y005706D02*
X021702Y005706D01*
X021702Y005944D02*
X021483Y005944D01*
X021333Y006183D02*
X021702Y006183D01*
X021702Y006421D02*
X021452Y006421D01*
X021522Y006660D02*
X021702Y006660D01*
X021702Y006898D02*
X021503Y006898D01*
X021379Y007137D02*
X021702Y007137D01*
X021702Y007375D02*
X021433Y007375D01*
X021522Y007614D02*
X021702Y007614D01*
X021702Y007852D02*
X021522Y007852D01*
X021423Y008091D02*
X021702Y008091D01*
X021702Y008329D02*
X021404Y008329D01*
X021513Y008568D02*
X021702Y008568D01*
X021702Y008806D02*
X021522Y008806D01*
X021442Y009045D02*
X021702Y009045D01*
X021702Y009283D02*
X021358Y009283D01*
X021494Y009522D02*
X021702Y009522D01*
X021702Y009760D02*
X021522Y009760D01*
X021461Y009999D02*
X021702Y009999D01*
X021702Y010237D02*
X021312Y010237D01*
X021475Y010476D02*
X021702Y010476D01*
X021702Y010714D02*
X021522Y010714D01*
X021480Y010953D02*
X021702Y010953D01*
X021702Y011191D02*
X021324Y011191D01*
X021456Y011430D02*
X021702Y011430D01*
X021702Y011668D02*
X021522Y011668D01*
X021499Y011907D02*
X021702Y011907D01*
X021702Y012145D02*
X021370Y012145D01*
X021437Y012384D02*
X021702Y012384D01*
X021702Y012622D02*
X021522Y012622D01*
X021518Y012861D02*
X021702Y012861D01*
X021702Y013099D02*
X021416Y013099D01*
X021413Y013338D02*
X021702Y013338D01*
X021702Y013576D02*
X021517Y013576D01*
X021522Y013815D02*
X021702Y013815D01*
X021702Y014053D02*
X021438Y014053D01*
X021367Y014292D02*
X021702Y014292D01*
X021702Y014530D02*
X021498Y014530D01*
X021522Y014769D02*
X021702Y014769D01*
X021702Y015007D02*
X021457Y015007D01*
X021321Y015246D02*
X021702Y015246D01*
X021702Y015484D02*
X021479Y015484D01*
X021522Y015723D02*
X021702Y015723D01*
X021702Y015961D02*
X021476Y015961D01*
X021316Y016200D02*
X021702Y016200D01*
X021702Y016438D02*
X020222Y016438D01*
X020222Y016677D02*
X021702Y016677D01*
X021702Y016915D02*
X020222Y016915D01*
X020221Y017154D02*
X020531Y017154D01*
X021093Y017154D02*
X021702Y017154D01*
X021702Y017392D02*
X021633Y017392D01*
X019741Y019300D02*
X004883Y019300D01*
X005023Y019062D02*
X019601Y019062D01*
X019515Y018823D02*
X005109Y018823D01*
X005156Y018585D02*
X005700Y018585D01*
X005483Y018346D02*
X005156Y018346D01*
X005106Y018108D02*
X005402Y018108D01*
X005402Y017869D02*
X005017Y017869D01*
X004873Y017631D02*
X005402Y017631D01*
X005402Y017392D02*
X004633Y017392D01*
X004093Y017154D02*
X005430Y017154D01*
X007084Y016677D02*
X009902Y016677D01*
X009902Y016915D02*
X008490Y016915D01*
X008666Y017154D02*
X009903Y017154D01*
X010002Y017392D02*
X008722Y017392D01*
X008722Y017631D02*
X010311Y017631D01*
X010813Y017631D02*
X011311Y017631D01*
X011813Y017631D02*
X012311Y017631D01*
X012813Y017631D02*
X013311Y017631D01*
X013813Y017631D02*
X014311Y017631D01*
X014813Y017631D02*
X015311Y017631D01*
X015813Y017631D02*
X016311Y017631D01*
X016813Y017631D02*
X017311Y017631D01*
X017813Y017631D02*
X018311Y017631D01*
X018813Y017631D02*
X019311Y017631D01*
X019607Y017869D02*
X008722Y017869D01*
X008722Y018108D02*
X019517Y018108D01*
X019468Y018346D02*
X008641Y018346D01*
X008424Y018585D02*
X019468Y018585D01*
X019087Y015961D02*
X019036Y015961D01*
X019602Y015723D02*
X008354Y015723D01*
X008430Y015484D02*
X019645Y015484D01*
X019803Y015246D02*
X008472Y015246D01*
X008472Y015007D02*
X019666Y015007D01*
X019602Y014769D02*
X008422Y014769D01*
X008337Y014530D02*
X019626Y014530D01*
X019757Y014292D02*
X008199Y014292D01*
X007968Y014053D02*
X019685Y014053D01*
X019602Y013815D02*
X007558Y013815D01*
X006566Y013815D02*
X005744Y013815D01*
X005765Y013576D02*
X019607Y013576D01*
X019711Y013338D02*
X005777Y013338D01*
X005777Y013099D02*
X016488Y013099D01*
X016488Y012861D02*
X005777Y012861D01*
X006457Y012622D02*
X016488Y012622D01*
X016499Y012384D02*
X008482Y012384D01*
X008559Y012145D02*
X016385Y012145D01*
X016348Y011907D02*
X014067Y011907D01*
X013159Y011907D02*
X008513Y011907D01*
X008511Y011668D02*
X011996Y011668D01*
X011991Y011659D02*
X011976Y011603D01*
X011976Y011257D01*
X012473Y011257D01*
X012473Y011794D01*
X012167Y011794D01*
X012111Y011779D01*
X012061Y011750D01*
X012020Y011709D01*
X011991Y011659D01*
X011976Y011430D02*
X008663Y011430D01*
X008699Y011191D02*
X012473Y011191D01*
X012473Y011430D02*
X012548Y011430D01*
X012548Y011668D02*
X012473Y011668D01*
X012473Y010953D02*
X012548Y010953D01*
X012548Y010714D02*
X012473Y010714D01*
X014255Y010714D02*
X014917Y010714D01*
X015503Y011430D02*
X016348Y011430D01*
X016348Y011668D02*
X015182Y011668D01*
X015741Y011191D02*
X016385Y011191D01*
X016272Y010237D02*
X016770Y010237D01*
X016272Y009999D02*
X019663Y009999D01*
X019811Y010237D02*
X017354Y010237D01*
X017565Y010476D02*
X019649Y010476D01*
X019602Y010714D02*
X017620Y010714D01*
X017570Y010953D02*
X019644Y010953D01*
X019800Y011191D02*
X018738Y011191D01*
X018776Y011430D02*
X019668Y011430D01*
X019602Y011668D02*
X018776Y011668D01*
X018776Y011907D02*
X019625Y011907D01*
X019754Y012145D02*
X018739Y012145D01*
X018624Y012384D02*
X019687Y012384D01*
X019602Y012622D02*
X018636Y012622D01*
X018636Y012809D02*
X018636Y013115D01*
X018621Y013171D01*
X018592Y013221D01*
X018551Y013262D01*
X018501Y013291D01*
X018445Y013306D01*
X018099Y013306D01*
X018099Y012809D01*
X018636Y012809D01*
X018636Y012861D02*
X019606Y012861D01*
X019708Y013099D02*
X018636Y013099D01*
X018099Y013099D02*
X018024Y013099D01*
X018024Y012861D02*
X018099Y012861D01*
X018024Y012809D02*
X018024Y012734D01*
X017488Y012734D01*
X017099Y012734D01*
X017099Y012809D01*
X018024Y012809D01*
X017099Y012861D02*
X017024Y012861D01*
X017024Y013099D02*
X017099Y013099D01*
X017036Y015961D02*
X017087Y015961D01*
X018036Y015961D02*
X018087Y015961D01*
X016087Y015961D02*
X016036Y015961D01*
X015087Y015961D02*
X015036Y015961D01*
X014087Y015961D02*
X014036Y015961D01*
X013087Y015961D02*
X013036Y015961D01*
X012087Y015961D02*
X012036Y015961D01*
X011087Y015961D02*
X011036Y015961D01*
X010087Y015961D02*
X008217Y015961D01*
X007998Y016200D02*
X009939Y016200D01*
X009902Y016438D02*
X007636Y016438D01*
X007633Y016915D02*
X007490Y016915D01*
X007424Y018585D02*
X007700Y018585D01*
X006700Y018585D02*
X006424Y018585D01*
X005787Y014530D02*
X005777Y014530D01*
X005777Y014292D02*
X005924Y014292D01*
X005777Y014053D02*
X006156Y014053D01*
X006641Y012384D02*
X007642Y012384D01*
X007565Y012145D02*
X007195Y012145D01*
X007062Y012145D02*
X007062Y012145D01*
X006928Y012145D02*
X006699Y012145D01*
X007062Y011907D02*
X007062Y011907D01*
X007062Y011668D02*
X007062Y011668D01*
X007062Y011666D02*
X007559Y011666D01*
X007062Y011666D01*
X007062Y011666D01*
X007559Y011668D02*
X007613Y011668D01*
X007610Y011907D02*
X007497Y011907D01*
X008062Y012145D02*
X008062Y012145D01*
X008062Y012384D02*
X008062Y012384D01*
X013788Y007614D02*
X013879Y007614D01*
X013788Y007375D02*
X014677Y007375D01*
X013708Y007137D02*
X019745Y007137D01*
X019690Y007375D02*
X016946Y007375D01*
X017038Y007614D02*
X019602Y007614D01*
X019602Y007852D02*
X017038Y007852D01*
X017038Y008091D02*
X019701Y008091D01*
X019719Y008329D02*
X017038Y008329D01*
X016944Y008568D02*
X019611Y008568D01*
X019602Y008806D02*
X016804Y008806D01*
X016638Y009045D02*
X019682Y009045D01*
X019765Y009283D02*
X016399Y009283D01*
X016291Y009522D02*
X019630Y009522D01*
X019602Y009760D02*
X016272Y009760D01*
X013592Y006898D02*
X019621Y006898D01*
X019602Y006660D02*
X013620Y006660D01*
X013542Y006421D02*
X019671Y006421D01*
X019791Y006183D02*
X013223Y006183D01*
X009491Y002367D02*
X009133Y002367D01*
X009222Y002128D02*
X009402Y002128D01*
X009402Y001890D02*
X009222Y001890D01*
X009222Y001651D02*
X009402Y001651D01*
X009402Y001413D02*
X009222Y001413D01*
X009174Y001174D02*
X009449Y001174D01*
X009613Y000936D02*
X009011Y000936D01*
X010511Y000936D02*
X010613Y000936D01*
X011511Y000936D02*
X011613Y000936D01*
X012511Y000936D02*
X012613Y000936D01*
X013511Y000936D02*
X013613Y000936D01*
X014511Y000936D02*
X014613Y000936D01*
X015511Y000936D02*
X015613Y000936D01*
X016511Y000936D02*
X016613Y000936D01*
X017511Y000936D02*
X017613Y000936D01*
X018511Y000936D02*
X018613Y000936D01*
X019511Y000936D02*
X019693Y000936D01*
X019831Y000697D02*
X004918Y000697D01*
X006562Y001174D02*
X006562Y001174D01*
X006562Y001413D02*
X006562Y001413D01*
X006562Y001651D02*
X006562Y001651D01*
X006562Y001890D02*
X006562Y001890D01*
X006562Y002128D02*
X006562Y002128D01*
X006562Y002367D02*
X006562Y002367D01*
X006562Y002605D02*
X006562Y002605D01*
X006562Y002844D02*
X006562Y002844D01*
X006562Y003082D02*
X006562Y003082D01*
X007020Y001174D02*
X007104Y001174D01*
X003089Y002605D02*
X002922Y002605D01*
X021660Y002605D02*
X021702Y002605D01*
D20*
X016363Y007970D02*
X016363Y008669D01*
X015812Y009220D01*
X015812Y010470D01*
X016062Y010720D01*
X017062Y010720D01*
X017062Y011669D01*
X018062Y011669D01*
X015812Y010470D02*
X015062Y011220D01*
X013812Y011220D01*
X013062Y009220D02*
X012011Y008169D01*
X012011Y007720D01*
X012011Y007169D01*
X009062Y004220D01*
X013062Y009220D02*
X015812Y009220D01*
D21*
X020937Y001470D03*
X003812Y001470D03*
X003812Y018470D03*
X020812Y018470D03*
M02*
