G75*
G70*
%OFA0B0*%
%FSLAX24Y24*%
%IPPOS*%
%LPD*%
%AMOC8*
5,1,8,0,0,1.08239X$1,22.5*
%
%ADD10R,0.0591X0.0118*%
%ADD11R,0.0118X0.0591*%
%ADD12C,0.0554*%
%ADD13OC8,0.0554*%
%ADD14R,0.0630X0.0710*%
%ADD15C,0.0600*%
%ADD16C,0.0080*%
%ADD17C,0.0396*%
%ADD18C,0.0200*%
%ADD19C,0.0240*%
%ADD20C,0.1969*%
D10*
X013389Y007637D03*
X013389Y007834D03*
X013389Y008031D03*
X013389Y008228D03*
X013389Y008425D03*
X013389Y008622D03*
X013389Y008818D03*
X013389Y009015D03*
X013389Y009212D03*
X013389Y009409D03*
X013389Y009606D03*
X013389Y009803D03*
X016735Y009803D03*
X016735Y009606D03*
X016735Y009409D03*
X016735Y009212D03*
X016735Y009015D03*
X016735Y008818D03*
X016735Y008622D03*
X016735Y008425D03*
X016735Y008228D03*
X016735Y008031D03*
X016735Y007834D03*
X016735Y007637D03*
D11*
X016145Y007047D03*
X015948Y007047D03*
X015751Y007047D03*
X015554Y007047D03*
X015357Y007047D03*
X015160Y007047D03*
X014963Y007047D03*
X014767Y007047D03*
X014570Y007047D03*
X014373Y007047D03*
X014176Y007047D03*
X013979Y007047D03*
X013979Y010393D03*
X014176Y010393D03*
X014373Y010393D03*
X014570Y010393D03*
X014767Y010393D03*
X014963Y010393D03*
X015160Y010393D03*
X015357Y010393D03*
X015554Y010393D03*
X015751Y010393D03*
X015948Y010393D03*
X016145Y010393D03*
D12*
X008062Y010316D03*
X008062Y009416D03*
X007062Y009866D03*
X007062Y010766D03*
X006062Y011216D03*
X006062Y012116D03*
X007062Y011666D03*
X008062Y012116D03*
X008062Y011216D03*
X006062Y010316D03*
X006062Y009416D03*
X007062Y008966D03*
X007062Y008066D03*
X006062Y008516D03*
D13*
X008062Y008516D03*
D14*
X010002Y008220D03*
X010002Y007220D03*
X010002Y006220D03*
X010002Y005220D03*
X010002Y004220D03*
X011122Y004220D03*
X011122Y005220D03*
X011122Y006220D03*
X011122Y007220D03*
X011122Y008220D03*
X011122Y009220D03*
X011122Y010220D03*
X011122Y011220D03*
X010002Y011220D03*
X010002Y010220D03*
X010002Y009220D03*
D15*
X008562Y003520D02*
X008562Y002920D01*
X008562Y002020D02*
X008562Y001420D01*
X007562Y001420D02*
X007562Y002020D01*
X007562Y002920D02*
X007562Y003520D01*
X006562Y003520D02*
X006562Y002920D01*
X006562Y002020D02*
X006562Y001420D01*
X010062Y001420D02*
X010062Y002020D01*
X011062Y002020D02*
X011062Y001420D01*
X012062Y001420D02*
X012062Y002020D01*
X013062Y002020D02*
X013062Y001420D01*
X014062Y001420D02*
X014062Y002020D01*
X015062Y002020D02*
X015062Y001420D01*
X016062Y001420D02*
X016062Y002020D01*
X017062Y002020D02*
X017062Y001420D01*
X018062Y001420D02*
X018062Y002020D01*
X019062Y002020D02*
X019062Y001420D01*
X020262Y003720D02*
X020862Y003720D01*
X020862Y004720D02*
X020262Y004720D01*
X020262Y005720D02*
X020862Y005720D01*
X020862Y006720D02*
X020262Y006720D01*
X020262Y007720D02*
X020862Y007720D01*
X020862Y008720D02*
X020262Y008720D01*
X020262Y009720D02*
X020862Y009720D01*
X020862Y010720D02*
X020262Y010720D01*
X020262Y011720D02*
X020862Y011720D01*
X020862Y012720D02*
X020262Y012720D01*
X020262Y013720D02*
X020862Y013720D01*
X020862Y014720D02*
X020262Y014720D01*
X020262Y015720D02*
X020862Y015720D01*
X019562Y016420D02*
X019562Y017020D01*
X018562Y017020D02*
X018562Y016420D01*
X017562Y016420D02*
X017562Y017020D01*
X016562Y017020D02*
X016562Y016420D01*
X015562Y016420D02*
X015562Y017020D01*
X014562Y017020D02*
X014562Y016420D01*
X013562Y016420D02*
X013562Y017020D01*
X012562Y017020D02*
X012562Y016420D01*
X011562Y016420D02*
X011562Y017020D01*
X010562Y017020D02*
X010562Y016420D01*
X008062Y017420D02*
X008062Y018020D01*
X007062Y018020D02*
X007062Y017420D01*
X006062Y017420D02*
X006062Y018020D01*
D16*
X008062Y017720D02*
X008062Y016720D01*
X013979Y010803D01*
X013979Y010393D01*
X014176Y010393D02*
X014176Y011231D01*
X010562Y014845D01*
X010562Y016720D01*
X011562Y016720D02*
X011562Y014095D01*
X014373Y011284D01*
X014373Y010393D01*
X014570Y010393D02*
X014570Y011337D01*
X012562Y013345D01*
X012562Y016720D01*
X013562Y016720D02*
X013562Y012595D01*
X014767Y011390D01*
X014767Y010393D01*
X014963Y010393D02*
X014963Y011443D01*
X014562Y011845D01*
X014562Y016720D01*
X015562Y016720D02*
X015562Y011720D01*
X015160Y011318D01*
X015160Y010393D01*
X015357Y010393D02*
X015357Y011265D01*
X016562Y012470D01*
X016562Y016720D01*
X017562Y016720D02*
X017562Y013220D01*
X015554Y011212D01*
X015554Y010393D01*
X015751Y010393D02*
X015751Y011159D01*
X018562Y013970D01*
X018562Y016720D01*
X019562Y016720D02*
X019562Y014720D01*
X015948Y011106D01*
X015948Y010393D01*
X016145Y010393D02*
X016145Y010387D01*
X016187Y010345D01*
X016145Y010393D02*
X016145Y009553D01*
X015812Y009220D01*
X015607Y009015D01*
X014062Y009015D01*
X013865Y008818D01*
X013389Y008818D01*
X013389Y008622D02*
X012660Y008622D01*
X012062Y009220D01*
X011122Y009220D01*
X011122Y008220D02*
X012062Y008220D01*
X012267Y008425D01*
X013389Y008425D01*
X013389Y008228D02*
X013381Y008220D01*
X012562Y008220D01*
X011562Y007220D01*
X011122Y007220D01*
X011122Y006220D02*
X011562Y006220D01*
X012562Y007220D01*
X012562Y007720D01*
X012873Y008031D01*
X013389Y008031D01*
X013389Y007834D02*
X014176Y007834D01*
X014312Y007970D01*
X014373Y007047D02*
X014373Y006156D01*
X011312Y003095D01*
X010812Y003095D01*
X010062Y002345D01*
X010062Y001720D01*
X011062Y001720D02*
X011062Y002595D01*
X014570Y006103D01*
X014570Y007047D01*
X014767Y007047D02*
X014767Y006050D01*
X012062Y003345D01*
X012062Y001720D01*
X013062Y001720D02*
X013062Y004095D01*
X014963Y005997D01*
X014963Y007047D01*
X015160Y007047D02*
X015160Y005943D01*
X014062Y004845D01*
X014062Y001720D01*
X015062Y001720D02*
X015062Y005595D01*
X015357Y005890D01*
X015357Y007047D01*
X015554Y007047D02*
X015554Y005853D01*
X016062Y005345D01*
X016062Y001720D01*
X017062Y001720D02*
X017062Y004595D01*
X015751Y005906D01*
X015751Y007047D01*
X015948Y007047D02*
X015948Y005959D01*
X018062Y003845D01*
X018062Y001720D01*
X019062Y001720D02*
X019062Y003095D01*
X016145Y006012D01*
X016145Y007047D01*
X016735Y007637D02*
X017145Y007637D01*
X018812Y005970D01*
X018812Y004970D01*
X020062Y003720D01*
X020562Y003720D01*
X020562Y004720D02*
X020062Y004720D01*
X019062Y005720D01*
X019062Y005970D01*
X017198Y007834D01*
X016735Y007834D01*
X016735Y008031D02*
X017251Y008031D01*
X019562Y005720D01*
X020562Y005720D01*
X020562Y006720D02*
X018812Y006720D01*
X017304Y008228D01*
X016735Y008228D01*
X016735Y008425D02*
X017357Y008425D01*
X018062Y007720D01*
X020562Y007720D01*
X020562Y008720D02*
X017562Y008720D01*
X017463Y008622D01*
X016735Y008622D01*
X016735Y008818D02*
X017410Y008818D01*
X018312Y009720D01*
X020562Y009720D01*
X020562Y010720D02*
X019062Y010720D01*
X017357Y009015D01*
X016735Y009015D01*
X016735Y009212D02*
X017304Y009212D01*
X019812Y011720D01*
X020562Y011720D01*
X020562Y012720D02*
X019562Y012720D01*
X019062Y012220D01*
X019062Y011220D01*
X017251Y009409D01*
X016735Y009409D01*
X016735Y009606D02*
X017198Y009606D01*
X018812Y011220D01*
X018812Y012470D01*
X020062Y013720D01*
X020562Y013720D01*
X020562Y014720D02*
X019937Y014720D01*
X018562Y013345D01*
X018562Y011220D01*
X017145Y009803D01*
X016735Y009803D01*
X016735Y010393D02*
X017062Y010720D01*
X014062Y009015D02*
X013389Y009015D01*
X013389Y009212D02*
X012570Y009212D01*
X011562Y010220D01*
X011122Y010220D01*
X012062Y010095D02*
X012062Y010720D01*
X011562Y011220D01*
X011122Y011220D01*
X010002Y011220D02*
X010002Y010220D01*
X009906Y010316D01*
X008062Y010316D01*
X008062Y009416D02*
X009806Y009416D01*
X010002Y009220D01*
X010002Y008220D01*
X010002Y007220D02*
X009358Y007220D01*
X008062Y008516D01*
X010002Y007220D02*
X010002Y006220D01*
X011122Y005220D02*
X012562Y005220D01*
X013979Y006637D01*
X013979Y007047D01*
X014176Y007047D02*
X014176Y006584D01*
X011812Y004220D01*
X011122Y004220D01*
X010002Y004220D02*
X009062Y004220D01*
X013062Y006720D02*
X013389Y007047D01*
X013389Y007637D01*
X013389Y009409D02*
X012748Y009409D01*
X012062Y010095D01*
X012812Y009720D02*
X012926Y009606D01*
X013389Y009606D01*
X013389Y009803D02*
X012895Y009803D01*
X012812Y009720D01*
D17*
X012562Y010470D03*
X014312Y007970D03*
X013062Y006720D03*
X015812Y009220D03*
X017062Y010720D03*
X009062Y004220D03*
D18*
X009562Y005220D02*
X009062Y005720D01*
X009062Y006720D01*
X007716Y008066D01*
X007062Y008066D01*
X007062Y009845D02*
X007562Y010345D01*
X007562Y011220D01*
X007116Y011666D01*
X007062Y011666D01*
X012562Y010470D02*
X012562Y009970D01*
X012812Y009720D01*
X016187Y010345D02*
X016235Y010393D01*
X016735Y010393D01*
X010002Y005220D02*
X009562Y005220D01*
D19*
X002922Y002481D02*
X002922Y017459D01*
X002986Y017394D01*
X003293Y017217D01*
X003635Y017126D01*
X003989Y017126D01*
X004331Y017217D01*
X004637Y017394D01*
X004888Y017645D01*
X005065Y017951D01*
X005156Y018293D01*
X005156Y018647D01*
X005065Y018989D01*
X004888Y019295D01*
X004823Y019360D01*
X019801Y019360D01*
X019736Y019295D01*
X019559Y018989D01*
X019468Y018647D01*
X019468Y018293D01*
X019559Y017951D01*
X019723Y017668D01*
X019693Y017680D01*
X019431Y017680D01*
X019188Y017580D01*
X019062Y017453D01*
X018936Y017580D01*
X018693Y017680D01*
X018431Y017680D01*
X018188Y017580D01*
X018062Y017453D01*
X017936Y017580D01*
X017693Y017680D01*
X017431Y017680D01*
X017188Y017580D01*
X017062Y017453D01*
X016936Y017580D01*
X016693Y017680D01*
X016431Y017680D01*
X016188Y017580D01*
X016062Y017453D01*
X015936Y017580D01*
X015693Y017680D01*
X015431Y017680D01*
X015188Y017580D01*
X015062Y017453D01*
X014936Y017580D01*
X014693Y017680D01*
X014431Y017680D01*
X014188Y017580D01*
X014062Y017453D01*
X013936Y017580D01*
X013693Y017680D01*
X013431Y017680D01*
X013188Y017580D01*
X013062Y017453D01*
X012936Y017580D01*
X012693Y017680D01*
X012431Y017680D01*
X012188Y017580D01*
X012062Y017453D01*
X011936Y017580D01*
X011693Y017680D01*
X011431Y017680D01*
X011188Y017580D01*
X011062Y017453D01*
X010936Y017580D01*
X010693Y017680D01*
X010431Y017680D01*
X010188Y017580D01*
X010002Y017394D01*
X009902Y017151D01*
X009902Y016289D01*
X010002Y016046D01*
X010162Y015887D01*
X010162Y015186D01*
X008462Y016886D01*
X008462Y016887D01*
X008621Y017046D01*
X008722Y017289D01*
X008722Y018151D01*
X008621Y018394D01*
X008436Y018580D01*
X008193Y018680D01*
X007931Y018680D01*
X007688Y018580D01*
X007562Y018453D01*
X007436Y018580D01*
X007193Y018680D01*
X006931Y018680D01*
X006688Y018580D01*
X006562Y018453D01*
X006436Y018580D01*
X006193Y018680D01*
X005931Y018680D01*
X005688Y018580D01*
X005502Y018394D01*
X005402Y018151D01*
X005402Y017289D01*
X005502Y017046D01*
X005688Y016860D01*
X005931Y016760D01*
X006193Y016760D01*
X006436Y016860D01*
X006562Y016987D01*
X006688Y016860D01*
X006931Y016760D01*
X007193Y016760D01*
X007436Y016860D01*
X007562Y016987D01*
X007662Y016887D01*
X007662Y016640D01*
X007723Y016493D01*
X007835Y016381D01*
X013560Y010656D01*
X013560Y010222D01*
X013063Y010222D01*
X013120Y010359D01*
X013120Y010581D01*
X013035Y010786D01*
X012878Y010943D01*
X012673Y011028D01*
X012451Y011028D01*
X012358Y010990D01*
X011901Y011447D01*
X011797Y011551D01*
X011797Y011647D01*
X011742Y011779D01*
X011641Y011880D01*
X011508Y011935D01*
X010735Y011935D01*
X010603Y011880D01*
X010562Y011839D01*
X010521Y011880D01*
X010389Y011935D01*
X009615Y011935D01*
X009483Y011880D01*
X009382Y011779D01*
X009327Y011647D01*
X009327Y010793D01*
X009358Y010720D01*
X009356Y010716D01*
X008563Y010716D01*
X008513Y010766D01*
X008602Y010855D01*
X008699Y011089D01*
X008699Y011342D01*
X008602Y011577D01*
X008513Y011666D01*
X008602Y011755D01*
X008699Y011989D01*
X008699Y012242D01*
X008602Y012477D01*
X008423Y012656D01*
X008189Y012753D01*
X007935Y012753D01*
X007701Y012656D01*
X007522Y012477D01*
X007425Y012242D01*
X007425Y012204D01*
X007423Y012206D01*
X007189Y012303D01*
X006935Y012303D01*
X006701Y012206D01*
X006699Y012204D01*
X006699Y012242D01*
X006602Y012477D01*
X006423Y012656D01*
X006189Y012753D01*
X005935Y012753D01*
X005701Y012656D01*
X005522Y012477D01*
X005425Y012242D01*
X005425Y011989D01*
X005522Y011755D01*
X005611Y011666D01*
X005522Y011577D01*
X005425Y011342D01*
X005425Y011089D01*
X005522Y010855D01*
X005611Y010766D01*
X005522Y010677D01*
X005425Y010442D01*
X005425Y010189D01*
X005522Y009955D01*
X005611Y009866D01*
X005522Y009777D01*
X005425Y009542D01*
X005425Y009289D01*
X005522Y009055D01*
X005611Y008966D01*
X005522Y008877D01*
X005425Y008642D01*
X005425Y008389D01*
X005522Y008155D01*
X005701Y007976D01*
X005935Y007879D01*
X006189Y007879D01*
X006423Y007976D01*
X006425Y007977D01*
X006425Y007939D01*
X006522Y007705D01*
X006701Y007526D01*
X006935Y007429D01*
X007189Y007429D01*
X007423Y007526D01*
X007503Y007606D01*
X007526Y007606D01*
X008602Y006529D01*
X008602Y005628D01*
X008672Y005459D01*
X008801Y005330D01*
X009301Y004830D01*
X009327Y004819D01*
X009327Y004793D01*
X009382Y004661D01*
X009467Y004576D01*
X009467Y004257D01*
X009965Y004257D01*
X009965Y004183D01*
X010040Y004183D01*
X010040Y003645D01*
X010346Y003645D01*
X010402Y003660D01*
X010452Y003689D01*
X010479Y003716D01*
X010502Y003661D01*
X010603Y003560D01*
X010735Y003505D01*
X011156Y003505D01*
X011146Y003495D01*
X010732Y003495D01*
X010585Y003434D01*
X010473Y003322D01*
X009761Y002610D01*
X009688Y002580D01*
X009502Y002394D01*
X009402Y002151D01*
X009402Y001289D01*
X009502Y001046D01*
X009688Y000860D01*
X009931Y000760D01*
X010193Y000760D01*
X010436Y000860D01*
X010562Y000987D01*
X010688Y000860D01*
X010931Y000760D01*
X011193Y000760D01*
X011436Y000860D01*
X011562Y000987D01*
X011688Y000860D01*
X011931Y000760D01*
X012193Y000760D01*
X012436Y000860D01*
X012562Y000987D01*
X012688Y000860D01*
X012931Y000760D01*
X013193Y000760D01*
X013436Y000860D01*
X013562Y000987D01*
X013688Y000860D01*
X013931Y000760D01*
X014193Y000760D01*
X014436Y000860D01*
X014562Y000987D01*
X014688Y000860D01*
X014931Y000760D01*
X015193Y000760D01*
X015436Y000860D01*
X015562Y000987D01*
X015688Y000860D01*
X015931Y000760D01*
X016193Y000760D01*
X016436Y000860D01*
X016562Y000987D01*
X016688Y000860D01*
X016931Y000760D01*
X017193Y000760D01*
X017436Y000860D01*
X017562Y000987D01*
X017688Y000860D01*
X017931Y000760D01*
X018193Y000760D01*
X018436Y000860D01*
X018562Y000987D01*
X018688Y000860D01*
X018931Y000760D01*
X019193Y000760D01*
X019436Y000860D01*
X019621Y001046D01*
X019644Y001101D01*
X019684Y000951D01*
X019861Y000645D01*
X019926Y000580D01*
X004823Y000580D01*
X004888Y000645D01*
X005065Y000951D01*
X005156Y001293D01*
X005156Y001647D01*
X005065Y001989D01*
X004888Y002295D01*
X004637Y002546D01*
X004331Y002723D01*
X003989Y002814D01*
X003635Y002814D01*
X003293Y002723D01*
X002986Y002546D01*
X002922Y002481D01*
X002922Y002605D02*
X003089Y002605D01*
X002922Y002844D02*
X005902Y002844D01*
X005902Y002789D02*
X006002Y002546D01*
X006079Y002470D01*
X006002Y002394D01*
X005902Y002151D01*
X005902Y001289D01*
X006002Y001046D01*
X006188Y000860D01*
X006431Y000760D01*
X006693Y000760D01*
X006936Y000860D01*
X007062Y000987D01*
X007188Y000860D01*
X007431Y000760D01*
X007693Y000760D01*
X007936Y000860D01*
X008121Y001046D01*
X008147Y001107D01*
X008165Y001081D01*
X008223Y001023D01*
X008289Y000975D01*
X008362Y000938D01*
X008440Y000913D01*
X008521Y000900D01*
X008562Y000900D01*
X008603Y000900D01*
X008684Y000913D01*
X008761Y000938D01*
X008834Y000975D01*
X008901Y001023D01*
X008959Y001081D01*
X009007Y001147D01*
X009044Y001220D01*
X009069Y001298D01*
X009082Y001379D01*
X009082Y001720D01*
X009082Y002061D01*
X009069Y002142D01*
X009044Y002220D01*
X009007Y002293D01*
X008959Y002359D01*
X008901Y002417D01*
X008834Y002465D01*
X008824Y002470D01*
X008834Y002475D01*
X008901Y002523D01*
X008959Y002581D01*
X009007Y002647D01*
X009044Y002720D01*
X009069Y002798D01*
X009082Y002879D01*
X009082Y003220D01*
X009082Y003561D01*
X009069Y003642D01*
X009044Y003720D01*
X009007Y003793D01*
X008959Y003859D01*
X008901Y003917D01*
X008834Y003965D01*
X008761Y004002D01*
X008684Y004027D01*
X008603Y004040D01*
X008562Y004040D01*
X008562Y003220D01*
X009082Y003220D01*
X008562Y003220D01*
X008562Y003220D01*
X008562Y003220D01*
X008562Y002540D01*
X008562Y001720D01*
X009082Y001720D01*
X008562Y001720D01*
X008562Y001720D01*
X008562Y000900D01*
X008562Y001720D01*
X008562Y001720D01*
X008562Y001720D01*
X008562Y003220D01*
X008562Y003220D01*
X008562Y004040D01*
X008521Y004040D01*
X008440Y004027D01*
X008362Y004002D01*
X008289Y003965D01*
X008223Y003917D01*
X008165Y003859D01*
X008147Y003833D01*
X008121Y003894D01*
X007936Y004080D01*
X007693Y004180D01*
X007431Y004180D01*
X007188Y004080D01*
X007062Y003953D01*
X006936Y004080D01*
X006693Y004180D01*
X006431Y004180D01*
X006188Y004080D01*
X006002Y003894D01*
X005902Y003651D01*
X005902Y002789D01*
X005978Y002605D02*
X004535Y002605D01*
X004816Y002367D02*
X005991Y002367D01*
X005902Y002128D02*
X004984Y002128D01*
X005091Y001890D02*
X005902Y001890D01*
X005902Y001651D02*
X005155Y001651D01*
X005156Y001413D02*
X005902Y001413D01*
X005949Y001174D02*
X005124Y001174D01*
X005056Y000936D02*
X006113Y000936D01*
X007011Y000936D02*
X007113Y000936D01*
X008011Y000936D02*
X008370Y000936D01*
X008562Y000936D02*
X008562Y000936D01*
X008754Y000936D02*
X009613Y000936D01*
X009449Y001174D02*
X009020Y001174D01*
X009082Y001413D02*
X009402Y001413D01*
X009402Y001651D02*
X009082Y001651D01*
X009082Y001890D02*
X009402Y001890D01*
X009402Y002128D02*
X009071Y002128D01*
X008951Y002367D02*
X009491Y002367D01*
X009750Y002605D02*
X008976Y002605D01*
X009076Y002844D02*
X009995Y002844D01*
X010233Y003082D02*
X009082Y003082D01*
X009082Y003321D02*
X010472Y003321D01*
X010605Y003559D02*
X009082Y003559D01*
X009003Y003798D02*
X009477Y003798D01*
X009482Y003780D02*
X009467Y003836D01*
X009467Y004183D01*
X009965Y004183D01*
X009965Y003645D01*
X009658Y003645D01*
X009602Y003660D01*
X009552Y003689D01*
X009511Y003730D01*
X009482Y003780D01*
X009467Y004036D02*
X008628Y004036D01*
X008562Y004036D02*
X008562Y004036D01*
X008496Y004036D02*
X007979Y004036D01*
X007600Y004493D02*
X007868Y004760D01*
X008012Y005110D01*
X008012Y005488D01*
X007868Y005837D01*
X007600Y006105D01*
X007251Y006249D01*
X006873Y006249D01*
X006523Y006105D01*
X006256Y005837D01*
X006111Y005488D01*
X006111Y005110D01*
X006256Y004760D01*
X006523Y004493D01*
X006873Y004348D01*
X007251Y004348D01*
X007600Y004493D01*
X007620Y004513D02*
X009467Y004513D01*
X009467Y004275D02*
X002922Y004275D01*
X002922Y004513D02*
X006503Y004513D01*
X006265Y004752D02*
X002922Y004752D01*
X002922Y004990D02*
X006161Y004990D01*
X006111Y005229D02*
X002922Y005229D01*
X002922Y005467D02*
X006111Y005467D01*
X006202Y005706D02*
X002922Y005706D01*
X002922Y005944D02*
X006363Y005944D01*
X006712Y006183D02*
X002922Y006183D01*
X002922Y006421D02*
X008602Y006421D01*
X008602Y006183D02*
X007412Y006183D01*
X007761Y005944D02*
X008602Y005944D01*
X008602Y005706D02*
X007922Y005706D01*
X008012Y005467D02*
X008669Y005467D01*
X008903Y005229D02*
X008012Y005229D01*
X007963Y004990D02*
X009141Y004990D01*
X009344Y004752D02*
X007859Y004752D01*
X007145Y004036D02*
X006979Y004036D01*
X006145Y004036D02*
X002922Y004036D01*
X002922Y003798D02*
X005962Y003798D01*
X005902Y003559D02*
X002922Y003559D01*
X002922Y003321D02*
X005902Y003321D01*
X005902Y003082D02*
X002922Y003082D01*
X004918Y000697D02*
X019831Y000697D01*
X019693Y000936D02*
X019511Y000936D01*
X018613Y000936D02*
X018511Y000936D01*
X017613Y000936D02*
X017511Y000936D01*
X016613Y000936D02*
X016511Y000936D01*
X015613Y000936D02*
X015511Y000936D01*
X014613Y000936D02*
X014511Y000936D01*
X013613Y000936D02*
X013511Y000936D01*
X012613Y000936D02*
X012511Y000936D01*
X011613Y000936D02*
X011511Y000936D01*
X010613Y000936D02*
X010511Y000936D01*
X008562Y001174D02*
X008562Y001174D01*
X008562Y001413D02*
X008562Y001413D01*
X008562Y001651D02*
X008562Y001651D01*
X008562Y001890D02*
X008562Y001890D01*
X008562Y002128D02*
X008562Y002128D01*
X008562Y002367D02*
X008562Y002367D01*
X008562Y002605D02*
X008562Y002605D01*
X008562Y002844D02*
X008562Y002844D01*
X008562Y003082D02*
X008562Y003082D01*
X008562Y003321D02*
X008562Y003321D01*
X008562Y003559D02*
X008562Y003559D01*
X008562Y003798D02*
X008562Y003798D01*
X009965Y003798D02*
X010040Y003798D01*
X010040Y004036D02*
X009965Y004036D01*
X008472Y006660D02*
X002922Y006660D01*
X002922Y006898D02*
X008233Y006898D01*
X007995Y007137D02*
X002922Y007137D01*
X002922Y007375D02*
X007756Y007375D01*
X006613Y007614D02*
X002922Y007614D01*
X002922Y007852D02*
X006461Y007852D01*
X005586Y008091D02*
X002922Y008091D01*
X002922Y008329D02*
X005450Y008329D01*
X005425Y008568D02*
X002922Y008568D01*
X002922Y008806D02*
X005492Y008806D01*
X005532Y009045D02*
X002922Y009045D01*
X002922Y009283D02*
X005427Y009283D01*
X005425Y009522D02*
X002922Y009522D01*
X002922Y009760D02*
X005515Y009760D01*
X005504Y009999D02*
X002922Y009999D01*
X002922Y010237D02*
X005425Y010237D01*
X005438Y010476D02*
X002922Y010476D01*
X002922Y010714D02*
X005559Y010714D01*
X005481Y010953D02*
X002922Y010953D01*
X002922Y011191D02*
X005425Y011191D01*
X005461Y011430D02*
X002922Y011430D01*
X002922Y011668D02*
X005608Y011668D01*
X005459Y011907D02*
X002922Y011907D01*
X002922Y012145D02*
X005425Y012145D01*
X005483Y012384D02*
X002922Y012384D01*
X002922Y012622D02*
X005667Y012622D01*
X006457Y012622D02*
X007667Y012622D01*
X007483Y012384D02*
X006641Y012384D01*
X008457Y012622D02*
X011594Y012622D01*
X011833Y012384D02*
X008641Y012384D01*
X008699Y012145D02*
X012071Y012145D01*
X012310Y011907D02*
X011577Y011907D01*
X011788Y011668D02*
X012548Y011668D01*
X012787Y011430D02*
X011918Y011430D01*
X012157Y011191D02*
X013025Y011191D01*
X012855Y010953D02*
X013264Y010953D01*
X013065Y010714D02*
X013502Y010714D01*
X013560Y010476D02*
X013120Y010476D01*
X013069Y010237D02*
X013560Y010237D01*
X014044Y009738D02*
X016078Y009738D01*
X016080Y009739D01*
X016080Y007702D01*
X016078Y007702D01*
X014805Y007702D01*
X014870Y007859D01*
X014870Y008081D01*
X014785Y008286D01*
X014628Y008443D01*
X014423Y008528D01*
X014201Y008528D01*
X014044Y008463D01*
X014044Y008752D01*
X013989Y008885D01*
X013957Y008917D01*
X013989Y008949D01*
X014044Y009081D01*
X014044Y009738D01*
X014044Y009522D02*
X016080Y009522D01*
X016080Y009283D02*
X014044Y009283D01*
X014029Y009045D02*
X016080Y009045D01*
X016080Y008806D02*
X014022Y008806D01*
X014044Y008568D02*
X016080Y008568D01*
X016080Y008329D02*
X014742Y008329D01*
X014866Y008091D02*
X016080Y008091D01*
X016080Y007852D02*
X014867Y007852D01*
X016424Y010222D02*
X016424Y010393D01*
X016367Y010393D01*
X016367Y010393D01*
X016424Y010393D01*
X016424Y010717D01*
X016409Y010773D01*
X016380Y010824D01*
X016348Y010856D01*
X016348Y010940D01*
X018162Y012754D01*
X018162Y011386D01*
X016998Y010222D01*
X016424Y010222D01*
X016424Y010237D02*
X017013Y010237D01*
X017252Y010476D02*
X016424Y010476D01*
X016424Y010714D02*
X017490Y010714D01*
X017729Y010953D02*
X016360Y010953D01*
X016599Y011191D02*
X017967Y011191D01*
X018162Y011430D02*
X016837Y011430D01*
X017076Y011668D02*
X018162Y011668D01*
X018162Y011907D02*
X017314Y011907D01*
X017553Y012145D02*
X018162Y012145D01*
X018162Y012384D02*
X017791Y012384D01*
X018030Y012622D02*
X018162Y012622D01*
X018311Y017631D02*
X017813Y017631D01*
X017311Y017631D02*
X016813Y017631D01*
X016311Y017631D02*
X015813Y017631D01*
X015311Y017631D02*
X014813Y017631D01*
X014311Y017631D02*
X013813Y017631D01*
X013311Y017631D02*
X012813Y017631D01*
X012311Y017631D02*
X011813Y017631D01*
X011311Y017631D02*
X010813Y017631D01*
X010311Y017631D02*
X008722Y017631D01*
X008722Y017869D02*
X019607Y017869D01*
X019517Y018108D02*
X008722Y018108D01*
X008641Y018346D02*
X019468Y018346D01*
X019468Y018585D02*
X008424Y018585D01*
X007700Y018585D02*
X007424Y018585D01*
X006700Y018585D02*
X006424Y018585D01*
X005700Y018585D02*
X005156Y018585D01*
X005156Y018346D02*
X005483Y018346D01*
X005402Y018108D02*
X005106Y018108D01*
X005017Y017869D02*
X005402Y017869D01*
X005402Y017631D02*
X004873Y017631D01*
X004633Y017392D02*
X005402Y017392D01*
X005458Y017154D02*
X004093Y017154D01*
X003531Y017154D02*
X002922Y017154D01*
X002922Y017392D02*
X002991Y017392D01*
X002922Y016915D02*
X005633Y016915D01*
X006490Y016915D02*
X006633Y016915D01*
X007490Y016915D02*
X007633Y016915D01*
X007662Y016677D02*
X002922Y016677D01*
X002922Y016438D02*
X007778Y016438D01*
X008017Y016200D02*
X002922Y016200D01*
X002922Y015961D02*
X006557Y015961D01*
X006523Y015947D02*
X006256Y015680D01*
X006111Y015330D01*
X006111Y014952D01*
X006256Y014603D01*
X006523Y014335D01*
X006873Y014191D01*
X007251Y014191D01*
X007600Y014335D01*
X007868Y014603D01*
X008012Y014952D01*
X008012Y015330D01*
X007868Y015680D01*
X007600Y015947D01*
X007251Y016092D01*
X006873Y016092D01*
X006523Y015947D01*
X006299Y015723D02*
X002922Y015723D01*
X002922Y015484D02*
X006175Y015484D01*
X006111Y015246D02*
X002922Y015246D01*
X002922Y015007D02*
X006111Y015007D01*
X006187Y014769D02*
X002922Y014769D01*
X002922Y014530D02*
X006329Y014530D01*
X006629Y014292D02*
X002922Y014292D01*
X002922Y014053D02*
X010163Y014053D01*
X009925Y014292D02*
X007494Y014292D01*
X007795Y014530D02*
X009686Y014530D01*
X009448Y014769D02*
X007936Y014769D01*
X008012Y015007D02*
X009209Y015007D01*
X008971Y015246D02*
X008012Y015246D01*
X007949Y015484D02*
X008732Y015484D01*
X008494Y015723D02*
X007825Y015723D01*
X007567Y015961D02*
X008255Y015961D01*
X008910Y016438D02*
X009902Y016438D01*
X009902Y016677D02*
X008671Y016677D01*
X008490Y016915D02*
X009902Y016915D01*
X009903Y017154D02*
X008666Y017154D01*
X008722Y017392D02*
X010002Y017392D01*
X009939Y016200D02*
X009148Y016200D01*
X009387Y015961D02*
X010087Y015961D01*
X010162Y015723D02*
X009625Y015723D01*
X009864Y015484D02*
X010162Y015484D01*
X010162Y015246D02*
X010102Y015246D01*
X010402Y013815D02*
X002922Y013815D01*
X002922Y013576D02*
X010640Y013576D01*
X010879Y013338D02*
X002922Y013338D01*
X002922Y013099D02*
X011117Y013099D01*
X011356Y012861D02*
X002922Y012861D01*
X008515Y011668D02*
X009336Y011668D01*
X009327Y011430D02*
X008663Y011430D01*
X008699Y011191D02*
X009327Y011191D01*
X009327Y010953D02*
X008643Y010953D01*
X008665Y011907D02*
X009547Y011907D01*
X010457Y011907D02*
X010667Y011907D01*
X005109Y018823D02*
X019515Y018823D01*
X019601Y019062D02*
X005023Y019062D01*
X004883Y019300D02*
X019741Y019300D01*
X019311Y017631D02*
X018813Y017631D01*
D20*
X020812Y018470D03*
X003812Y018470D03*
X003812Y001470D03*
X020937Y001470D03*
M02*
