%
M48
M72
T01C0.0236
T02C0.0354
T03C0.0400
T04C0.1181
T05C0.1220
%
T01
X9062Y4220
X13062Y6720
X14312Y7970
X15812Y9220
X17062Y10720
X12562Y10470
T02
X8062Y10316
X8062Y9416
X8062Y8516
X7062Y8966
X7062Y8066
X6062Y8516
X6062Y9416
X6062Y10316
X7062Y10766
X7062Y9866
X8062Y11216
X8062Y12116
X7062Y11666
X6062Y12116
X6062Y11216
T03
X10562Y16720
X11562Y16720
X12562Y16720
X13562Y16720
X14562Y16720
X15562Y16720
X16562Y16720
X17562Y16720
X18562Y16720
X19562Y16720
X20562Y15720
X20562Y14720
X20562Y13720
X20562Y12720
X20562Y11720
X20562Y10720
X20562Y9720
X20562Y8720
X20562Y7720
X20562Y6720
X20562Y5720
X20562Y4720
X20562Y3720
X19062Y1720
X18062Y1720
X17062Y1720
X16062Y1720
X15062Y1720
X14062Y1720
X13062Y1720
X12062Y1720
X11062Y1720
X10062Y1720
X8562Y1720
X7562Y1720
X6562Y1720
X6562Y3220
X7562Y3220
X8562Y3220
X8062Y17720
X7062Y17720
X6062Y17720
T04
X7062Y15141
X7062Y5299
T05
X3812Y1470
X20937Y1470
X20812Y18470
X3812Y18470
M30
