G75*
G70*
%OFA0B0*%
%FSLAX24Y24*%
%IPPOS*%
%LPD*%
%AMOC8*
5,1,8,0,0,1.08239X$1,22.5*
%
%ADD10C,0.0000*%
%ADD11C,0.0040*%
%ADD12R,0.0016X0.0016*%
%ADD13R,0.0047X0.0016*%
%ADD14R,0.0063X0.0016*%
%ADD15R,0.0031X0.0016*%
%ADD16R,0.0126X0.0016*%
%ADD17R,0.0079X0.0016*%
%ADD18R,0.0189X0.0016*%
%ADD19R,0.0252X0.0016*%
%ADD20R,0.0173X0.0016*%
%ADD21R,0.0283X0.0016*%
%ADD22R,0.0110X0.0016*%
%ADD23R,0.0094X0.0016*%
%ADD24R,0.0205X0.0016*%
%ADD25R,0.0299X0.0016*%
%ADD26R,0.0220X0.0016*%
%ADD27R,0.0331X0.0016*%
%ADD28R,0.0157X0.0016*%
%ADD29R,0.0362X0.0016*%
%ADD30R,0.0236X0.0016*%
%ADD31R,0.0142X0.0016*%
%ADD32R,0.0268X0.0016*%
%ADD33R,0.0315X0.0016*%
%ADD34R,0.0567X0.0016*%
%ADD35R,0.0535X0.0016*%
%ADD36R,0.0520X0.0016*%
%ADD37R,0.0488X0.0016*%
%ADD38R,0.0425X0.0016*%
%ADD39C,0.0060*%
%ADD40R,0.0394X0.0118*%
%ADD41R,0.0118X0.0394*%
%ADD42C,0.0050*%
%ADD43R,0.2402X0.0157*%
%ADD44R,0.1417X0.0157*%
%ADD45R,0.1220X0.0157*%
%ADD46R,0.0290X0.0690*%
%ADD47R,0.0200X0.0200*%
D10*
X002562Y001338D02*
X002562Y018602D01*
X002564Y018667D01*
X002570Y018732D01*
X002579Y018796D01*
X002592Y018860D01*
X002609Y018923D01*
X002629Y018984D01*
X002653Y019045D01*
X002681Y019104D01*
X002712Y019161D01*
X002746Y019216D01*
X002783Y019270D01*
X002824Y019321D01*
X002867Y019369D01*
X002913Y019415D01*
X002961Y019458D01*
X003012Y019499D01*
X003066Y019536D01*
X003121Y019570D01*
X003178Y019601D01*
X003237Y019629D01*
X003298Y019653D01*
X003359Y019673D01*
X003422Y019690D01*
X003486Y019703D01*
X003550Y019712D01*
X003615Y019718D01*
X003680Y019720D01*
X020944Y019720D01*
X021009Y019718D01*
X021074Y019712D01*
X021138Y019703D01*
X021202Y019690D01*
X021265Y019673D01*
X021326Y019653D01*
X021387Y019629D01*
X021446Y019601D01*
X021503Y019570D01*
X021558Y019536D01*
X021612Y019499D01*
X021663Y019458D01*
X021711Y019415D01*
X021757Y019369D01*
X021800Y019321D01*
X021841Y019270D01*
X021878Y019216D01*
X021912Y019161D01*
X021943Y019104D01*
X021971Y019045D01*
X021995Y018984D01*
X022015Y018923D01*
X022032Y018860D01*
X022045Y018796D01*
X022054Y018732D01*
X022060Y018667D01*
X022062Y018602D01*
X022062Y001220D01*
X022060Y001160D01*
X022055Y001099D01*
X022046Y001040D01*
X022033Y000981D01*
X022017Y000922D01*
X021997Y000865D01*
X021974Y000810D01*
X021947Y000755D01*
X021918Y000703D01*
X021885Y000652D01*
X021849Y000603D01*
X021811Y000557D01*
X021769Y000513D01*
X021725Y000471D01*
X021679Y000433D01*
X021630Y000397D01*
X021579Y000364D01*
X021527Y000335D01*
X021472Y000308D01*
X021417Y000285D01*
X021360Y000265D01*
X021301Y000249D01*
X021242Y000236D01*
X021183Y000227D01*
X021122Y000222D01*
X021062Y000220D01*
X003680Y000220D01*
X003615Y000222D01*
X003550Y000228D01*
X003486Y000237D01*
X003422Y000250D01*
X003359Y000267D01*
X003298Y000287D01*
X003237Y000311D01*
X003178Y000339D01*
X003121Y000370D01*
X003066Y000404D01*
X003012Y000441D01*
X002961Y000482D01*
X002913Y000525D01*
X002867Y000571D01*
X002824Y000619D01*
X002783Y000670D01*
X002746Y000724D01*
X002712Y000779D01*
X002681Y000836D01*
X002653Y000895D01*
X002629Y000956D01*
X002609Y001017D01*
X002592Y001080D01*
X002579Y001144D01*
X002570Y001208D01*
X002564Y001273D01*
X002562Y001338D01*
X006471Y005299D02*
X006473Y005347D01*
X006479Y005395D01*
X006489Y005442D01*
X006502Y005488D01*
X006520Y005533D01*
X006540Y005577D01*
X006565Y005619D01*
X006593Y005658D01*
X006623Y005695D01*
X006657Y005729D01*
X006694Y005761D01*
X006732Y005790D01*
X006773Y005815D01*
X006816Y005837D01*
X006861Y005855D01*
X006907Y005869D01*
X006954Y005880D01*
X007002Y005887D01*
X007050Y005890D01*
X007098Y005889D01*
X007146Y005884D01*
X007194Y005875D01*
X007240Y005863D01*
X007285Y005846D01*
X007329Y005826D01*
X007371Y005803D01*
X007411Y005776D01*
X007449Y005746D01*
X007484Y005713D01*
X007516Y005677D01*
X007546Y005639D01*
X007572Y005598D01*
X007594Y005555D01*
X007614Y005511D01*
X007629Y005466D01*
X007641Y005419D01*
X007649Y005371D01*
X007653Y005323D01*
X007653Y005275D01*
X007649Y005227D01*
X007641Y005179D01*
X007629Y005132D01*
X007614Y005087D01*
X007594Y005043D01*
X007572Y005000D01*
X007546Y004959D01*
X007516Y004921D01*
X007484Y004885D01*
X007449Y004852D01*
X007411Y004822D01*
X007371Y004795D01*
X007329Y004772D01*
X007285Y004752D01*
X007240Y004735D01*
X007194Y004723D01*
X007146Y004714D01*
X007098Y004709D01*
X007050Y004708D01*
X007002Y004711D01*
X006954Y004718D01*
X006907Y004729D01*
X006861Y004743D01*
X006816Y004761D01*
X006773Y004783D01*
X006732Y004808D01*
X006694Y004837D01*
X006657Y004869D01*
X006623Y004903D01*
X006593Y004940D01*
X006565Y004979D01*
X006540Y005021D01*
X006520Y005065D01*
X006502Y005110D01*
X006489Y005156D01*
X006479Y005203D01*
X006473Y005251D01*
X006471Y005299D01*
X006471Y015141D02*
X006473Y015189D01*
X006479Y015237D01*
X006489Y015284D01*
X006502Y015330D01*
X006520Y015375D01*
X006540Y015419D01*
X006565Y015461D01*
X006593Y015500D01*
X006623Y015537D01*
X006657Y015571D01*
X006694Y015603D01*
X006732Y015632D01*
X006773Y015657D01*
X006816Y015679D01*
X006861Y015697D01*
X006907Y015711D01*
X006954Y015722D01*
X007002Y015729D01*
X007050Y015732D01*
X007098Y015731D01*
X007146Y015726D01*
X007194Y015717D01*
X007240Y015705D01*
X007285Y015688D01*
X007329Y015668D01*
X007371Y015645D01*
X007411Y015618D01*
X007449Y015588D01*
X007484Y015555D01*
X007516Y015519D01*
X007546Y015481D01*
X007572Y015440D01*
X007594Y015397D01*
X007614Y015353D01*
X007629Y015308D01*
X007641Y015261D01*
X007649Y015213D01*
X007653Y015165D01*
X007653Y015117D01*
X007649Y015069D01*
X007641Y015021D01*
X007629Y014974D01*
X007614Y014929D01*
X007594Y014885D01*
X007572Y014842D01*
X007546Y014801D01*
X007516Y014763D01*
X007484Y014727D01*
X007449Y014694D01*
X007411Y014664D01*
X007371Y014637D01*
X007329Y014614D01*
X007285Y014594D01*
X007240Y014577D01*
X007194Y014565D01*
X007146Y014556D01*
X007098Y014551D01*
X007050Y014550D01*
X007002Y014553D01*
X006954Y014560D01*
X006907Y014571D01*
X006861Y014585D01*
X006816Y014603D01*
X006773Y014625D01*
X006732Y014650D01*
X006694Y014679D01*
X006657Y014711D01*
X006623Y014745D01*
X006593Y014782D01*
X006565Y014821D01*
X006540Y014863D01*
X006520Y014907D01*
X006502Y014952D01*
X006489Y014998D01*
X006479Y015045D01*
X006473Y015093D01*
X006471Y015141D01*
D11*
X006528Y016615D02*
X006528Y016895D01*
X006635Y016849D02*
X006635Y016662D01*
X006682Y016615D01*
X006776Y016615D01*
X006822Y016662D01*
X006822Y016849D02*
X006776Y016895D01*
X006682Y016895D01*
X006635Y016849D01*
X006528Y016615D02*
X006341Y016895D01*
X006341Y016615D01*
X006140Y016615D02*
X006140Y016755D01*
X006233Y016849D01*
X006233Y016895D01*
X006140Y016755D02*
X006046Y016849D01*
X006046Y016895D01*
X005938Y016849D02*
X005892Y016895D01*
X005798Y016895D01*
X005752Y016849D01*
X005752Y016802D01*
X005798Y016755D01*
X005892Y016755D01*
X005938Y016708D01*
X005938Y016662D01*
X005892Y016615D01*
X005798Y016615D01*
X005752Y016662D01*
X005644Y016615D02*
X005644Y016895D01*
X005644Y016755D02*
X005457Y016755D01*
X005457Y016615D02*
X005457Y016895D01*
X006550Y018615D02*
X006457Y018708D01*
X006457Y018895D01*
X006644Y018895D02*
X006644Y018708D01*
X006550Y018615D01*
X006752Y018662D02*
X006798Y018615D01*
X006892Y018615D01*
X006938Y018662D01*
X006938Y018708D01*
X006892Y018755D01*
X006798Y018755D01*
X006752Y018802D01*
X006752Y018849D01*
X006798Y018895D01*
X006892Y018895D01*
X006938Y018849D01*
X007046Y018849D02*
X007140Y018755D01*
X007140Y018615D01*
X007140Y018755D02*
X007233Y018849D01*
X007233Y018895D01*
X007341Y018895D02*
X007528Y018615D01*
X007528Y018895D01*
X007635Y018849D02*
X007635Y018662D01*
X007682Y018615D01*
X007776Y018615D01*
X007822Y018662D01*
X007822Y018849D02*
X007776Y018895D01*
X007682Y018895D01*
X007635Y018849D01*
X007341Y018895D02*
X007341Y018615D01*
X007046Y018849D02*
X007046Y018895D01*
X008004Y016895D02*
X007957Y016849D01*
X007957Y016662D01*
X008004Y016615D01*
X008097Y016615D01*
X008144Y016662D01*
X008252Y016615D02*
X008252Y016895D01*
X008144Y016849D02*
X008097Y016895D01*
X008004Y016895D01*
X008252Y016615D02*
X008438Y016615D01*
X008546Y016662D02*
X008546Y016849D01*
X008593Y016895D01*
X008686Y016895D01*
X008733Y016849D01*
X008733Y016662D01*
X008686Y016615D01*
X008593Y016615D01*
X008546Y016662D01*
X008841Y016662D02*
X008841Y016849D01*
X008888Y016895D01*
X008981Y016895D01*
X009028Y016849D01*
X009135Y016895D02*
X009135Y016615D01*
X009135Y016708D02*
X009322Y016895D01*
X009182Y016755D02*
X009322Y016615D01*
X009028Y016662D02*
X008981Y016615D01*
X008888Y016615D01*
X008841Y016662D01*
X009175Y015132D02*
X009082Y015039D01*
X009175Y014945D01*
X009362Y014945D01*
X009315Y014838D02*
X009362Y014791D01*
X009362Y014697D01*
X009315Y014651D01*
X009128Y014651D01*
X009082Y014697D01*
X009082Y014791D01*
X009128Y014838D01*
X009222Y014838D02*
X009222Y014744D01*
X009222Y014838D02*
X009315Y014838D01*
X009222Y014945D02*
X009222Y015132D01*
X009175Y015132D02*
X009362Y015132D01*
X009268Y014543D02*
X009082Y014543D01*
X009268Y014543D02*
X009362Y014449D01*
X009268Y014356D01*
X009082Y014356D01*
X011578Y011432D02*
X011532Y011385D01*
X011532Y011292D01*
X011578Y011245D01*
X011578Y011138D02*
X011672Y011138D01*
X011718Y011091D01*
X011718Y010951D01*
X011718Y011044D02*
X011812Y011138D01*
X011812Y011245D02*
X011625Y011432D01*
X011578Y011432D01*
X011812Y011432D02*
X011812Y011245D01*
X011578Y011138D02*
X011532Y011091D01*
X011532Y010951D01*
X011812Y010951D01*
X011812Y010432D02*
X011812Y010245D01*
X011812Y010339D02*
X011532Y010339D01*
X011625Y010245D01*
X011578Y010138D02*
X011672Y010138D01*
X011718Y010091D01*
X011718Y009951D01*
X011718Y010044D02*
X011812Y010138D01*
X011812Y009951D02*
X011532Y009951D01*
X011532Y010091D01*
X011578Y010138D01*
X011672Y009432D02*
X011672Y009245D01*
X011532Y009385D01*
X011812Y009385D01*
X011812Y009138D02*
X011718Y009044D01*
X011718Y009091D02*
X011718Y008951D01*
X011812Y008951D02*
X011532Y008951D01*
X011532Y009091D01*
X011578Y009138D01*
X011672Y009138D01*
X011718Y009091D01*
X011718Y008432D02*
X011765Y008432D01*
X011812Y008385D01*
X011812Y008292D01*
X011765Y008245D01*
X011812Y008138D02*
X011718Y008044D01*
X011718Y008091D02*
X011718Y007951D01*
X011812Y007951D02*
X011532Y007951D01*
X011532Y008091D01*
X011578Y008138D01*
X011672Y008138D01*
X011718Y008091D01*
X011578Y008245D02*
X011532Y008292D01*
X011532Y008385D01*
X011578Y008432D01*
X011625Y008432D01*
X011672Y008385D01*
X011718Y008432D01*
X011672Y008385D02*
X011672Y008339D01*
X011718Y007432D02*
X011672Y007385D01*
X011672Y007245D01*
X011765Y007245D01*
X011812Y007292D01*
X011812Y007385D01*
X011765Y007432D01*
X011718Y007432D01*
X011578Y007339D02*
X011672Y007245D01*
X011672Y007138D02*
X011578Y007138D01*
X011532Y007091D01*
X011532Y006951D01*
X011812Y006951D01*
X011718Y006951D02*
X011718Y007091D01*
X011672Y007138D01*
X011718Y007044D02*
X011812Y007138D01*
X011578Y007339D02*
X011532Y007432D01*
X011532Y006432D02*
X011532Y006245D01*
X011672Y006245D01*
X011625Y006339D01*
X011625Y006385D01*
X011672Y006432D01*
X011765Y006432D01*
X011812Y006385D01*
X011812Y006292D01*
X011765Y006245D01*
X011812Y006138D02*
X011718Y006044D01*
X011718Y006091D02*
X011718Y005951D01*
X011812Y005951D02*
X011532Y005951D01*
X011532Y006091D01*
X011578Y006138D01*
X011672Y006138D01*
X011718Y006091D01*
X011625Y005682D02*
X011578Y005682D01*
X011532Y005635D01*
X011532Y005542D01*
X011578Y005495D01*
X011625Y005682D02*
X011812Y005495D01*
X011812Y005682D01*
X011812Y005388D02*
X011812Y005201D01*
X011812Y005294D02*
X011532Y005294D01*
X011625Y005201D01*
X011578Y005093D02*
X011672Y005093D01*
X011718Y005046D01*
X011718Y004906D01*
X011718Y004999D02*
X011812Y005093D01*
X011812Y004906D02*
X011532Y004906D01*
X011532Y005046D01*
X011578Y005093D01*
X011578Y004682D02*
X011625Y004682D01*
X011672Y004635D01*
X011718Y004682D01*
X011765Y004682D01*
X011812Y004635D01*
X011812Y004542D01*
X011765Y004495D01*
X011812Y004388D02*
X011812Y004201D01*
X011812Y004294D02*
X011532Y004294D01*
X011625Y004201D01*
X011578Y004093D02*
X011672Y004093D01*
X011718Y004046D01*
X011718Y003906D01*
X011718Y003999D02*
X011812Y004093D01*
X011812Y003906D02*
X011532Y003906D01*
X011532Y004046D01*
X011578Y004093D01*
X011578Y004495D02*
X011532Y004542D01*
X011532Y004635D01*
X011578Y004682D01*
X011672Y004635D02*
X011672Y004589D01*
X010767Y002895D02*
X010673Y002895D01*
X010627Y002849D01*
X010627Y002662D01*
X010813Y002849D01*
X010813Y002662D01*
X010767Y002615D01*
X010673Y002615D01*
X010627Y002662D01*
X010519Y002615D02*
X010425Y002708D01*
X010472Y002708D02*
X010332Y002708D01*
X010332Y002615D02*
X010332Y002895D01*
X010472Y002895D01*
X010519Y002849D01*
X010519Y002755D01*
X010472Y002708D01*
X010767Y002895D02*
X010813Y002849D01*
X011216Y002662D02*
X011263Y002662D01*
X011263Y002615D01*
X011216Y002615D01*
X011216Y002662D01*
X011658Y002662D02*
X011705Y002662D01*
X011705Y002615D01*
X011658Y002615D01*
X011658Y002662D01*
X012100Y002662D02*
X012147Y002662D01*
X012147Y002615D01*
X012100Y002615D01*
X012100Y002662D01*
X012542Y002662D02*
X012588Y002662D01*
X012588Y002615D01*
X012542Y002615D01*
X012542Y002662D01*
X012984Y002662D02*
X013030Y002662D01*
X013030Y002615D01*
X012984Y002615D01*
X012984Y002662D01*
X013426Y002662D02*
X013472Y002662D01*
X013472Y002615D01*
X013426Y002615D01*
X013426Y002662D01*
X013868Y002662D02*
X013914Y002662D01*
X013914Y002615D01*
X013868Y002615D01*
X013868Y002662D01*
X014310Y002662D02*
X014356Y002662D01*
X014356Y002615D01*
X014310Y002615D01*
X014310Y002662D01*
X014752Y002662D02*
X014798Y002662D01*
X014798Y002615D01*
X014752Y002615D01*
X014752Y002662D01*
X015194Y002662D02*
X015240Y002662D01*
X015240Y002615D01*
X015194Y002615D01*
X015194Y002662D01*
X015636Y002662D02*
X015682Y002662D01*
X015682Y002615D01*
X015636Y002615D01*
X015636Y002662D01*
X016078Y002662D02*
X016124Y002662D01*
X016124Y002615D01*
X016078Y002615D01*
X016078Y002662D01*
X016520Y002662D02*
X016566Y002662D01*
X016566Y002615D01*
X016520Y002615D01*
X016520Y002662D01*
X016962Y002662D02*
X017008Y002662D01*
X017008Y002615D01*
X016962Y002615D01*
X016962Y002662D01*
X017404Y002662D02*
X017450Y002662D01*
X017450Y002615D01*
X017404Y002615D01*
X017404Y002662D01*
X017846Y002662D02*
X017892Y002662D01*
X017892Y002615D01*
X017846Y002615D01*
X017846Y002662D01*
X018287Y002708D02*
X018428Y002708D01*
X018474Y002755D01*
X018474Y002849D01*
X018428Y002895D01*
X018287Y002895D01*
X018287Y002615D01*
X018381Y002708D02*
X018474Y002615D01*
X018582Y002662D02*
X018629Y002615D01*
X018722Y002615D01*
X018769Y002662D01*
X018769Y002849D01*
X018722Y002895D01*
X018629Y002895D01*
X018582Y002849D01*
X018582Y002802D01*
X018629Y002755D01*
X018769Y002755D01*
X019433Y003990D02*
X019620Y003990D01*
X019667Y004037D01*
X019667Y004130D01*
X019620Y004177D01*
X019527Y004177D01*
X019527Y004083D01*
X019433Y003990D02*
X019387Y004037D01*
X019387Y004130D01*
X019433Y004177D01*
X019433Y004285D02*
X019387Y004331D01*
X019387Y004425D01*
X019433Y004471D01*
X019620Y004285D01*
X019667Y004331D01*
X019667Y004425D01*
X019620Y004471D01*
X019433Y004471D01*
X019433Y004285D02*
X019620Y004285D01*
X019620Y004874D02*
X019620Y004921D01*
X019667Y004921D01*
X019667Y004874D01*
X019620Y004874D01*
X019620Y005316D02*
X019620Y005363D01*
X019667Y005363D01*
X019667Y005316D01*
X019620Y005316D01*
X019620Y005758D02*
X019620Y005805D01*
X019667Y005805D01*
X019667Y005758D01*
X019620Y005758D01*
X019620Y006200D02*
X019620Y006247D01*
X019667Y006247D01*
X019667Y006200D01*
X019620Y006200D01*
X019620Y006642D02*
X019620Y006689D01*
X019667Y006689D01*
X019667Y006642D01*
X019620Y006642D01*
X019620Y007084D02*
X019620Y007131D01*
X019667Y007131D01*
X019667Y007084D01*
X019620Y007084D01*
X019620Y007526D02*
X019620Y007573D01*
X019667Y007573D01*
X019667Y007526D01*
X019620Y007526D01*
X019620Y007968D02*
X019620Y008015D01*
X019667Y008015D01*
X019667Y007968D01*
X019620Y007968D01*
X019620Y008410D02*
X019620Y008456D01*
X019667Y008456D01*
X019667Y008410D01*
X019620Y008410D01*
X019620Y008852D02*
X019620Y008898D01*
X019667Y008898D01*
X019667Y008852D01*
X019620Y008852D01*
X019620Y009294D02*
X019620Y009340D01*
X019667Y009340D01*
X019667Y009294D01*
X019620Y009294D01*
X019620Y009736D02*
X019620Y009782D01*
X019667Y009782D01*
X019667Y009736D01*
X019620Y009736D01*
X019620Y010178D02*
X019620Y010224D01*
X019667Y010224D01*
X019667Y010178D01*
X019620Y010178D01*
X019620Y010620D02*
X019620Y010666D01*
X019667Y010666D01*
X019667Y010620D01*
X019620Y010620D01*
X019620Y011062D02*
X019620Y011108D01*
X019667Y011108D01*
X019667Y011062D01*
X019620Y011062D01*
X019620Y011504D02*
X019620Y011550D01*
X019667Y011550D01*
X019667Y011504D01*
X019620Y011504D01*
X019620Y011946D02*
X019433Y011946D01*
X019387Y011992D01*
X019387Y012086D01*
X019433Y012132D01*
X019527Y012132D02*
X019527Y012039D01*
X019527Y012132D02*
X019620Y012132D01*
X019667Y012086D01*
X019667Y011992D01*
X019620Y011946D01*
X019620Y012240D02*
X019667Y012287D01*
X019667Y012380D01*
X019620Y012427D01*
X019433Y012427D01*
X019387Y012380D01*
X019387Y012287D01*
X019433Y012240D01*
X019480Y012240D01*
X019527Y012287D01*
X019527Y012427D01*
X019479Y013545D02*
X019479Y013685D01*
X019432Y013732D01*
X019292Y013732D01*
X019292Y013545D01*
X019184Y013545D02*
X019044Y013545D01*
X018997Y013592D01*
X019044Y013638D01*
X019184Y013638D01*
X019184Y013685D02*
X019184Y013545D01*
X019184Y013685D02*
X019137Y013732D01*
X019044Y013732D01*
X018847Y013825D02*
X018847Y013545D01*
X018801Y013545D02*
X018894Y013545D01*
X018693Y013592D02*
X018646Y013545D01*
X018506Y013545D01*
X018506Y013825D01*
X018646Y013825D01*
X018693Y013779D01*
X018693Y013732D01*
X018646Y013685D01*
X018506Y013685D01*
X018646Y013685D02*
X018693Y013638D01*
X018693Y013592D01*
X018801Y013825D02*
X018847Y013825D01*
X018916Y014545D02*
X018916Y014685D01*
X019010Y014779D01*
X019010Y014825D01*
X019118Y014825D02*
X019304Y014545D01*
X019304Y014825D01*
X019412Y014779D02*
X019412Y014592D01*
X019459Y014545D01*
X019552Y014545D01*
X019599Y014592D01*
X019599Y014779D02*
X019552Y014825D01*
X019459Y014825D01*
X019412Y014779D01*
X019118Y014825D02*
X019118Y014545D01*
X018916Y014685D02*
X018823Y014779D01*
X018823Y014825D01*
X018715Y014779D02*
X018668Y014825D01*
X018575Y014825D01*
X018528Y014779D01*
X018528Y014732D01*
X018575Y014685D01*
X018668Y014685D01*
X018715Y014638D01*
X018715Y014592D01*
X018668Y014545D01*
X018575Y014545D01*
X018528Y014592D01*
X019586Y013825D02*
X019586Y013545D01*
X019586Y013638D02*
X019726Y013732D01*
X019586Y013638D02*
X019726Y013545D01*
X019177Y017545D02*
X019084Y017545D01*
X019037Y017592D01*
X019224Y017779D01*
X019224Y017592D01*
X019177Y017545D01*
X019037Y017592D02*
X019037Y017779D01*
X019084Y017825D01*
X019177Y017825D01*
X019224Y017779D01*
X018929Y017779D02*
X018929Y017732D01*
X018883Y017685D01*
X018743Y017685D01*
X018883Y017685D02*
X018929Y017638D01*
X018929Y017592D01*
X018883Y017545D01*
X018743Y017545D01*
X018743Y017825D01*
X018883Y017825D01*
X018929Y017779D01*
X018347Y017592D02*
X018347Y017545D01*
X018301Y017545D01*
X018301Y017592D01*
X018347Y017592D01*
X017905Y017592D02*
X017905Y017545D01*
X017859Y017545D01*
X017859Y017592D01*
X017905Y017592D01*
X017463Y017592D02*
X017463Y017545D01*
X017417Y017545D01*
X017417Y017592D01*
X017463Y017592D01*
X017021Y017592D02*
X017021Y017545D01*
X016975Y017545D01*
X016975Y017592D01*
X017021Y017592D01*
X016579Y017592D02*
X016579Y017545D01*
X016533Y017545D01*
X016533Y017592D01*
X016579Y017592D01*
X016137Y017592D02*
X016137Y017545D01*
X016091Y017545D01*
X016091Y017592D01*
X016137Y017592D01*
X015695Y017592D02*
X015695Y017545D01*
X015649Y017545D01*
X015649Y017592D01*
X015695Y017592D01*
X015253Y017592D02*
X015253Y017545D01*
X015207Y017545D01*
X015207Y017592D01*
X015253Y017592D01*
X014811Y017592D02*
X014811Y017545D01*
X014765Y017545D01*
X014765Y017592D01*
X014811Y017592D01*
X014370Y017592D02*
X014370Y017545D01*
X014323Y017545D01*
X014323Y017592D01*
X014370Y017592D01*
X013928Y017592D02*
X013928Y017545D01*
X013881Y017545D01*
X013881Y017592D01*
X013928Y017592D01*
X013486Y017592D02*
X013486Y017545D01*
X013439Y017545D01*
X013439Y017592D01*
X013486Y017592D01*
X013044Y017592D02*
X013044Y017545D01*
X012997Y017545D01*
X012997Y017592D01*
X013044Y017592D01*
X012602Y017592D02*
X012602Y017545D01*
X012555Y017545D01*
X012555Y017592D01*
X012602Y017592D01*
X012160Y017592D02*
X012160Y017545D01*
X012113Y017545D01*
X012113Y017592D01*
X012160Y017592D01*
X011718Y017592D02*
X011718Y017545D01*
X011671Y017545D01*
X011671Y017592D01*
X011718Y017592D01*
X011268Y017592D02*
X011222Y017545D01*
X011128Y017545D01*
X011082Y017592D01*
X011128Y017685D02*
X011268Y017685D01*
X011268Y017592D02*
X011268Y017779D01*
X011222Y017825D01*
X011128Y017825D01*
X011082Y017779D01*
X011082Y017732D01*
X011128Y017685D01*
X010974Y017638D02*
X010974Y017592D01*
X010927Y017545D01*
X010787Y017545D01*
X010787Y017825D01*
X010927Y017825D01*
X010974Y017779D01*
X010974Y017732D01*
X010927Y017685D01*
X010787Y017685D01*
X010927Y017685D02*
X010974Y017638D01*
X003742Y009060D02*
X003742Y008906D01*
X003665Y008830D01*
X003512Y008830D01*
X003435Y008906D01*
X003435Y009060D01*
X003512Y009137D01*
X003588Y009137D01*
X003588Y008830D01*
X003742Y008676D02*
X003742Y008523D01*
X003742Y008599D02*
X003281Y008599D01*
X003281Y008523D01*
X003435Y008292D02*
X003512Y008369D01*
X003742Y008369D01*
X003742Y008139D01*
X003665Y008062D01*
X003588Y008139D01*
X003588Y008369D01*
X003435Y008292D02*
X003435Y008139D01*
X003512Y007909D02*
X003742Y007909D01*
X003742Y007755D02*
X003512Y007755D01*
X003435Y007832D01*
X003512Y007909D01*
X003512Y007755D02*
X003435Y007679D01*
X003435Y007602D01*
X003742Y007602D01*
X003588Y007448D02*
X003512Y007448D01*
X003435Y007372D01*
X003435Y007218D01*
X003512Y007141D01*
X003665Y007141D01*
X003742Y007218D01*
X003742Y007372D01*
X003588Y007448D02*
X003588Y007141D01*
X003512Y006835D02*
X003512Y006681D01*
X003742Y006681D02*
X003281Y006681D01*
X003281Y006988D01*
X006754Y001020D02*
X006707Y000974D01*
X006707Y000787D01*
X006754Y000740D01*
X006847Y000740D01*
X006894Y000787D01*
X006894Y000880D01*
X006800Y000880D01*
X006894Y000974D02*
X006847Y001020D01*
X006754Y001020D01*
X007002Y001020D02*
X007188Y000740D01*
X007188Y001020D01*
X007296Y001020D02*
X007436Y001020D01*
X007483Y000974D01*
X007483Y000787D01*
X007436Y000740D01*
X007296Y000740D01*
X007296Y001020D01*
X007002Y001020D02*
X007002Y000740D01*
X008207Y000787D02*
X008254Y000740D01*
X008347Y000740D01*
X008394Y000787D01*
X008394Y000833D01*
X008347Y000880D01*
X008300Y000880D01*
X008347Y000880D02*
X008394Y000927D01*
X008394Y000974D01*
X008347Y001020D01*
X008254Y001020D01*
X008207Y000974D01*
X008502Y001020D02*
X008502Y000833D01*
X008595Y000740D01*
X008688Y000833D01*
X008688Y001020D01*
X008796Y000974D02*
X008843Y001020D01*
X008936Y001020D01*
X008983Y000974D01*
X008983Y000927D01*
X008936Y000880D01*
X008983Y000833D01*
X008983Y000787D01*
X008936Y000740D01*
X008843Y000740D01*
X008796Y000787D01*
X008890Y000880D02*
X008936Y000880D01*
X016396Y006870D02*
X016490Y006870D01*
X016443Y006870D02*
X016443Y007150D01*
X016396Y007150D02*
X016490Y007150D01*
X016593Y007104D02*
X016593Y006917D01*
X016639Y006870D01*
X016733Y006870D01*
X016779Y006917D01*
X016887Y006870D02*
X017074Y006870D01*
X016981Y006870D02*
X016981Y007150D01*
X016887Y007057D01*
X016779Y007104D02*
X016733Y007150D01*
X016639Y007150D01*
X016593Y007104D01*
D12*
X016593Y005039D03*
X016578Y005039D03*
X016562Y005039D03*
X016546Y005023D03*
X016530Y005023D03*
X016515Y005023D03*
X016515Y005007D03*
X016499Y005007D03*
X016483Y005007D03*
X016467Y004992D03*
X016452Y004992D03*
X016436Y004992D03*
X016436Y004976D03*
X016420Y004976D03*
X016404Y004960D03*
X016389Y004960D03*
X016373Y004944D03*
X016357Y004944D03*
X016341Y004929D03*
X016326Y004913D03*
X016310Y004913D03*
X016294Y004897D03*
X016278Y004881D03*
X016263Y004881D03*
X016263Y004866D03*
X016247Y004866D03*
X016247Y004850D03*
X016231Y004850D03*
X016231Y004834D03*
X016215Y004834D03*
X016215Y004818D03*
X016200Y004803D03*
X016200Y004787D03*
X016184Y004787D03*
X016184Y004771D03*
X016168Y004755D03*
X016168Y004740D03*
X016152Y004724D03*
X016152Y004708D03*
X016152Y004692D03*
X016152Y004677D03*
X016152Y004661D03*
X016152Y004645D03*
X016152Y004629D03*
X016152Y004614D03*
X016168Y004598D03*
X016184Y004582D03*
X016184Y004566D03*
X016200Y004551D03*
X016200Y004535D03*
X016215Y004519D03*
X016231Y004503D03*
X016247Y004488D03*
X016263Y004472D03*
X016263Y004456D03*
X016278Y004456D03*
X016278Y004440D03*
X016294Y004425D03*
X016310Y004409D03*
X016310Y004393D03*
X016326Y004377D03*
X016326Y004362D03*
X016326Y004346D03*
X016326Y004330D03*
X016326Y004314D03*
X016310Y004314D03*
X016310Y004299D03*
X016294Y004299D03*
X016294Y004283D03*
X016278Y004283D03*
X016263Y004283D03*
X016247Y004283D03*
X016231Y004283D03*
X016215Y004267D03*
X016200Y004267D03*
X016184Y004251D03*
X016168Y004251D03*
X016152Y004236D03*
X016137Y004236D03*
X016121Y004236D03*
X016121Y004220D03*
X016105Y004220D03*
X016089Y004220D03*
X016074Y004204D03*
X016058Y004204D03*
X016058Y004189D03*
X016042Y004189D03*
X016042Y004173D03*
X016026Y004173D03*
X016026Y004157D03*
X016026Y004141D03*
X016026Y004126D03*
X016042Y004126D03*
X016042Y004110D03*
X016058Y004110D03*
X016074Y004094D03*
X016089Y004094D03*
X016105Y004094D03*
X016121Y004094D03*
X016137Y004094D03*
X016152Y004110D03*
X016168Y004110D03*
X016184Y004126D03*
X016200Y004126D03*
X016215Y004126D03*
X016215Y004141D03*
X016231Y004141D03*
X016247Y004157D03*
X016263Y004157D03*
X016278Y004173D03*
X016294Y004173D03*
X016294Y004189D03*
X016310Y004189D03*
X016326Y004204D03*
X016341Y004220D03*
X016357Y004220D03*
X016357Y004236D03*
X016373Y004236D03*
X016389Y004236D03*
X016404Y004236D03*
X016436Y004251D03*
X016452Y004251D03*
X016467Y004251D03*
X016483Y004251D03*
X016483Y004283D03*
X016483Y004299D03*
X016515Y004299D03*
X016515Y004283D03*
X016530Y004283D03*
X016530Y004267D03*
X016515Y004267D03*
X016546Y004267D03*
X016546Y004283D03*
X016562Y004299D03*
X016593Y004299D03*
X016530Y004346D03*
X016515Y004346D03*
X016515Y004330D03*
X016499Y004330D03*
X016467Y004330D03*
X016452Y004330D03*
X016452Y004346D03*
X016452Y004362D03*
X016452Y004425D03*
X016452Y004440D03*
X016452Y004456D03*
X016436Y004472D03*
X016420Y004488D03*
X016420Y004503D03*
X016404Y004519D03*
X016389Y004535D03*
X016389Y004551D03*
X016373Y004551D03*
X016373Y004566D03*
X016357Y004582D03*
X016357Y004598D03*
X016341Y004598D03*
X016341Y004614D03*
X016326Y004629D03*
X016326Y004645D03*
X016310Y004661D03*
X016310Y004677D03*
X016294Y004692D03*
X016294Y004708D03*
X016294Y004724D03*
X016294Y004740D03*
X016294Y004755D03*
X016310Y004771D03*
X016310Y004787D03*
X016326Y004787D03*
X016326Y004803D03*
X016341Y004803D03*
X016341Y004818D03*
X016357Y004818D03*
X016373Y004818D03*
X016373Y004803D03*
X016373Y004834D03*
X016357Y004834D03*
X016404Y004866D03*
X016420Y004866D03*
X016420Y004881D03*
X016436Y004818D03*
X016436Y004803D03*
X016420Y004803D03*
X016452Y004818D03*
X016467Y004834D03*
X016483Y004834D03*
X016499Y004850D03*
X016515Y004850D03*
X016515Y004866D03*
X016530Y004866D03*
X016546Y004881D03*
X016562Y004881D03*
X016562Y004897D03*
X016578Y004897D03*
X016593Y004913D03*
X016609Y004929D03*
X016609Y004944D03*
X016625Y004960D03*
X016625Y004976D03*
X016625Y004992D03*
X016625Y005007D03*
X016625Y005023D03*
X016609Y005039D03*
X016751Y004566D03*
X016767Y004566D03*
X016782Y004566D03*
X016798Y004566D03*
X016798Y004551D03*
X016798Y004535D03*
X016798Y004519D03*
X016782Y004503D03*
X016782Y004488D03*
X016767Y004472D03*
X016767Y004456D03*
X016751Y004440D03*
X016751Y004425D03*
X016735Y004409D03*
X016735Y004393D03*
X016735Y004377D03*
X016719Y004362D03*
X016719Y004346D03*
X016719Y004330D03*
X016704Y004314D03*
X016704Y004299D03*
X016704Y004283D03*
X016704Y004267D03*
X016719Y004267D03*
X016735Y004267D03*
X016735Y004283D03*
X016751Y004283D03*
X016767Y004299D03*
X016782Y004314D03*
X016798Y004330D03*
X016814Y004346D03*
X016814Y004362D03*
X016830Y004362D03*
X016830Y004377D03*
X016845Y004377D03*
X016845Y004393D03*
X016861Y004393D03*
X016861Y004409D03*
X016877Y004425D03*
X016893Y004440D03*
X016908Y004456D03*
X016924Y004456D03*
X016940Y004456D03*
X016956Y004456D03*
X016971Y004456D03*
X016971Y004393D03*
X016971Y004377D03*
X016971Y004362D03*
X016971Y004346D03*
X016971Y004330D03*
X016987Y004330D03*
X017019Y004330D03*
X017034Y004314D03*
X017034Y004299D03*
X017034Y004283D03*
X017034Y004267D03*
X017034Y004251D03*
X017019Y004251D03*
X017003Y004236D03*
X016987Y004236D03*
X016971Y004220D03*
X016956Y004220D03*
X016940Y004220D03*
X016924Y004220D03*
X016908Y004220D03*
X016893Y004220D03*
X016877Y004236D03*
X016861Y004251D03*
X016861Y004267D03*
X016861Y004283D03*
X016845Y004299D03*
X016830Y004283D03*
X016814Y004267D03*
X016798Y004251D03*
X016782Y004236D03*
X016767Y004220D03*
X016751Y004204D03*
X016735Y004189D03*
X016719Y004173D03*
X016704Y004173D03*
X016688Y004157D03*
X016672Y004157D03*
X016625Y004157D03*
X016609Y004157D03*
X016593Y004173D03*
X016593Y004189D03*
X016546Y004362D03*
X016546Y004377D03*
X016562Y004377D03*
X016562Y004393D03*
X016578Y004393D03*
X016578Y004409D03*
X016593Y004409D03*
X016593Y004425D03*
X016609Y004425D03*
X016609Y004440D03*
X016625Y004440D03*
X016625Y004456D03*
X016641Y004456D03*
X016641Y004472D03*
X016656Y004472D03*
X016656Y004488D03*
X016672Y004488D03*
X016672Y004503D03*
X016688Y004519D03*
X016704Y004535D03*
X016719Y004551D03*
X016735Y004551D03*
X016530Y004362D03*
X017050Y004330D03*
X017050Y004314D03*
X017050Y004299D03*
X017066Y004283D03*
X017082Y004283D03*
X017097Y004283D03*
X017082Y004267D03*
X017066Y004267D03*
X017113Y004299D03*
X017129Y004299D03*
X017129Y004314D03*
X017145Y004314D03*
X017145Y004330D03*
X017160Y004330D03*
X017176Y004346D03*
X017192Y004362D03*
X017208Y004346D03*
X017208Y004330D03*
X017192Y004314D03*
X017192Y004299D03*
X017176Y004283D03*
X017176Y004267D03*
X017160Y004251D03*
X017160Y004236D03*
X017145Y004220D03*
X017145Y004204D03*
X017129Y004189D03*
X017129Y004173D03*
X017129Y004157D03*
X017129Y004141D03*
X017129Y004126D03*
X017176Y004126D03*
X017192Y004126D03*
X017208Y004126D03*
X017208Y004141D03*
X017223Y004141D03*
X017223Y004157D03*
X017239Y004157D03*
X017255Y004173D03*
X017271Y004189D03*
X017286Y004204D03*
X017302Y004220D03*
X017318Y004236D03*
X017334Y004251D03*
X017349Y004267D03*
X017365Y004267D03*
X017365Y004283D03*
X017381Y004283D03*
X017397Y004299D03*
X017412Y004299D03*
X017412Y004314D03*
X017428Y004314D03*
X017444Y004330D03*
X017460Y004330D03*
X017460Y004314D03*
X017475Y004299D03*
X017475Y004283D03*
X017491Y004267D03*
X017491Y004251D03*
X017491Y004236D03*
X017507Y004236D03*
X017507Y004220D03*
X017523Y004204D03*
X017538Y004204D03*
X017554Y004204D03*
X017570Y004204D03*
X017586Y004204D03*
X017601Y004220D03*
X017617Y004220D03*
X017617Y004236D03*
X017633Y004236D03*
X017649Y004251D03*
X017664Y004251D03*
X017664Y004267D03*
X017664Y004283D03*
X017680Y004283D03*
X017680Y004299D03*
X017680Y004314D03*
X017680Y004330D03*
X017696Y004346D03*
X017711Y004362D03*
X017727Y004377D03*
X017743Y004393D03*
X017743Y004409D03*
X017743Y004425D03*
X017759Y004440D03*
X017759Y004456D03*
X017774Y004472D03*
X017774Y004488D03*
X017790Y004503D03*
X017790Y004519D03*
X017806Y004519D03*
X017806Y004535D03*
X017822Y004551D03*
X017837Y004566D03*
X017853Y004582D03*
X017869Y004598D03*
X017885Y004614D03*
X017900Y004629D03*
X017916Y004629D03*
X017932Y004645D03*
X017948Y004645D03*
X017995Y004645D03*
X018011Y004645D03*
X018011Y004629D03*
X018026Y004614D03*
X018026Y004598D03*
X018026Y004582D03*
X018026Y004566D03*
X018011Y004551D03*
X018011Y004535D03*
X018011Y004519D03*
X017995Y004519D03*
X017995Y004503D03*
X017979Y004488D03*
X017979Y004472D03*
X017963Y004472D03*
X017963Y004456D03*
X017948Y004456D03*
X017948Y004440D03*
X017932Y004440D03*
X017932Y004425D03*
X017916Y004425D03*
X017916Y004409D03*
X017900Y004409D03*
X017900Y004393D03*
X017885Y004393D03*
X017885Y004377D03*
X017869Y004377D03*
X017869Y004362D03*
X017853Y004362D03*
X017837Y004346D03*
X017837Y004330D03*
X017837Y004314D03*
X017853Y004299D03*
X017869Y004299D03*
X017916Y004299D03*
X017932Y004299D03*
X017948Y004314D03*
X017963Y004314D03*
X017979Y004314D03*
X017995Y004314D03*
X017995Y004330D03*
X018011Y004299D03*
X018011Y004283D03*
X018011Y004267D03*
X018011Y004251D03*
X017995Y004251D03*
X017979Y004236D03*
X017963Y004220D03*
X017948Y004220D03*
X017932Y004204D03*
X017916Y004204D03*
X017900Y004189D03*
X017885Y004189D03*
X017869Y004189D03*
X017853Y004189D03*
X017790Y004189D03*
X017774Y004189D03*
X017759Y004204D03*
X017743Y004220D03*
X017743Y004236D03*
X017743Y004251D03*
X017727Y004267D03*
X017711Y004267D03*
X017696Y004267D03*
X017649Y004314D03*
X017633Y004314D03*
X017617Y004314D03*
X017601Y004314D03*
X017601Y004330D03*
X017601Y004346D03*
X017586Y004377D03*
X017586Y004393D03*
X017586Y004409D03*
X017586Y004425D03*
X017570Y004440D03*
X017570Y004456D03*
X017554Y004456D03*
X017507Y004456D03*
X017491Y004456D03*
X017475Y004456D03*
X017460Y004440D03*
X017444Y004440D03*
X017444Y004425D03*
X017428Y004425D03*
X017412Y004409D03*
X017397Y004393D03*
X017381Y004377D03*
X017365Y004362D03*
X017349Y004377D03*
X017334Y004377D03*
X017334Y004362D03*
X017334Y004346D03*
X017349Y004346D03*
X017334Y004330D03*
X017318Y004330D03*
X017318Y004314D03*
X017302Y004314D03*
X017318Y004346D03*
X017349Y004393D03*
X017349Y004409D03*
X017365Y004409D03*
X017365Y004425D03*
X017365Y004440D03*
X017381Y004440D03*
X017381Y004456D03*
X017381Y004472D03*
X017397Y004488D03*
X017397Y004503D03*
X017397Y004519D03*
X017397Y004535D03*
X017397Y004551D03*
X017381Y004566D03*
X017334Y004566D03*
X017318Y004566D03*
X017302Y004551D03*
X017286Y004551D03*
X017286Y004535D03*
X017271Y004535D03*
X017271Y004519D03*
X017255Y004519D03*
X017255Y004503D03*
X017239Y004503D03*
X017239Y004488D03*
X017223Y004488D03*
X017208Y004472D03*
X017192Y004456D03*
X017176Y004440D03*
X017160Y004425D03*
X017145Y004409D03*
X017129Y004393D03*
X017113Y004377D03*
X017097Y004377D03*
X017097Y004362D03*
X017082Y004362D03*
X017082Y004346D03*
X017066Y004346D03*
X017066Y004330D03*
X017223Y004362D03*
X017853Y004440D03*
X017853Y004456D03*
X017869Y004456D03*
X017869Y004472D03*
X017885Y004472D03*
X017885Y004488D03*
X017885Y004503D03*
X017900Y004503D03*
X017900Y004488D03*
X017916Y004503D03*
X017916Y004519D03*
X017900Y004519D03*
X015664Y004299D03*
X015664Y004283D03*
X015664Y004267D03*
X015664Y004251D03*
X015649Y004251D03*
X015633Y004236D03*
X015617Y004220D03*
X015601Y004220D03*
X015601Y004204D03*
X015586Y004204D03*
X015538Y004204D03*
X015523Y004204D03*
X015523Y004220D03*
X015507Y004220D03*
X015507Y004236D03*
X015491Y004251D03*
X015491Y004267D03*
X015491Y004283D03*
X015475Y004283D03*
X015475Y004299D03*
X015460Y004314D03*
X015460Y004330D03*
X015444Y004330D03*
X015428Y004314D03*
X015412Y004314D03*
X015412Y004299D03*
X015397Y004299D03*
X015381Y004283D03*
X015365Y004267D03*
X015349Y004267D03*
X015334Y004251D03*
X015334Y004236D03*
X015318Y004236D03*
X015318Y004220D03*
X015302Y004220D03*
X015302Y004204D03*
X015286Y004204D03*
X015271Y004189D03*
X015255Y004173D03*
X015239Y004157D03*
X015223Y004141D03*
X015208Y004141D03*
X015208Y004126D03*
X015192Y004126D03*
X015145Y004126D03*
X015129Y004126D03*
X015129Y004141D03*
X015129Y004157D03*
X015129Y004173D03*
X015129Y004189D03*
X015145Y004189D03*
X015145Y004204D03*
X015145Y004220D03*
X015160Y004220D03*
X015160Y004236D03*
X015160Y004251D03*
X015176Y004267D03*
X015176Y004283D03*
X015192Y004299D03*
X015192Y004314D03*
X015208Y004330D03*
X015208Y004346D03*
X015208Y004362D03*
X015223Y004362D03*
X015223Y004377D03*
X015208Y004377D03*
X015192Y004362D03*
X015176Y004346D03*
X015160Y004330D03*
X015145Y004314D03*
X015129Y004314D03*
X015129Y004299D03*
X015113Y004299D03*
X015113Y004283D03*
X015097Y004283D03*
X015082Y004283D03*
X015082Y004267D03*
X015097Y004267D03*
X015066Y004267D03*
X015050Y004267D03*
X015034Y004251D03*
X015019Y004236D03*
X015003Y004236D03*
X015003Y004220D03*
X014987Y004220D03*
X014987Y004204D03*
X014971Y004204D03*
X014956Y004189D03*
X014940Y004189D03*
X014861Y004189D03*
X014845Y004189D03*
X014830Y004204D03*
X014830Y004220D03*
X014814Y004236D03*
X014814Y004251D03*
X014782Y004251D03*
X014767Y004251D03*
X014751Y004236D03*
X014735Y004220D03*
X014719Y004220D03*
X014719Y004204D03*
X014704Y004204D03*
X014704Y004189D03*
X014688Y004189D03*
X014672Y004173D03*
X014656Y004173D03*
X014656Y004157D03*
X014641Y004157D03*
X014625Y004141D03*
X014609Y004141D03*
X014593Y004126D03*
X014546Y004126D03*
X014530Y004126D03*
X014530Y004141D03*
X014515Y004141D03*
X014515Y004157D03*
X014515Y004173D03*
X014515Y004189D03*
X014515Y004204D03*
X014530Y004220D03*
X014530Y004236D03*
X014530Y004251D03*
X014515Y004251D03*
X014499Y004236D03*
X014483Y004220D03*
X014467Y004220D03*
X014452Y004204D03*
X014436Y004204D03*
X014436Y004189D03*
X014420Y004189D03*
X014404Y004173D03*
X014326Y004173D03*
X014310Y004189D03*
X014294Y004189D03*
X014294Y004204D03*
X014278Y004236D03*
X014278Y004251D03*
X014278Y004267D03*
X014263Y004283D03*
X014263Y004299D03*
X014247Y004314D03*
X014231Y004299D03*
X014215Y004299D03*
X014215Y004283D03*
X014200Y004283D03*
X014200Y004267D03*
X014184Y004267D03*
X014168Y004267D03*
X014152Y004267D03*
X014137Y004251D03*
X014121Y004251D03*
X014121Y004236D03*
X014105Y004236D03*
X014089Y004220D03*
X014074Y004220D03*
X014074Y004204D03*
X014058Y004204D03*
X014042Y004189D03*
X014026Y004189D03*
X014011Y004173D03*
X013995Y004173D03*
X013995Y004157D03*
X013979Y004157D03*
X013963Y004157D03*
X013963Y004141D03*
X013948Y004141D03*
X013932Y004141D03*
X013916Y004141D03*
X013900Y004141D03*
X013885Y004141D03*
X013869Y004157D03*
X013869Y004173D03*
X013885Y004189D03*
X013885Y004204D03*
X013900Y004220D03*
X013900Y004236D03*
X013916Y004236D03*
X013916Y004251D03*
X013916Y004267D03*
X013932Y004267D03*
X013932Y004283D03*
X013932Y004299D03*
X013948Y004314D03*
X013948Y004330D03*
X013963Y004362D03*
X013963Y004377D03*
X013963Y004393D03*
X013963Y004409D03*
X013963Y004425D03*
X013948Y004425D03*
X013932Y004425D03*
X013916Y004425D03*
X013916Y004409D03*
X013900Y004409D03*
X013885Y004393D03*
X013869Y004377D03*
X013853Y004362D03*
X013837Y004346D03*
X013822Y004330D03*
X013806Y004330D03*
X013806Y004314D03*
X013790Y004314D03*
X013790Y004299D03*
X013774Y004299D03*
X013759Y004283D03*
X013743Y004283D03*
X013727Y004283D03*
X013727Y004267D03*
X013743Y004267D03*
X013711Y004299D03*
X013711Y004314D03*
X013711Y004330D03*
X013727Y004346D03*
X013743Y004362D03*
X013759Y004377D03*
X013774Y004377D03*
X013774Y004393D03*
X013790Y004393D03*
X013806Y004409D03*
X013822Y004425D03*
X013837Y004440D03*
X013853Y004456D03*
X013853Y004472D03*
X013869Y004472D03*
X013869Y004488D03*
X013869Y004503D03*
X013869Y004519D03*
X013885Y004535D03*
X013900Y004535D03*
X013900Y004551D03*
X013916Y004551D03*
X013932Y004566D03*
X013948Y004566D03*
X013963Y004582D03*
X013979Y004582D03*
X013995Y004582D03*
X014011Y004566D03*
X014026Y004566D03*
X014026Y004551D03*
X014042Y004535D03*
X014058Y004535D03*
X014058Y004519D03*
X014074Y004503D03*
X014074Y004488D03*
X014074Y004472D03*
X014074Y004425D03*
X014074Y004409D03*
X014074Y004393D03*
X014074Y004377D03*
X014058Y004362D03*
X014058Y004346D03*
X014058Y004330D03*
X014042Y004330D03*
X014042Y004314D03*
X014026Y004299D03*
X014026Y004283D03*
X014026Y004267D03*
X014011Y004267D03*
X014011Y004251D03*
X014042Y004267D03*
X014058Y004283D03*
X014074Y004299D03*
X014089Y004299D03*
X014089Y004314D03*
X014105Y004314D03*
X014121Y004314D03*
X014137Y004314D03*
X014137Y004299D03*
X014137Y004283D03*
X014168Y004283D03*
X014168Y004299D03*
X014184Y004283D03*
X014168Y004330D03*
X014168Y004346D03*
X014184Y004346D03*
X014184Y004362D03*
X014200Y004362D03*
X014200Y004377D03*
X014215Y004377D03*
X014231Y004393D03*
X014247Y004409D03*
X014263Y004409D03*
X014263Y004425D03*
X014278Y004425D03*
X014278Y004440D03*
X014294Y004440D03*
X014294Y004456D03*
X014310Y004456D03*
X014310Y004472D03*
X014326Y004472D03*
X014341Y004472D03*
X014357Y004472D03*
X014373Y004472D03*
X014389Y004456D03*
X014389Y004440D03*
X014389Y004425D03*
X014404Y004314D03*
X014404Y004299D03*
X014404Y004283D03*
X014436Y004283D03*
X014452Y004283D03*
X014467Y004299D03*
X014483Y004299D03*
X014483Y004314D03*
X014499Y004314D03*
X014515Y004314D03*
X014515Y004330D03*
X014546Y004330D03*
X014546Y004314D03*
X014562Y004330D03*
X014562Y004346D03*
X014578Y004362D03*
X014593Y004362D03*
X014609Y004377D03*
X014625Y004377D03*
X014625Y004393D03*
X014641Y004393D03*
X014641Y004409D03*
X014656Y004409D03*
X014656Y004425D03*
X014672Y004425D03*
X014688Y004440D03*
X014704Y004456D03*
X014719Y004456D03*
X014719Y004472D03*
X014735Y004472D03*
X014751Y004488D03*
X014767Y004488D03*
X014767Y004503D03*
X014782Y004503D03*
X014782Y004519D03*
X014798Y004519D03*
X014814Y004535D03*
X014830Y004551D03*
X014845Y004551D03*
X014861Y004566D03*
X014877Y004582D03*
X014893Y004582D03*
X014908Y004598D03*
X014924Y004598D03*
X014987Y004598D03*
X014987Y004614D03*
X015003Y004598D03*
X015003Y004582D03*
X015003Y004566D03*
X014987Y004551D03*
X014987Y004535D03*
X014971Y004535D03*
X014956Y004519D03*
X014940Y004519D03*
X014940Y004503D03*
X014924Y004503D03*
X014924Y004488D03*
X014908Y004488D03*
X014893Y004472D03*
X014877Y004456D03*
X014861Y004456D03*
X014861Y004440D03*
X014845Y004440D03*
X014845Y004425D03*
X014830Y004425D03*
X014814Y004409D03*
X014814Y004393D03*
X014814Y004377D03*
X014830Y004377D03*
X014830Y004393D03*
X014845Y004393D03*
X014861Y004409D03*
X014877Y004425D03*
X014893Y004425D03*
X014940Y004425D03*
X014940Y004362D03*
X014940Y004346D03*
X014940Y004330D03*
X014940Y004314D03*
X014940Y004299D03*
X014956Y004283D03*
X014971Y004283D03*
X014987Y004299D03*
X015003Y004314D03*
X015019Y004314D03*
X015034Y004314D03*
X015034Y004299D03*
X015034Y004283D03*
X015066Y004283D03*
X015066Y004299D03*
X015050Y004314D03*
X015050Y004330D03*
X015066Y004330D03*
X015066Y004346D03*
X015082Y004346D03*
X015082Y004362D03*
X015097Y004362D03*
X015113Y004377D03*
X015129Y004393D03*
X015145Y004409D03*
X015160Y004425D03*
X015176Y004440D03*
X015192Y004440D03*
X015192Y004456D03*
X015208Y004456D03*
X015208Y004472D03*
X015223Y004472D03*
X015223Y004488D03*
X015239Y004488D03*
X015239Y004503D03*
X015255Y004503D03*
X015255Y004519D03*
X015271Y004519D03*
X015271Y004535D03*
X015286Y004535D03*
X015302Y004551D03*
X015318Y004551D03*
X015334Y004566D03*
X015381Y004566D03*
X015397Y004551D03*
X015397Y004535D03*
X015397Y004519D03*
X015397Y004503D03*
X015397Y004488D03*
X015397Y004472D03*
X015381Y004456D03*
X015381Y004440D03*
X015365Y004425D03*
X015365Y004409D03*
X015349Y004393D03*
X015349Y004377D03*
X015334Y004362D03*
X015334Y004346D03*
X015349Y004346D03*
X015365Y004362D03*
X015381Y004377D03*
X015397Y004393D03*
X015412Y004393D03*
X015412Y004409D03*
X015428Y004409D03*
X015428Y004425D03*
X015444Y004425D03*
X015460Y004440D03*
X015475Y004440D03*
X015475Y004456D03*
X015491Y004456D03*
X015507Y004456D03*
X015554Y004456D03*
X015570Y004456D03*
X015570Y004440D03*
X015586Y004440D03*
X015586Y004425D03*
X015586Y004409D03*
X015586Y004393D03*
X015601Y004362D03*
X015601Y004346D03*
X015601Y004330D03*
X015617Y004314D03*
X015633Y004314D03*
X015649Y004314D03*
X015649Y004330D03*
X015318Y004314D03*
X015302Y004314D03*
X015019Y004330D03*
X014814Y004283D03*
X014782Y004267D03*
X014735Y004314D03*
X014719Y004314D03*
X014719Y004299D03*
X014704Y004299D03*
X014704Y004314D03*
X014688Y004299D03*
X014688Y004283D03*
X014704Y004283D03*
X014672Y004283D03*
X014719Y004330D03*
X014735Y004330D03*
X014751Y004330D03*
X014751Y004346D03*
X014767Y004346D03*
X014782Y004346D03*
X014782Y004362D03*
X014767Y004362D03*
X014782Y004377D03*
X014798Y004377D03*
X014798Y004362D03*
X014798Y004393D03*
X014562Y004283D03*
X014562Y004267D03*
X014562Y004251D03*
X014546Y004251D03*
X014546Y004236D03*
X014530Y004267D03*
X014530Y004283D03*
X014420Y004629D03*
X014436Y004645D03*
X014452Y004645D03*
X014452Y004661D03*
X014467Y004661D03*
X014483Y004677D03*
X014499Y004692D03*
X014499Y004708D03*
X014515Y004724D03*
X014515Y004740D03*
X014530Y004755D03*
X014530Y004771D03*
X014530Y004787D03*
X014530Y004803D03*
X014467Y004803D03*
X014452Y004803D03*
X014452Y004787D03*
X014436Y004787D03*
X014436Y004771D03*
X014420Y004771D03*
X014404Y004771D03*
X014404Y004755D03*
X014389Y004755D03*
X014389Y004740D03*
X014373Y004740D03*
X014373Y004724D03*
X014357Y004724D03*
X014357Y004708D03*
X014357Y004692D03*
X014357Y004645D03*
X014137Y004330D03*
X014121Y004330D03*
X013680Y004330D03*
X013680Y004314D03*
X013680Y004299D03*
X013664Y004283D03*
X013664Y004267D03*
X013649Y004267D03*
X013649Y004251D03*
X013633Y004251D03*
X013617Y004236D03*
X013601Y004220D03*
X013586Y004220D03*
X013570Y004204D03*
X013554Y004204D03*
X013538Y004189D03*
X013523Y004189D03*
X013507Y004189D03*
X013491Y004173D03*
X013475Y004173D03*
X013460Y004173D03*
X013444Y004157D03*
X013428Y004157D03*
X013412Y004157D03*
X013397Y004141D03*
X013381Y004141D03*
X013365Y004141D03*
X013334Y004126D03*
X013318Y004126D03*
X013302Y004126D03*
X013286Y004126D03*
X013271Y004110D03*
X013255Y004110D03*
X013239Y004110D03*
X013239Y004094D03*
X013223Y004078D03*
X013223Y004063D03*
X013160Y004078D03*
X013129Y004094D03*
X013113Y004094D03*
X013097Y004094D03*
X013097Y004110D03*
X013082Y004110D03*
X013082Y004126D03*
X013082Y004141D03*
X013097Y004141D03*
X013113Y004157D03*
X013129Y004173D03*
X013145Y004173D03*
X013160Y004189D03*
X013176Y004204D03*
X013176Y004220D03*
X013192Y004236D03*
X013192Y004251D03*
X013192Y004267D03*
X013192Y004283D03*
X013192Y004299D03*
X013208Y004330D03*
X013208Y004346D03*
X013208Y004362D03*
X013223Y004377D03*
X013223Y004393D03*
X013223Y004409D03*
X013223Y004425D03*
X013223Y004440D03*
X013223Y004456D03*
X013223Y004472D03*
X013208Y004472D03*
X013192Y004472D03*
X013192Y004488D03*
X013176Y004503D03*
X013176Y004519D03*
X013192Y004535D03*
X013208Y004535D03*
X013208Y004551D03*
X013223Y004551D03*
X013239Y004566D03*
X013255Y004566D03*
X013255Y004582D03*
X013271Y004598D03*
X013271Y004614D03*
X013271Y004629D03*
X013286Y004645D03*
X013286Y004661D03*
X013286Y004677D03*
X013302Y004692D03*
X013302Y004708D03*
X013302Y004724D03*
X013302Y004740D03*
X013302Y004755D03*
X013318Y004771D03*
X013318Y004787D03*
X013334Y004803D03*
X013334Y004818D03*
X013349Y004818D03*
X013349Y004834D03*
X013365Y004834D03*
X013365Y004850D03*
X013381Y004850D03*
X013397Y004866D03*
X013397Y004881D03*
X013381Y004881D03*
X013365Y004881D03*
X013349Y004866D03*
X013334Y004866D03*
X013318Y004866D03*
X013286Y004850D03*
X013271Y004850D03*
X013255Y004850D03*
X013239Y004850D03*
X013239Y004866D03*
X013239Y004881D03*
X013239Y004897D03*
X013255Y004913D03*
X013271Y004913D03*
X013271Y004929D03*
X013286Y004944D03*
X013302Y004944D03*
X013318Y004960D03*
X013334Y004960D03*
X013349Y004960D03*
X013381Y004976D03*
X013397Y004976D03*
X013412Y004976D03*
X013428Y004992D03*
X013444Y004992D03*
X013460Y004992D03*
X013475Y004992D03*
X013491Y004992D03*
X013491Y004881D03*
X013491Y004866D03*
X013507Y004881D03*
X013523Y004881D03*
X013554Y004881D03*
X013570Y004881D03*
X013586Y004881D03*
X013601Y004881D03*
X013617Y004866D03*
X013633Y004866D03*
X013649Y004866D03*
X013664Y004850D03*
X013680Y004834D03*
X013680Y004818D03*
X013664Y004818D03*
X013664Y004803D03*
X013649Y004787D03*
X013633Y004771D03*
X013617Y004755D03*
X013601Y004740D03*
X013586Y004740D03*
X013586Y004724D03*
X013570Y004724D03*
X013554Y004708D03*
X013538Y004708D03*
X013523Y004692D03*
X013507Y004692D03*
X013507Y004677D03*
X013491Y004677D03*
X013475Y004661D03*
X013460Y004661D03*
X013444Y004645D03*
X013428Y004645D03*
X013412Y004629D03*
X013412Y004661D03*
X013412Y004677D03*
X013428Y004692D03*
X013428Y004708D03*
X013428Y004724D03*
X013428Y004740D03*
X013444Y004740D03*
X013444Y004755D03*
X013444Y004771D03*
X013460Y004787D03*
X013460Y004803D03*
X013460Y004818D03*
X013475Y004834D03*
X013475Y004850D03*
X013617Y005007D03*
X013633Y005007D03*
X013649Y005007D03*
X013664Y004992D03*
X013727Y004992D03*
X013743Y004976D03*
X013790Y004960D03*
X013806Y004944D03*
X013806Y004929D03*
X013822Y004913D03*
X013822Y004897D03*
X013822Y004881D03*
X013822Y004866D03*
X013806Y004850D03*
X013806Y004834D03*
X013806Y004818D03*
X013790Y004803D03*
X013790Y004787D03*
X013774Y004787D03*
X013774Y004771D03*
X013759Y004771D03*
X013759Y004755D03*
X013743Y004755D03*
X013727Y004740D03*
X013711Y004724D03*
X013696Y004724D03*
X013680Y004708D03*
X013664Y004708D03*
X013664Y004692D03*
X013649Y004692D03*
X013633Y004677D03*
X013617Y004677D03*
X013617Y004661D03*
X013601Y004661D03*
X013586Y004645D03*
X013570Y004645D03*
X013570Y004629D03*
X013554Y004629D03*
X013538Y004629D03*
X013538Y004614D03*
X013523Y004614D03*
X013507Y004598D03*
X013491Y004598D03*
X013475Y004582D03*
X013460Y004582D03*
X013444Y004566D03*
X013428Y004566D03*
X013412Y004551D03*
X013397Y004551D03*
X013397Y004535D03*
X013397Y004519D03*
X013412Y004503D03*
X013428Y004503D03*
X013444Y004503D03*
X013460Y004488D03*
X013475Y004488D03*
X013491Y004472D03*
X013507Y004472D03*
X013523Y004472D03*
X013538Y004456D03*
X013554Y004456D03*
X013570Y004440D03*
X013586Y004440D03*
X013601Y004425D03*
X013617Y004425D03*
X013633Y004409D03*
X013649Y004393D03*
X013664Y004377D03*
X013664Y004362D03*
X013680Y004362D03*
X013680Y004346D03*
X013538Y004346D03*
X013523Y004346D03*
X013523Y004362D03*
X013507Y004362D03*
X013491Y004377D03*
X013475Y004377D03*
X013460Y004393D03*
X013444Y004393D03*
X013428Y004393D03*
X013412Y004409D03*
X013397Y004409D03*
X013381Y004409D03*
X013365Y004425D03*
X013349Y004425D03*
X013334Y004425D03*
X013334Y004409D03*
X013334Y004393D03*
X013318Y004377D03*
X013318Y004362D03*
X013318Y004346D03*
X013302Y004330D03*
X013302Y004314D03*
X013302Y004299D03*
X013302Y004283D03*
X013286Y004267D03*
X013286Y004251D03*
X013286Y004236D03*
X013286Y004220D03*
X013271Y004220D03*
X013302Y004220D03*
X013318Y004220D03*
X013334Y004220D03*
X013349Y004236D03*
X013365Y004236D03*
X013381Y004236D03*
X013381Y004251D03*
X013397Y004251D03*
X013412Y004251D03*
X013428Y004267D03*
X013444Y004267D03*
X013460Y004283D03*
X013475Y004283D03*
X013491Y004283D03*
X013491Y004299D03*
X013507Y004299D03*
X013523Y004299D03*
X013523Y004314D03*
X013538Y004314D03*
X013538Y004330D03*
D13*
X013743Y004299D03*
X013979Y004566D03*
X013696Y004992D03*
X014499Y004818D03*
X014499Y004803D03*
X014956Y004598D03*
X015003Y004283D03*
X014893Y004173D03*
X016247Y004267D03*
X016404Y004818D03*
X016767Y004551D03*
X017082Y004299D03*
X017822Y004189D03*
X013192Y004078D03*
X013192Y004063D03*
D14*
X013200Y004094D03*
X013751Y004314D03*
X013971Y004267D03*
X014097Y004283D03*
X014365Y004173D03*
X014491Y004283D03*
X014570Y004141D03*
X014900Y004189D03*
X015089Y004314D03*
X015168Y004141D03*
X015562Y004220D03*
X015357Y004551D03*
X014491Y004787D03*
X014397Y004645D03*
X014349Y004456D03*
X013278Y004866D03*
X016538Y004314D03*
X016774Y004267D03*
X016790Y004283D03*
X016806Y004299D03*
X017089Y004314D03*
X017105Y004330D03*
X017168Y004141D03*
X017893Y004440D03*
X017908Y004456D03*
X017924Y004472D03*
X017940Y004488D03*
X017956Y004503D03*
X017956Y004519D03*
X017971Y004299D03*
X016586Y005023D03*
D15*
X016381Y004850D03*
X016397Y004803D03*
X016491Y004314D03*
X016538Y004299D03*
X016586Y004314D03*
X016649Y004157D03*
X016286Y004267D03*
X017152Y004126D03*
X017215Y004377D03*
X017357Y004566D03*
X017530Y004456D03*
X017641Y004330D03*
X017893Y004299D03*
X017971Y004645D03*
X015530Y004456D03*
X015357Y004566D03*
X015326Y004330D03*
X015089Y004299D03*
X015011Y004299D03*
X014916Y004425D03*
X014837Y004409D03*
X014806Y004267D03*
X014538Y004299D03*
X014507Y004299D03*
X014570Y004126D03*
X014192Y004299D03*
X014113Y004299D03*
X014397Y004629D03*
X014963Y004614D03*
X015562Y004204D03*
X015168Y004126D03*
X013767Y004976D03*
X013152Y004094D03*
D16*
X013168Y004110D03*
X013609Y004314D03*
X013609Y004330D03*
X013609Y004346D03*
X013593Y004362D03*
X013956Y004189D03*
X013971Y004535D03*
X014334Y004409D03*
X014334Y004299D03*
X014334Y004283D03*
X014365Y004204D03*
X014586Y004173D03*
X014617Y004299D03*
X014790Y004456D03*
X014837Y004488D03*
X014853Y004503D03*
X014869Y004519D03*
X014916Y004551D03*
X014932Y004566D03*
X014869Y004362D03*
X014885Y004283D03*
X014900Y004204D03*
X015215Y004204D03*
X015231Y004220D03*
X015326Y004503D03*
X015515Y004425D03*
X015530Y004330D03*
X016113Y004126D03*
X016397Y004377D03*
X016664Y004409D03*
X016680Y004425D03*
X016900Y004362D03*
X016664Y004189D03*
X016223Y004692D03*
X016223Y004708D03*
X016223Y004724D03*
X016334Y004866D03*
X016349Y004881D03*
X017326Y004503D03*
X017515Y004425D03*
X017530Y004330D03*
X017530Y004314D03*
X017767Y004346D03*
X017782Y004362D03*
X017798Y004377D03*
X017814Y004393D03*
X017956Y004614D03*
X017215Y004204D03*
X017200Y004189D03*
X014444Y004724D03*
X014428Y004708D03*
X014428Y004692D03*
X014412Y004677D03*
X013735Y004850D03*
X013389Y004787D03*
X013373Y004755D03*
X013341Y004629D03*
D17*
X013428Y004850D03*
X013444Y004866D03*
X013444Y004881D03*
X013869Y004425D03*
X013853Y004409D03*
X013837Y004393D03*
X013822Y004377D03*
X013759Y004330D03*
X013963Y004251D03*
X013979Y004283D03*
X013979Y004299D03*
X013995Y004314D03*
X013995Y004330D03*
X014011Y004362D03*
X014200Y004314D03*
X014341Y004440D03*
X014483Y004771D03*
X014908Y004409D03*
X015113Y004330D03*
X015129Y004346D03*
X015145Y004362D03*
X015160Y004377D03*
X015365Y004314D03*
X015523Y004440D03*
X016105Y004110D03*
X016751Y004535D03*
X016940Y004440D03*
X017129Y004346D03*
X017145Y004362D03*
X017160Y004377D03*
X017365Y004314D03*
X017554Y004220D03*
X017806Y004440D03*
X017806Y004456D03*
X017822Y004472D03*
X017837Y004503D03*
X017853Y004519D03*
X017963Y004629D03*
X017349Y004551D03*
X017176Y004157D03*
X016467Y004866D03*
X016420Y004834D03*
X013916Y004157D03*
X013239Y004236D03*
X013239Y004251D03*
X013239Y004267D03*
X013223Y004220D03*
X013255Y004330D03*
X013271Y004377D03*
D18*
X013357Y004582D03*
X013546Y004267D03*
X013184Y004126D03*
X013971Y004472D03*
X013971Y004488D03*
X013971Y004503D03*
X014302Y004362D03*
X014649Y004236D03*
X014664Y004251D03*
X014837Y004314D03*
X015263Y004425D03*
X015294Y004299D03*
X015278Y004283D03*
X016255Y004236D03*
X016397Y004267D03*
X016617Y004330D03*
X016680Y004236D03*
X017247Y004409D03*
X017263Y004425D03*
X017294Y004299D03*
X017483Y004377D03*
X017845Y004220D03*
X017908Y004535D03*
D19*
X016475Y004929D03*
X016460Y004913D03*
X016428Y004897D03*
X013357Y004472D03*
X013326Y004488D03*
X013231Y004141D03*
D20*
X013302Y004535D03*
X013554Y004393D03*
X013963Y004519D03*
X014011Y004236D03*
X014310Y004377D03*
X014373Y004220D03*
X014609Y004204D03*
X014625Y004220D03*
X014656Y004346D03*
X014845Y004330D03*
X014908Y004236D03*
X015286Y004440D03*
X015570Y004299D03*
X016121Y004141D03*
X016389Y004283D03*
X016326Y004503D03*
X016310Y004519D03*
X016294Y004535D03*
X016278Y004566D03*
X016247Y004614D03*
X016530Y004976D03*
X016625Y004346D03*
X016672Y004220D03*
X016940Y004299D03*
X017271Y004283D03*
X017271Y004440D03*
X017286Y004456D03*
X017491Y004393D03*
X017570Y004299D03*
X017570Y004283D03*
X017916Y004551D03*
X017932Y004566D03*
D21*
X013263Y004157D03*
D22*
X013349Y004645D03*
X013349Y004661D03*
X013349Y004677D03*
X013365Y004692D03*
X013365Y004708D03*
X013365Y004724D03*
X013365Y004740D03*
X013381Y004771D03*
X013397Y004803D03*
X013302Y004881D03*
X013475Y004629D03*
X013507Y004645D03*
X013538Y004661D03*
X013586Y004692D03*
X013664Y004740D03*
X013680Y004755D03*
X013696Y004771D03*
X013711Y004787D03*
X013727Y004803D03*
X013743Y004818D03*
X013743Y004834D03*
X014452Y004740D03*
X014467Y004755D03*
X014893Y004377D03*
X014578Y004157D03*
X015192Y004173D03*
X015208Y004189D03*
X015271Y004346D03*
X015286Y004377D03*
X015334Y004519D03*
X015570Y004236D03*
X016231Y004740D03*
X016231Y004755D03*
X016247Y004771D03*
X016263Y004803D03*
X016278Y004818D03*
X016294Y004834D03*
X016310Y004850D03*
X016483Y004881D03*
X016704Y004456D03*
X016688Y004440D03*
X016641Y004283D03*
X016641Y004267D03*
X016389Y004330D03*
X016389Y004346D03*
X016389Y004362D03*
X016908Y004377D03*
X016924Y004409D03*
X017192Y004173D03*
X017334Y004519D03*
X013932Y004173D03*
D23*
X014066Y004251D03*
X014097Y004267D03*
X014003Y004346D03*
X014019Y004377D03*
X014019Y004393D03*
X014019Y004409D03*
X014019Y004425D03*
X013971Y004551D03*
X013798Y004362D03*
X013782Y004346D03*
X013562Y004677D03*
X013609Y004708D03*
X013641Y004724D03*
X013420Y004834D03*
X013404Y004818D03*
X013562Y005007D03*
X013278Y004425D03*
X013278Y004409D03*
X013278Y004393D03*
X013263Y004362D03*
X013263Y004346D03*
X013247Y004314D03*
X013247Y004299D03*
X013247Y004283D03*
X014334Y004425D03*
X014365Y004189D03*
X014617Y004283D03*
X014759Y004283D03*
X014900Y004393D03*
X014948Y004582D03*
X015341Y004535D03*
X015278Y004362D03*
X015263Y004330D03*
X015247Y004314D03*
X015389Y004330D03*
X015184Y004157D03*
X014397Y004661D03*
X016255Y004787D03*
X016444Y004850D03*
X016570Y005007D03*
X016743Y004519D03*
X016727Y004503D03*
X016727Y004488D03*
X016711Y004472D03*
X016649Y004314D03*
X016649Y004299D03*
X016649Y004173D03*
X016932Y004236D03*
X016916Y004393D03*
X016932Y004425D03*
X017247Y004314D03*
X017263Y004330D03*
X017263Y004346D03*
X017278Y004362D03*
X017278Y004377D03*
X017389Y004330D03*
X017515Y004440D03*
X017341Y004535D03*
X017562Y004236D03*
X017830Y004488D03*
D24*
X017239Y004393D03*
X016688Y004251D03*
X016231Y004220D03*
X016137Y004157D03*
X015491Y004377D03*
X015255Y004409D03*
X015239Y004393D03*
X014924Y004251D03*
X014830Y004299D03*
X014672Y004267D03*
X014389Y004236D03*
X014294Y004346D03*
X013711Y004881D03*
X013381Y004598D03*
X013286Y004519D03*
X013523Y004409D03*
X013523Y004251D03*
X016515Y004960D03*
D25*
X013381Y004456D03*
X013302Y004173D03*
D26*
X013499Y004236D03*
X013483Y004425D03*
X013294Y004503D03*
X013971Y004456D03*
X014286Y004330D03*
X014397Y004251D03*
X014932Y004267D03*
X015483Y004362D03*
X016160Y004173D03*
X016176Y004189D03*
X016491Y004944D03*
X017483Y004362D03*
X017861Y004236D03*
D27*
X013397Y004440D03*
X013334Y004189D03*
D28*
X013578Y004283D03*
X013578Y004377D03*
X013341Y004566D03*
X013310Y004551D03*
X013735Y004866D03*
X013578Y004992D03*
X013987Y004220D03*
X013971Y004204D03*
X014318Y004393D03*
X014601Y004189D03*
X014680Y004362D03*
X015247Y004251D03*
X015263Y004267D03*
X015294Y004456D03*
X015310Y004472D03*
X015499Y004393D03*
X015578Y004283D03*
X015578Y004267D03*
X016255Y004598D03*
X016271Y004582D03*
X016286Y004551D03*
X016334Y004488D03*
X016349Y004472D03*
X016365Y004456D03*
X016365Y004440D03*
X016397Y004299D03*
X016633Y004362D03*
X016649Y004377D03*
X016664Y004204D03*
X016885Y004330D03*
X016948Y004283D03*
X016948Y004267D03*
X017247Y004251D03*
X017263Y004267D03*
X017294Y004472D03*
X017499Y004409D03*
X017578Y004267D03*
X017767Y004299D03*
X017830Y004425D03*
X017940Y004582D03*
X016239Y004629D03*
X016239Y004645D03*
D29*
X013365Y004204D03*
D30*
X013460Y004220D03*
X013397Y004614D03*
X013963Y004440D03*
X014404Y004267D03*
X015475Y004346D03*
X016200Y004204D03*
X016310Y004251D03*
X016908Y004314D03*
X017475Y004346D03*
X017869Y004251D03*
D31*
X017837Y004204D03*
X017759Y004314D03*
X017759Y004330D03*
X017822Y004409D03*
X017948Y004598D03*
X017570Y004251D03*
X017239Y004236D03*
X017223Y004220D03*
X017318Y004488D03*
X016940Y004251D03*
X016893Y004346D03*
X016656Y004393D03*
X016404Y004314D03*
X016389Y004393D03*
X016389Y004409D03*
X016373Y004425D03*
X016231Y004661D03*
X016231Y004677D03*
X016546Y004992D03*
X015507Y004409D03*
X015538Y004314D03*
X015570Y004251D03*
X015239Y004236D03*
X015318Y004488D03*
X014893Y004535D03*
X014814Y004472D03*
X014767Y004440D03*
X014751Y004425D03*
X014735Y004409D03*
X014719Y004393D03*
X014704Y004377D03*
X014641Y004330D03*
X014625Y004314D03*
X014861Y004346D03*
X014908Y004220D03*
X014326Y004314D03*
X013601Y004299D03*
D32*
X017869Y004267D03*
D33*
X017845Y004283D03*
X013578Y004976D03*
D34*
X013530Y004897D03*
D35*
X013546Y004913D03*
D36*
X013538Y004929D03*
D37*
X013554Y004944D03*
D38*
X013570Y004960D03*
D39*
X010937Y004900D02*
X010182Y004900D01*
X010187Y004540D02*
X010942Y004540D01*
X010942Y003900D02*
X010187Y003900D01*
X009062Y003470D02*
X009062Y002970D01*
X008812Y002720D01*
X008312Y002720D01*
X008062Y002970D01*
X007812Y002720D01*
X007312Y002720D01*
X007062Y002970D01*
X006812Y002720D01*
X006312Y002720D01*
X006062Y002970D01*
X006062Y003470D01*
X006312Y003720D01*
X006812Y003720D01*
X007062Y003470D01*
X007312Y003720D01*
X007812Y003720D01*
X008062Y003470D01*
X008312Y003720D01*
X008812Y003720D01*
X009062Y003470D01*
X008562Y004120D02*
X002623Y004120D01*
X002615Y004127D02*
X002615Y016275D01*
X002623Y016320D02*
X004062Y016320D01*
X004062Y004127D01*
X006062Y001970D02*
X006312Y002220D01*
X006812Y002220D01*
X007062Y001970D01*
X007312Y002220D01*
X007812Y002220D01*
X008062Y001970D01*
X008312Y002220D01*
X008812Y002220D01*
X009062Y001970D01*
X009062Y001470D01*
X008812Y001220D01*
X008312Y001220D01*
X008062Y001470D01*
X007812Y001220D01*
X007312Y001220D01*
X007062Y001470D01*
X006812Y001220D01*
X006312Y001220D01*
X006062Y001470D01*
X006062Y001970D01*
X008562Y004120D02*
X008812Y004370D01*
X008812Y006270D01*
X008612Y006470D01*
X004062Y006470D01*
X003812Y006485D02*
X002980Y006485D01*
X002980Y013955D01*
X002980Y014005D01*
X002623Y014005D01*
X002980Y013955D02*
X003812Y013955D01*
X003842Y013953D01*
X003872Y013948D01*
X003901Y013939D01*
X003928Y013926D01*
X003954Y013911D01*
X003978Y013892D01*
X003999Y013871D01*
X004018Y013847D01*
X004033Y013821D01*
X004046Y013794D01*
X004055Y013765D01*
X004060Y013735D01*
X004062Y013705D01*
X004062Y013970D02*
X008612Y013970D01*
X008812Y014170D01*
X008812Y016120D01*
X008612Y016320D01*
X004062Y016320D01*
X005562Y017470D02*
X005812Y017220D01*
X006312Y017220D01*
X006562Y017470D01*
X006812Y017220D01*
X007312Y017220D01*
X007562Y017470D01*
X007812Y017220D01*
X008312Y017220D01*
X008562Y017470D01*
X008562Y017970D01*
X008312Y018220D01*
X007812Y018220D01*
X007562Y017970D01*
X007312Y018220D01*
X006812Y018220D01*
X006562Y017970D01*
X006312Y018220D01*
X005812Y018220D01*
X005562Y017970D01*
X005562Y017470D01*
X006412Y015141D02*
X006414Y015191D01*
X006420Y015241D01*
X006430Y015291D01*
X006443Y015339D01*
X006460Y015387D01*
X006481Y015433D01*
X006505Y015477D01*
X006533Y015519D01*
X006564Y015559D01*
X006598Y015596D01*
X006635Y015631D01*
X006674Y015662D01*
X006715Y015691D01*
X006759Y015716D01*
X006805Y015738D01*
X006852Y015756D01*
X006900Y015770D01*
X006949Y015781D01*
X006999Y015788D01*
X007049Y015791D01*
X007100Y015790D01*
X007150Y015785D01*
X007200Y015776D01*
X007248Y015764D01*
X007296Y015747D01*
X007342Y015727D01*
X007387Y015704D01*
X007430Y015677D01*
X007470Y015647D01*
X007508Y015614D01*
X007543Y015578D01*
X007576Y015539D01*
X007605Y015498D01*
X007631Y015455D01*
X007654Y015410D01*
X007673Y015363D01*
X007688Y015315D01*
X007700Y015266D01*
X007708Y015216D01*
X007712Y015166D01*
X007712Y015116D01*
X007708Y015066D01*
X007700Y015016D01*
X007688Y014967D01*
X007673Y014919D01*
X007654Y014872D01*
X007631Y014827D01*
X007605Y014784D01*
X007576Y014743D01*
X007543Y014704D01*
X007508Y014668D01*
X007470Y014635D01*
X007430Y014605D01*
X007387Y014578D01*
X007342Y014555D01*
X007296Y014535D01*
X007248Y014518D01*
X007200Y014506D01*
X007150Y014497D01*
X007100Y014492D01*
X007049Y014491D01*
X006999Y014494D01*
X006949Y014501D01*
X006900Y014512D01*
X006852Y014526D01*
X006805Y014544D01*
X006759Y014566D01*
X006715Y014591D01*
X006674Y014620D01*
X006635Y014651D01*
X006598Y014686D01*
X006564Y014723D01*
X006533Y014763D01*
X006505Y014805D01*
X006481Y014849D01*
X006460Y014895D01*
X006443Y014943D01*
X006430Y014991D01*
X006420Y015041D01*
X006414Y015091D01*
X006412Y015141D01*
X010062Y016470D02*
X010062Y016970D01*
X010312Y017220D01*
X010812Y017220D01*
X011062Y016970D01*
X011312Y017220D01*
X011812Y017220D01*
X012062Y016970D01*
X012312Y017220D01*
X012812Y017220D01*
X013062Y016970D01*
X013312Y017220D01*
X013812Y017220D01*
X014062Y016970D01*
X014312Y017220D01*
X014812Y017220D01*
X015062Y016970D01*
X015312Y017220D01*
X015812Y017220D01*
X016062Y016970D01*
X016312Y017220D01*
X016812Y017220D01*
X017062Y016970D01*
X017312Y017220D01*
X017812Y017220D01*
X018062Y016970D01*
X018312Y017220D01*
X018812Y017220D01*
X019062Y016970D01*
X019312Y017220D01*
X019812Y017220D01*
X020062Y016970D01*
X020062Y016470D01*
X019812Y016220D01*
X019312Y016220D01*
X019062Y016470D01*
X018812Y016220D01*
X018312Y016220D01*
X018062Y016470D01*
X017812Y016220D01*
X017312Y016220D01*
X017062Y016470D01*
X016812Y016220D01*
X016312Y016220D01*
X016062Y016470D01*
X015812Y016220D01*
X015312Y016220D01*
X015062Y016470D01*
X014812Y016220D01*
X014312Y016220D01*
X014062Y016470D01*
X013812Y016220D01*
X013312Y016220D01*
X013062Y016470D01*
X012812Y016220D01*
X012312Y016220D01*
X012062Y016470D01*
X011812Y016220D01*
X011312Y016220D01*
X011062Y016470D01*
X010812Y016220D01*
X010312Y016220D01*
X010062Y016470D01*
X010182Y011540D02*
X010937Y011540D01*
X010937Y010900D02*
X010182Y010900D01*
X010182Y010540D02*
X010937Y010540D01*
X010937Y009900D02*
X010182Y009900D01*
X010182Y009540D02*
X010937Y009540D01*
X010937Y008900D02*
X010182Y008900D01*
X010182Y008540D02*
X010937Y008540D01*
X010937Y007900D02*
X010182Y007900D01*
X010182Y007540D02*
X010937Y007540D01*
X010937Y006900D02*
X010182Y006900D01*
X010182Y006540D02*
X010937Y006540D01*
X010937Y005900D02*
X010182Y005900D01*
X010182Y005540D02*
X010937Y005540D01*
X013734Y007589D02*
X013931Y007392D01*
X016193Y007392D01*
X016390Y007589D01*
X016390Y009851D01*
X016193Y010048D01*
X013931Y010048D01*
X013734Y009851D01*
X013734Y007589D01*
X015849Y007736D02*
X015851Y007763D01*
X015857Y007790D01*
X015866Y007816D01*
X015879Y007840D01*
X015895Y007863D01*
X015914Y007882D01*
X015936Y007899D01*
X015960Y007913D01*
X015985Y007923D01*
X016012Y007930D01*
X016039Y007933D01*
X016067Y007932D01*
X016094Y007927D01*
X016120Y007919D01*
X016144Y007907D01*
X016167Y007891D01*
X016188Y007873D01*
X016205Y007852D01*
X016220Y007828D01*
X016231Y007803D01*
X016239Y007777D01*
X016243Y007750D01*
X016243Y007722D01*
X016239Y007695D01*
X016231Y007669D01*
X016220Y007644D01*
X016205Y007620D01*
X016188Y007599D01*
X016167Y007581D01*
X016145Y007565D01*
X016120Y007553D01*
X016094Y007545D01*
X016067Y007540D01*
X016039Y007539D01*
X016012Y007542D01*
X015985Y007549D01*
X015960Y007559D01*
X015936Y007573D01*
X015914Y007590D01*
X015895Y007609D01*
X015879Y007632D01*
X015866Y007656D01*
X015857Y007682D01*
X015851Y007709D01*
X015849Y007736D01*
X020062Y007970D02*
X020062Y007470D01*
X020312Y007220D01*
X020062Y006970D01*
X020062Y006470D01*
X020312Y006220D01*
X020062Y005970D01*
X020062Y005470D01*
X020312Y005220D01*
X020062Y004970D01*
X020062Y004470D01*
X020312Y004220D01*
X020062Y003970D01*
X020062Y003470D01*
X020312Y003220D01*
X020812Y003220D01*
X021062Y003470D01*
X021062Y003970D01*
X020812Y004220D01*
X021062Y004470D01*
X021062Y004970D01*
X020812Y005220D01*
X021062Y005470D01*
X021062Y005970D01*
X020812Y006220D01*
X021062Y006470D01*
X021062Y006970D01*
X020812Y007220D01*
X021062Y007470D01*
X021062Y007970D01*
X020812Y008220D01*
X021062Y008470D01*
X021062Y008970D01*
X020812Y009220D01*
X021062Y009470D01*
X021062Y009970D01*
X020812Y010220D01*
X021062Y010470D01*
X021062Y010970D01*
X020812Y011220D01*
X021062Y011470D01*
X021062Y011970D01*
X020812Y012220D01*
X021062Y012470D01*
X021062Y012970D01*
X020812Y013220D01*
X020312Y013220D01*
X020062Y013470D01*
X020062Y013970D01*
X020312Y014220D01*
X020062Y014470D01*
X020062Y014970D01*
X020312Y015220D01*
X020062Y015470D01*
X020062Y015970D01*
X020312Y016220D01*
X020812Y016220D01*
X021062Y015970D01*
X021062Y015470D01*
X020812Y015220D01*
X021062Y014970D01*
X021062Y014470D01*
X020812Y014220D01*
X021062Y013970D01*
X021062Y013470D01*
X020812Y013220D01*
X020312Y013220D01*
X020062Y012970D01*
X020062Y012470D01*
X020312Y012220D01*
X020062Y011970D01*
X020062Y011470D01*
X020312Y011220D01*
X020062Y010970D01*
X020062Y010470D01*
X020312Y010220D01*
X020062Y009970D01*
X020062Y009470D01*
X020312Y009220D01*
X020062Y008970D01*
X020062Y008470D01*
X020312Y008220D01*
X020062Y007970D01*
X019312Y002220D02*
X018812Y002220D01*
X018562Y001970D01*
X018312Y002220D01*
X017812Y002220D01*
X017562Y001970D01*
X017312Y002220D01*
X016812Y002220D01*
X016562Y001970D01*
X016312Y002220D01*
X015812Y002220D01*
X015562Y001970D01*
X015312Y002220D01*
X014812Y002220D01*
X014562Y001970D01*
X014312Y002220D01*
X013812Y002220D01*
X013562Y001970D01*
X013312Y002220D01*
X012812Y002220D01*
X012562Y001970D01*
X012312Y002220D01*
X011812Y002220D01*
X011562Y001970D01*
X011312Y002220D01*
X010812Y002220D01*
X010562Y001970D01*
X010312Y002220D01*
X009812Y002220D01*
X009562Y001970D01*
X009562Y001470D01*
X009812Y001220D01*
X010312Y001220D01*
X010562Y001470D01*
X010812Y001220D01*
X011312Y001220D01*
X011562Y001470D01*
X011812Y001220D01*
X012312Y001220D01*
X012562Y001470D01*
X012812Y001220D01*
X013312Y001220D01*
X013562Y001470D01*
X013812Y001220D01*
X014312Y001220D01*
X014562Y001470D01*
X014812Y001220D01*
X015312Y001220D01*
X015562Y001470D01*
X015812Y001220D01*
X016312Y001220D01*
X016562Y001470D01*
X016812Y001220D01*
X017312Y001220D01*
X017562Y001470D01*
X017812Y001220D01*
X018312Y001220D01*
X018562Y001470D01*
X018812Y001220D01*
X019312Y001220D01*
X019562Y001470D01*
X019562Y001970D01*
X019312Y002220D01*
X006412Y005299D02*
X006414Y005349D01*
X006420Y005399D01*
X006430Y005449D01*
X006443Y005497D01*
X006460Y005545D01*
X006481Y005591D01*
X006505Y005635D01*
X006533Y005677D01*
X006564Y005717D01*
X006598Y005754D01*
X006635Y005789D01*
X006674Y005820D01*
X006715Y005849D01*
X006759Y005874D01*
X006805Y005896D01*
X006852Y005914D01*
X006900Y005928D01*
X006949Y005939D01*
X006999Y005946D01*
X007049Y005949D01*
X007100Y005948D01*
X007150Y005943D01*
X007200Y005934D01*
X007248Y005922D01*
X007296Y005905D01*
X007342Y005885D01*
X007387Y005862D01*
X007430Y005835D01*
X007470Y005805D01*
X007508Y005772D01*
X007543Y005736D01*
X007576Y005697D01*
X007605Y005656D01*
X007631Y005613D01*
X007654Y005568D01*
X007673Y005521D01*
X007688Y005473D01*
X007700Y005424D01*
X007708Y005374D01*
X007712Y005324D01*
X007712Y005274D01*
X007708Y005224D01*
X007700Y005174D01*
X007688Y005125D01*
X007673Y005077D01*
X007654Y005030D01*
X007631Y004985D01*
X007605Y004942D01*
X007576Y004901D01*
X007543Y004862D01*
X007508Y004826D01*
X007470Y004793D01*
X007430Y004763D01*
X007387Y004736D01*
X007342Y004713D01*
X007296Y004693D01*
X007248Y004676D01*
X007200Y004664D01*
X007150Y004655D01*
X007100Y004650D01*
X007049Y004649D01*
X006999Y004652D01*
X006949Y004659D01*
X006900Y004670D01*
X006852Y004684D01*
X006805Y004702D01*
X006759Y004724D01*
X006715Y004749D01*
X006674Y004778D01*
X006635Y004809D01*
X006598Y004844D01*
X006564Y004881D01*
X006533Y004921D01*
X006505Y004963D01*
X006481Y005007D01*
X006460Y005053D01*
X006443Y005101D01*
X006430Y005149D01*
X006420Y005199D01*
X006414Y005249D01*
X006412Y005299D01*
X004062Y006735D02*
X004060Y006705D01*
X004055Y006675D01*
X004046Y006646D01*
X004033Y006619D01*
X004018Y006593D01*
X003999Y006569D01*
X003978Y006548D01*
X003954Y006529D01*
X003928Y006514D01*
X003901Y006501D01*
X003872Y006492D01*
X003842Y006487D01*
X003812Y006485D01*
X002980Y006485D02*
X002980Y006435D01*
X002623Y006435D01*
X002619Y006770D02*
X002617Y006800D01*
X002612Y006830D01*
X002603Y006859D01*
X002590Y006886D01*
X002575Y006912D01*
X002556Y006936D01*
X002535Y006957D01*
X002511Y006976D01*
X002485Y006991D01*
X002458Y007004D01*
X002429Y007013D01*
X002399Y007018D01*
X002369Y007020D01*
X000330Y007020D01*
X000304Y007022D01*
X000278Y007027D01*
X000253Y007035D01*
X000230Y007047D01*
X000208Y007061D01*
X000189Y007079D01*
X000171Y007098D01*
X000157Y007120D01*
X000145Y007143D01*
X000137Y007168D01*
X000132Y007194D01*
X000130Y007220D01*
X000130Y013220D01*
X000132Y013246D01*
X000137Y013272D01*
X000145Y013297D01*
X000157Y013320D01*
X000171Y013342D01*
X000189Y013361D01*
X000208Y013379D01*
X000230Y013393D01*
X000253Y013405D01*
X000278Y013413D01*
X000304Y013418D01*
X000330Y013420D01*
X002369Y013420D01*
X002399Y013422D01*
X002429Y013427D01*
X002458Y013436D01*
X002485Y013449D01*
X002511Y013464D01*
X002535Y013483D01*
X002556Y013504D01*
X002575Y013528D01*
X002590Y013554D01*
X002603Y013581D01*
X002612Y013610D01*
X002617Y013640D01*
X002619Y013670D01*
D40*
X013537Y009803D03*
X013537Y009606D03*
X013537Y009409D03*
X013537Y009212D03*
X013537Y009015D03*
X013537Y008818D03*
X013537Y008622D03*
X013537Y008425D03*
X013537Y008228D03*
X013537Y008031D03*
X013537Y007834D03*
X013537Y007637D03*
X016587Y007637D03*
X016587Y007834D03*
X016587Y008031D03*
X016587Y008228D03*
X016587Y008425D03*
X016587Y008622D03*
X016587Y008818D03*
X016587Y009015D03*
X016587Y009212D03*
X016587Y009409D03*
X016587Y009606D03*
X016587Y009803D03*
D41*
X016145Y010245D03*
X015948Y010245D03*
X015751Y010245D03*
X015554Y010245D03*
X015357Y010245D03*
X015160Y010245D03*
X014963Y010245D03*
X014767Y010245D03*
X014570Y010245D03*
X014373Y010245D03*
X014176Y010245D03*
X013979Y010245D03*
X013979Y007195D03*
X014176Y007195D03*
X014373Y007195D03*
X014570Y007195D03*
X014767Y007195D03*
X014963Y007195D03*
X015160Y007195D03*
X015357Y007195D03*
X015554Y007195D03*
X015751Y007195D03*
X015948Y007195D03*
X016145Y007195D03*
D42*
X018987Y002845D02*
X018987Y002395D01*
X018837Y002395D02*
X019137Y002395D01*
X019297Y002470D02*
X019297Y002770D01*
X019372Y002845D01*
X019522Y002845D01*
X019598Y002770D01*
X019297Y002470D01*
X019372Y002395D01*
X019522Y002395D01*
X019598Y002470D01*
X019598Y002770D01*
X018987Y002845D02*
X018837Y002695D01*
X021237Y003695D02*
X021387Y003545D01*
X021237Y003695D02*
X021687Y003695D01*
X021687Y003545D02*
X021687Y003845D01*
X019887Y012495D02*
X019887Y012795D01*
X019887Y012645D02*
X019437Y012645D01*
X019587Y012495D01*
X019512Y012955D02*
X019437Y013030D01*
X019437Y013181D01*
X019512Y013256D01*
X019812Y012955D01*
X019887Y013030D01*
X019887Y013181D01*
X019812Y013256D01*
X019512Y013256D01*
X019512Y012955D02*
X019812Y012955D01*
X020487Y016285D02*
X020337Y016435D01*
X020787Y016435D01*
X020787Y016285D02*
X020787Y016585D01*
X019627Y017395D02*
X019326Y017395D01*
X019477Y017395D02*
X019477Y017845D01*
X019326Y017695D01*
X010677Y015970D02*
X010677Y015670D01*
X010602Y015595D01*
X010452Y015595D01*
X010376Y015670D01*
X010677Y015970D01*
X010602Y016045D01*
X010452Y016045D01*
X010376Y015970D01*
X010376Y015670D01*
X010216Y015595D02*
X009916Y015595D01*
X010066Y015595D02*
X010066Y016045D01*
X009916Y015895D01*
X008247Y012807D02*
X008097Y012807D01*
X008022Y012732D01*
X008022Y012657D01*
X008097Y012507D01*
X007872Y012507D01*
X007872Y012807D01*
X008247Y012807D02*
X008322Y012732D01*
X008322Y012582D01*
X008247Y012507D01*
X007275Y012426D02*
X007275Y012125D01*
X007275Y012276D02*
X006825Y012276D01*
X006975Y012125D01*
X006900Y012586D02*
X006825Y012661D01*
X006825Y012811D01*
X006900Y012886D01*
X007200Y012586D01*
X007275Y012661D01*
X007275Y012811D01*
X007200Y012886D01*
X006900Y012886D01*
X006900Y012586D02*
X007200Y012586D01*
X006133Y012553D02*
X005683Y012553D01*
X005833Y012403D01*
X006133Y012403D02*
X006133Y012703D01*
X006058Y012863D02*
X006133Y012938D01*
X006133Y013089D01*
X006058Y013164D01*
X005908Y013164D01*
X005833Y013089D01*
X005833Y013013D01*
X005908Y012863D01*
X005683Y012863D01*
X005683Y013164D01*
X001743Y012397D02*
X001743Y012247D01*
X001668Y012172D01*
X001367Y012172D01*
X001292Y012247D01*
X001292Y012397D01*
X001367Y012472D01*
X001668Y012472D02*
X001743Y012397D01*
X001743Y012012D02*
X001743Y011712D01*
X001292Y011712D01*
X001292Y012012D01*
X001518Y011862D02*
X001518Y011712D01*
X001743Y011551D02*
X001292Y011551D01*
X001292Y011251D02*
X001743Y011551D01*
X001743Y011251D02*
X001292Y011251D01*
X001367Y011091D02*
X001292Y011016D01*
X001292Y010866D01*
X001367Y010791D01*
X001668Y010791D01*
X001743Y010866D01*
X001743Y011016D01*
X001668Y011091D01*
X001367Y011091D01*
X001367Y010631D02*
X001292Y010556D01*
X001292Y010405D01*
X001367Y010330D01*
X001668Y010330D01*
X001743Y010405D01*
X001743Y010556D01*
X001668Y010631D01*
X001668Y009710D02*
X001518Y009710D01*
X001443Y009635D01*
X001443Y009560D01*
X001518Y009410D01*
X001292Y009410D01*
X001292Y009710D01*
X001668Y009710D02*
X001743Y009635D01*
X001743Y009485D01*
X001668Y009410D01*
X001743Y009250D02*
X001743Y008949D01*
X001743Y009099D02*
X001292Y009099D01*
X001443Y008949D01*
X001292Y008789D02*
X001292Y008489D01*
X001743Y008489D01*
X001668Y008329D02*
X001367Y008329D01*
X001292Y008254D01*
X001292Y008028D01*
X001743Y008028D01*
X001743Y008254D01*
X001668Y008329D01*
X001518Y008489D02*
X001518Y008639D01*
X001518Y007868D02*
X001518Y007568D01*
X001743Y007568D02*
X001292Y007568D01*
X001292Y007868D02*
X001743Y007868D01*
X005801Y007580D02*
X005951Y007430D01*
X005801Y007580D02*
X006251Y007580D01*
X006251Y007430D02*
X006251Y007731D01*
X006251Y007270D02*
X006251Y006970D01*
X006251Y007120D02*
X005801Y007120D01*
X005951Y006970D01*
X006864Y007494D02*
X006939Y007344D01*
X007089Y007194D01*
X007089Y007419D01*
X007164Y007494D01*
X007239Y007494D01*
X007314Y007419D01*
X007314Y007269D01*
X007239Y007194D01*
X007089Y007194D01*
X007911Y007777D02*
X008362Y007777D01*
X008362Y007627D02*
X008362Y007927D01*
X008061Y007627D02*
X007911Y007777D01*
X009277Y003445D02*
X009277Y002995D01*
X009427Y002995D02*
X009126Y002995D01*
X009126Y003295D02*
X009277Y003445D01*
X009277Y001945D02*
X009126Y001795D01*
X009277Y001945D02*
X009277Y001495D01*
X009427Y001495D02*
X009126Y001495D01*
X009887Y000895D02*
X010037Y001045D01*
X010037Y000595D01*
X009887Y000595D02*
X010187Y000595D01*
X005387Y017495D02*
X005087Y017495D01*
X005237Y017495D02*
X005237Y017945D01*
X005087Y017795D01*
D43*
X005271Y011666D03*
X005271Y010766D03*
X005271Y009866D03*
X005271Y008966D03*
X005271Y008066D03*
D44*
X004778Y008516D03*
X004778Y009416D03*
X004778Y010316D03*
X004778Y011216D03*
X004778Y012116D03*
D45*
X007042Y012116D03*
X007042Y011216D03*
X007042Y010316D03*
X007042Y009416D03*
X007042Y008516D03*
D46*
X010042Y008220D03*
X011082Y008220D03*
X011082Y007220D03*
X010042Y007220D03*
X010042Y006220D03*
X011082Y006220D03*
X011082Y005220D03*
X010042Y005220D03*
X010042Y004220D03*
X011082Y004220D03*
X011082Y009220D03*
X010042Y009220D03*
X010042Y010220D03*
X011082Y010220D03*
X011082Y011220D03*
X010042Y011220D03*
D47*
X010562Y016720D03*
X011562Y016720D03*
X012562Y016720D03*
X013562Y016720D03*
X014562Y016720D03*
X015562Y016720D03*
X016562Y016720D03*
X017562Y016720D03*
X018562Y016720D03*
X019562Y016720D03*
X020562Y015720D03*
X020562Y014720D03*
X020562Y013720D03*
X020562Y012720D03*
X020562Y011720D03*
X020562Y010720D03*
X020562Y009720D03*
X020562Y008720D03*
X020562Y007720D03*
X020562Y006720D03*
X020562Y005720D03*
X020562Y004720D03*
X020562Y003720D03*
X019062Y001720D03*
X018062Y001720D03*
X017062Y001720D03*
X016062Y001720D03*
X015062Y001720D03*
X014062Y001720D03*
X013062Y001720D03*
X012062Y001720D03*
X011062Y001720D03*
X010062Y001720D03*
X008562Y001720D03*
X007562Y001720D03*
X006562Y001720D03*
X006562Y003220D03*
X007562Y003220D03*
X008562Y003220D03*
X008062Y017720D03*
X007062Y017720D03*
X006062Y017720D03*
M02*
